<svg id="drawings" xmlns="http://www.w3.org/2000/svg" viewBox="0 0 547.48 424.54"><defs><style>.cls-1,.cls-2,.cls-5{fill:none;}.cls-1,.cls-5{stroke:#000;}.cls-1{stroke-linecap:round;stroke-linejoin:round;}.cls-3,.cls-4{fill:#231f20;}.cls-3{fill-rule:evenodd;}.cls-5{stroke-miterlimit:10;}</style></defs><g id="_9_10" data-name="9/10"><g id="Litter_Box_copy_10" data-name="Litter Box copy 10"><rect class="cls-1" x="0.5" y="106.32" width="47.94" height="61.51"/><rect class="cls-1" x="499.04" y="0.5" width="47.94" height="61.51"/></g><g id="Path_copy_10" data-name="Path copy 10"><polygon class="cls-2" points="372.64 119.42 378.02 115.92 380.72 114.17 383.44 112.51 375.61 99.72 372.73 101.47 369.92 103.3 364.3 106.95 372.64 119.42"/><polygon class="cls-3" points="376.33 107.44 377.13 108.71 379.21 107.44 378.42 106.17 376.33 107.44"/><polygon class="cls-3" points="372.66 109.82 373.48 111.08 375.52 109.76 374.71 108.49 372.66 109.82"/><polygon class="cls-3" points="369.01 112.2 369.84 113.45 371.88 112.13 371.05 110.87 369.01 112.2"/><path class="cls-2" d="M457.92,182.62c1.82-1.09,3.62-2.25,5.46-3.29l5.53-3.11L461.76,163l-5.9,3.33c-2,1.11-3.85,2.32-5.78,3.47Z" transform="translate(-74.47 -70.11)"/><polygon class="cls-3" points="387.64 100.72 388.37 102.03 390.48 100.84 389.76 99.52 387.64 100.72"/><polygon class="cls-3" points="383.82 102.88 384.58 104.17 386.7 102.97 385.95 101.67 383.82 102.88"/><polygon class="cls-3" points="380.1 105.14 380.88 106.43 382.95 105.16 382.18 103.88 380.1 105.14"/><path class="cls-2" d="M468.91,176.22l5.59-2.9c1.86-.95,3.76-1.76,5.63-2.65L474.07,157c-2.08,1-4.21,1.9-6.24,2.94L461.76,163Z" transform="translate(-74.47 -70.11)"/><polygon class="cls-3" points="399.31 94.65 399.95 96.01 402.14 94.99 401.53 93.62 399.31 94.65"/><path class="cls-3" d="M469.85,166.69l.67,1.34c.72-.37,1.43-.76,2.16-1.1l-.66-1.35C471.29,165.93,470.57,166.32,469.85,166.69Z" transform="translate(-74.47 -70.11)"/><polygon class="cls-3" points="391.49 98.58 392.2 99.9 394.35 98.79 393.66 97.46 391.49 98.58"/><path class="cls-2" d="M480.13,170.67c1.89-.85,3.79-1.56,5.67-2.35l2.85-1c.94-.32,1.89-.68,2.83-.9L487.29,152c-1.19.3-2.29.71-3.41,1.09s-2.25.76-3.36,1.17c-2.15.88-4.35,1.71-6.45,2.66Z" transform="translate(-74.47 -70.11)"/><path class="cls-3" d="M486,159.77l.48,1.42c.76-.26,1.52-.53,2.29-.77L488.3,159C487.52,159.23,486.75,159.51,486,159.77Z" transform="translate(-74.47 -70.11)"/><path class="cls-3" d="M481.85,161.27l.54,1.39c.74-.31,1.49-.61,2.26-.85l-.51-1.41C483.36,160.65,482.6,161,481.85,161.27Z" transform="translate(-74.47 -70.11)"/><polygon class="cls-3" points="403.32 92.8 403.92 94.17 406.15 93.27 405.59 91.88 403.32 92.8"/><path class="cls-2" d="M491.48,166.44l2.82-.78c.94-.21,1.86-.37,2.78-.56a22.27,22.27,0,0,1,2.72-.39c.44-.05.9-.12,1.34-.15l1.28,0-.27-15-2,.05c-.65,0-1.28.13-1.93.2-1.27.16-2.57.27-3.77.54s-2.45.47-3.65.75l-3.51.95Z" transform="translate(-74.47 -70.11)"/><path class="cls-3" d="M498.83,156.74l.16,1.49a18.94,18.94,0,0,1,2.37-.2l-.07-1.5A20.24,20.24,0,0,0,498.83,156.74Z" transform="translate(-74.47 -70.11)"/><polygon class="cls-3" points="420 87.32 420.3 88.79 422.64 88.33 422.41 86.85 420 87.32"/><polygon class="cls-3" points="415.73 88.35 416.13 89.8 418.45 89.16 418.1 87.7 415.73 88.35"/><path class="cls-2" d="M502.42,164.53c3.42-.06,6.37.5,8.48,1.89l7.91-12.74a27.28,27.28,0,0,0-4.1-2.09c-.71-.29-1.42-.48-2.13-.72a17.4,17.4,0,0,0-2.14-.57,28.77,28.77,0,0,0-4.21-.63l-2.08-.16c-.67,0-1.34,0-2,0Z" transform="translate(-74.47 -70.11)"/><path class="cls-3" d="M512,158l-.54,1.39c.69.34,1.42.61,2.09,1l.72-1.32C513.55,158.68,512.77,158.37,512,158Z" transform="translate(-74.47 -70.11)"/><polygon class="cls-3" points="433.22 86.76 432.97 88.23 434.12 88.45 434.69 88.56 435.25 88.74 435.66 87.29 435.06 87.11 434.45 86.99 433.22 86.76"/><path class="cls-3" d="M503.28,156.48V158a22.78,22.78,0,0,1,2.34.13l.15-1.49A22.91,22.91,0,0,0,503.28,156.48Z" transform="translate(-74.47 -70.11)"/><path class="cls-2" d="M510.9,166.42a7.66,7.66,0,0,1,2.54,2.32,13.47,13.47,0,0,1,1.67,3.81l14.39-4.22a28.17,28.17,0,0,0-3.71-8.1,22.69,22.69,0,0,0-3.21-3.71,22.07,22.07,0,0,0-1.84-1.54l-1-.69-1-.61Z" transform="translate(-74.47 -70.11)"/><path class="cls-3" d="M521.63,167l-1.37.61a21.81,21.81,0,0,1,.83,2.18l1.43-.47C522.26,168.57,522,167.79,521.63,167Z" transform="translate(-74.47 -70.11)"/><path class="cls-3" d="M519.3,163.18l-1.17.95a12.83,12.83,0,0,1,1.3,1.88l1.29-.75A14.69,14.69,0,0,0,519.3,163.18Z" transform="translate(-74.47 -70.11)"/><polygon class="cls-3" points="441.53 90.03 440.67 91.26 441.59 91.94 442.45 92.7 443.48 91.61 442.53 90.78 441.53 90.03"/><path class="cls-2" d="M515.11,172.55c1,3.33,1.61,7.82,2.65,12.36l14.63-3.29c-.93-4-1.47-8.19-2.89-13.29Z" transform="translate(-74.47 -70.11)"/><polygon class="cls-3" points="450.42 109.72 448.95 110.01 449.45 112.41 450.91 112.09 450.42 109.72"/><polygon class="cls-3" points="449.58 105.43 448.11 105.73 448.57 108.11 450.05 107.82 449.58 105.43"/><path class="cls-3" d="M523.08,171.26l-1.45.39c.2.77.39,1.54.56,2.33l1.46-.32Q523.4,172.46,523.08,171.26Z" transform="translate(-74.47 -70.11)"/><path class="cls-2" d="M517.76,184.91A82.46,82.46,0,0,0,522,198.65l13.86-5.73a69.05,69.05,0,0,1-3.5-11.3Z" transform="translate(-74.47 -70.11)"/><path class="cls-3" d="M528.24,192.43l-1.41.5q.4,1.17.87,2.31l1.39-.55C528.79,193.94,528.51,193.19,528.24,192.43Z" transform="translate(-74.47 -70.11)"/><path class="cls-3" d="M526.91,188.3l-1.45.42c.25.79.47,1.58.73,2.36l1.43-.47C527.36,189.85,527.14,189.07,526.91,188.3Z" transform="translate(-74.47 -70.11)"/><path class="cls-3" d="M525.81,184.11l-1.46.35c.18.8.4,1.59.6,2.39l1.45-.39C526.2,185.68,526,184.9,525.81,184.11Z" transform="translate(-74.47 -70.11)"/><path class="cls-2" d="M522,198.65a80.71,80.71,0,0,0,6.7,12.77l12.64-8.07a66.18,66.18,0,0,1-5.48-10.43Z" transform="translate(-74.47 -70.11)"/><polygon class="cls-3" points="459.26 134.1 457.97 134.86 459.24 136.97 460.51 136.18 459.26 134.1"/><path class="cls-3" d="M531.67,200.4l-1.34.68c.37.73.74,1.47,1.15,2.18l1.32-.72C532.4,201.84,532,201.12,531.67,200.4Z" transform="translate(-74.47 -70.11)"/><path class="cls-3" d="M529.84,196.49l-1.38.59q.48,1.14,1,2.25l1.35-.64C530.48,198,530.15,197.23,529.84,196.49Z" transform="translate(-74.47 -70.11)"/><path class="cls-2" d="M528.73,211.42a79.47,79.47,0,0,0,8.86,11.5l10.91-10.3a63.76,63.76,0,0,1-7.13-9.27Z" transform="translate(-74.47 -70.11)"/><path class="cls-3" d="M541.18,214.89l-1.14,1c.52.63,1.09,1.23,1.64,1.85l1.11-1C542.26,216.09,541.7,215.51,541.18,214.89Z" transform="translate(-74.47 -70.11)"/><path class="cls-3" d="M538.51,211.48l-1.21.89c.46.69,1,1.3,1.51,1.95l1.18-.93C539.5,212.75,539,212.15,538.51,211.48Z" transform="translate(-74.47 -70.11)"/><path class="cls-3" d="M536,207.93l-1.25.83c.44.69.94,1.35,1.4,2l1.23-.86C537,209.26,536.46,208.62,536,207.93Z" transform="translate(-74.47 -70.11)"/><path class="cls-2" d="M537.59,222.92a81.67,81.67,0,0,0,10.86,9.44l9-12a65.68,65.68,0,0,1-9-7.74Z" transform="translate(-74.47 -70.11)"/><polygon class="cls-3" points="476.1 153.76 475.17 154.94 477.12 156.43 478.02 155.24 476.1 153.76"/><path class="cls-3" d="M547.25,221.09l-1,1.12c.62.54,1.23,1.11,1.87,1.61l1-1.16C548.44,222.17,547.85,221.62,547.25,221.09Z" transform="translate(-74.47 -70.11)"/><polygon class="cls-3" points="469.64 148.01 468.57 149.06 470.33 150.79 471.36 149.7 469.64 148.01"/><path class="cls-2" d="M548.45,232.36a82.42,82.42,0,0,1,9.34,7.66l10.56-10.66a97.13,97.13,0,0,0-10.9-9Z" transform="translate(-74.47 -70.11)"/><path class="cls-3" d="M560.93,232l-1,1.13c.59.54,1.22,1,1.77,1.61l1-1.08C562.18,233,561.53,232.52,560.93,232Z" transform="translate(-74.47 -70.11)"/><polygon class="cls-3" points="483.07 159.05 482.15 160.24 484.02 161.75 484.98 160.59 483.07 159.05"/><polygon class="cls-3" points="479.59 156.42 478.69 157.62 480.63 159.08 481.54 157.88 479.59 156.42"/><path class="cls-2" d="M557.79,240A54.69,54.69,0,0,1,565,249l12.6-8.14a69.83,69.83,0,0,0-9.22-11.47Z" transform="translate(-74.47 -70.11)"/><polygon class="cls-3" points="495.31 171.67 494.09 172.54 495.44 174.53 496.69 173.69 495.31 171.67"/><polygon class="cls-3" points="492.63 168.17 491.48 169.13 492.95 171.02 494.14 170.11 492.63 168.17"/><path class="cls-3" d="M564.16,235l-1.08,1c.58.54,1.08,1.17,1.62,1.76l1.12-1C565.27,236.23,564.76,235.58,564.16,235Z" transform="translate(-74.47 -70.11)"/><path class="cls-2" d="M565,249c.53.84,1,1.71,1.56,2.56s1,1.72,1.51,2.62c1,1.78,1.91,3.63,2.82,5.49l13.51-6.52c-1-2.07-2-4.13-3.18-6.18q-.83-1.55-1.77-3.06c-.61-1-1.21-2-1.85-3Z" transform="translate(-74.47 -70.11)"/><polygon class="cls-3" points="502.1 182.98 500.76 183.66 501.85 185.82 503.19 185.16 502.1 182.98"/><polygon class="cls-3" points="500.02 179.11 498.71 179.85 499.88 181.96 501.2 181.26 500.02 179.11"/><polygon class="cls-3" points="497.77 175.35 496.5 176.15 497.75 178.21 499.04 177.45 497.77 175.35"/><path class="cls-2" d="M570.86,259.64c1.81,3.76,3.5,7.63,5.11,11.57l13.89-5.65c-1.7-4.16-3.5-8.31-5.49-12.44Z" transform="translate(-74.47 -70.11)"/><polygon class="cls-3" points="507.62 194.92 506.24 195.51 507.18 197.75 508.56 197.18 507.62 194.92"/><polygon class="cls-3" points="505.88 190.9 504.51 191.52 505.49 193.74 506.86 193.14 505.88 190.9"/><path class="cls-3" d="M578.52,257.05l-1.35.64c.35.73.69,1.46,1,2.2l1.37-.63C579.22,258.52,578.87,257.79,578.52,257.05Z" transform="translate(-74.47 -70.11)"/><path class="cls-2" d="M576,271.21c1.6,4,3.12,8,4.6,12l14.09-5.15c-1.52-4.16-3.11-8.34-4.8-12.5Z" transform="translate(-74.47 -70.11)"/><polygon class="cls-3" points="512.46 207.15 511.06 207.67 511.9 209.95 513.31 209.43 512.46 207.15"/><polygon class="cls-3" points="510.91 203.06 509.51 203.6 510.38 205.87 511.78 205.33 510.91 203.06"/><polygon class="cls-3" points="509.31 199 507.91 199.56 508.81 201.81 510.21 201.26 509.31 199"/><path class="cls-2" d="M580.57,283.21c1.49,4.09,2.93,8.1,4.27,12.16l14.24-4.7c-1.4-4.25-2.92-8.48-4.42-12.61Z" transform="translate(-74.47 -70.11)"/><polygon class="cls-3" points="516.9 219.51 515.48 220 516.26 222.3 517.68 221.82 516.9 219.51"/><polygon class="cls-3" points="515.46 215.38 514.05 215.88 514.85 218.17 516.27 217.68 515.46 215.38"/><rect class="cls-4" x="587.41" y="281.57" width="1.5" height="2.44" transform="translate(-135.69 147.77) rotate(-19.97)"/><path class="cls-2" d="M584.84,295.37q2,6.11,3.78,12.26L603,303.49q-1.86-6.45-4-12.82Z" transform="translate(-74.47 -70.11)"/><polygon class="cls-3" points="520.91 232.03 519.47 232.46 520.15 234.79 521.6 234.37 520.91 232.03"/><polygon class="cls-3" points="519.63 227.84 518.2 228.29 518.91 230.61 520.35 230.18 519.63 227.84"/><polygon class="cls-3" points="518.3 223.69 516.87 224.16 517.62 226.47 519.05 226.01 518.3 223.69"/></g><g id="Food_copy_10" data-name="Food copy 10"><polyline points="523.01 253.41 514.03 235.45 531.99 235.45"/><polyline points="523.01 253.41 514.03 235.45 531.99 235.45"/></g><g id="Poop_copy_10" data-name="Poop copy 10"><rect x="7.43" y="116.08" width="17.96" height="17.96"/></g><g id="Pee_copy_11-2" data-name="Pee copy 11"><circle class="cls-5" cx="35.39" cy="152.79" r="8.31"/></g><g id="Me_copy_10" data-name="Me copy 10"><line class="cls-5" x1="142.13" y1="424.19" x2="93.23" y2="375.3"/><line class="cls-5" x1="142.13" y1="375.3" x2="93.23" y2="424.19"/></g></g></svg>