<svg id="drawings" xmlns="http://www.w3.org/2000/svg" viewBox="0 0 459.82 298.76"><defs><style>.cls-1,.cls-2,.cls-5{fill:none;}.cls-1,.cls-5{stroke:#000;}.cls-1{stroke-linecap:round;stroke-linejoin:round;}.cls-3,.cls-4{fill:#231f20;}.cls-3{fill-rule:evenodd;}.cls-5{stroke-miterlimit:10;}</style></defs><g id="_9_15" data-name="9/15"><g id="Litter_Box_copy_15" data-name="Litter Box copy 15"><rect class="cls-1" x="411.38" y="33.87" width="47.94" height="61.51"/></g><g id="Path_copy_15" data-name="Path copy 15"><path class="cls-2" d="M404.09,199l-5.52,4.25c-1.83,1.43-3.62,2.91-5.43,4.37l9.53,11.58c1.72-1.38,3.42-2.79,5.16-4.16l5.26-4.05Z" transform="translate(-304.24 -198.98)"/><polygon class="cls-3" points="96.73 12.6 95.8 11.43 93.83 13.03 94.78 14.19 96.73 12.6"/><path class="cls-3" d="M404.52,208.78l-.92-1.19c-.66.52-1.35,1-2,1.56l.93,1.17C403.18,209.79,403.86,209.29,404.52,208.78Z" transform="translate(-304.24 -198.98)"/><polygon class="cls-3" points="103.85 7.05 102.94 5.85 100.94 7.4 101.85 8.59 103.85 7.05"/><path class="cls-2" d="M393.14,207.6q-5.37,4.43-10.56,9.09l10,11.14c3.29-3,6.65-5.83,10.06-8.65Z" transform="translate(-304.24 -198.98)"/><polygon class="cls-3" points="86.34 21.34 85.35 20.21 83.45 21.89 84.45 23.01 86.34 21.34"/><polygon class="cls-3" points="89.76 18.38 88.78 17.24 86.85 18.88 87.84 20.01 89.76 18.38"/><polygon class="cls-3" points="93.19 15.47 92.24 14.31 90.31 15.95 91.27 17.09 93.19 15.47"/><path class="cls-2" d="M382.58,216.69q-5.19,4.67-10.15,9.56L383,236.93q4.72-4.65,9.64-9.1Z" transform="translate(-304.24 -198.98)"/><polygon class="cls-3" points="76.35 30.53 75.31 29.45 73.5 31.22 74.55 32.29 76.35 30.53"/><polygon class="cls-3" points="79.63 27.42 78.61 26.33 76.75 28.05 77.79 29.14 79.63 27.42"/><path class="cls-3" d="M387.18,223.34l-1-1.11c-.63.56-1.24,1.14-1.86,1.72l1,1.1C386,224.48,386.55,223.89,387.18,223.34Z" transform="translate(-304.24 -198.98)"/><path class="cls-2" d="M372.43,226.25c-1.67,1.63-3.27,3.31-4.91,5l-4.79,5.07,11,10.17,4.55-4.82c1.56-1.56,3.08-3.16,4.67-4.7Z" transform="translate(-304.24 -198.98)"/><polygon class="cls-3" points="66.8 40.18 65.71 39.15 63.97 40.99 65.07 42.01 66.8 40.18"/><path class="cls-3" d="M374.17,235.89l-1.07-1c-.59.6-1.19,1.19-1.77,1.81l1.09,1C373,237.08,373.59,236.5,374.17,235.89Z" transform="translate(-304.24 -198.98)"/><polygon class="cls-3" points="73.09 33.71 72.03 32.64 70.25 34.45 71.32 35.5 73.09 33.71"/><path class="cls-2" d="M362.73,236.28c-3.14,3.43-6.24,6.9-9.21,10.48L365,256.4c2.82-3.4,5.77-6.69,8.74-9.95Z" transform="translate(-304.24 -198.98)"/><path class="cls-3" d="M362,249.23l-1.14-1c-.56.63-1.1,1.27-1.64,1.92l1.14,1C360.85,250.51,361.39,249.86,362,249.23Z" transform="translate(-304.24 -198.98)"/><polygon class="cls-3" points="60.67 46.85 59.55 45.85 57.88 47.76 59.02 48.75 60.67 46.85"/><polygon class="cls-3" points="63.69 43.51 62.59 42.49 60.89 44.37 62 45.38 63.69 43.51"/><path class="cls-2" d="M353.52,246.76c-3,3.55-5.89,7.21-8.72,10.91l11.94,9.07c2.69-3.5,5.41-7,8.27-10.34Z" transform="translate(-304.24 -198.98)"/><polygon class="cls-3" points="49.1 60.76 47.92 59.84 46.37 61.84 47.56 62.75 49.1 60.76"/><polygon class="cls-3" points="51.91 57.22 50.74 56.28 49.15 58.25 50.33 59.18 51.91 57.22"/><path class="cls-3" d="M359,252.71l-1.15-1c-.54.65-1.1,1.29-1.62,1.95l1.16,1C357.92,254,358.47,253.36,359,252.71Z" transform="translate(-304.24 -198.98)"/><path class="cls-2" d="M344.8,257.67c-2.81,3.69-5.54,7.5-8.17,11.3L349,277.49c2.54-3.67,5.1-7.23,7.77-10.75Z" transform="translate(-304.24 -198.98)"/><polygon class="cls-3" points="41.01 71.66 39.79 70.8 38.33 72.87 39.57 73.72 41.01 71.66"/><polygon class="cls-3" points="43.65 67.99 42.44 67.1 40.95 69.15 42.17 70.03 43.65 67.99"/><polygon class="cls-3" points="46.33 64.37 45.13 63.47 43.61 65.49 44.82 66.39 46.33 64.37"/><path class="cls-2" d="M336.63,269c-2.58,3.74-5.17,7.48-7.73,11.3l12.45,8.37c2.49-3.71,5.06-7.43,7.62-11.15Z" transform="translate(-304.24 -198.98)"/><polygon class="cls-3" points="33.29 82.85 32.05 82 30.64 84.1 31.88 84.94 33.29 82.85"/><rect class="cls-4" x="337.5" y="277.96" width="2.53" height="1.5" transform="translate(-387.04 201.1) rotate(-55.51)"/><rect class="cls-4" x="340.06" y="274.24" width="2.52" height="1.5" transform="translate(-383.07 200.88) rotate(-55.41)"/><path class="cls-2" d="M328.9,280.27c-2.57,3.8-5.09,7.71-7.56,11.68l12.79,7.84c2.32-3.73,4.71-7.45,7.22-11.15Z" transform="translate(-304.24 -198.98)"/><polygon class="cls-3" points="25.82 94.19 24.55 93.39 23.2 95.53 24.48 96.32 25.82 94.19"/><polygon class="cls-3" points="28.26 90.39 27.01 89.57 25.62 91.69 26.88 92.5 28.26 90.39"/><polygon class="cls-3" points="30.75 86.63 29.5 85.79 28.1 87.9 29.35 88.72 30.75 86.63"/><path class="cls-2" d="M321.34,292c-2.41,4-4.83,8.1-6.95,12.44l13.42,6.7c1.85-3.81,4.08-7.55,6.32-11.3Z" transform="translate(-304.24 -198.98)"/><polygon class="cls-3" points="18.93 105.87 17.61 105.16 16.45 107.43 17.78 108.11 18.93 105.87"/><polygon class="cls-3" points="21.12 101.93 19.82 101.18 18.59 103.4 19.9 104.13 21.12 101.93"/><polygon class="cls-3" points="23.42 98.05 22.13 97.28 20.84 99.46 22.13 100.22 23.42 98.05"/><path class="cls-2" d="M314.39,304.39a100.66,100.66,0,0,0-5.67,13.47l14.2,4.8a87.64,87.64,0,0,1,4.89-11.57Z" transform="translate(-304.24 -198.98)"/><path class="cls-3" d="M317.5,317.13l-1.4-.54c-.33.78-.59,1.59-.87,2.4l1.42.5C316.92,318.7,317.17,317.9,317.5,317.13Z" transform="translate(-304.24 -198.98)"/><path class="cls-3" d="M319.22,313l-1.38-.61c-.37.77-.66,1.57-1,2.35l1.39.57C318.57,314.51,318.85,313.72,319.22,313Z" transform="translate(-304.24 -198.98)"/><path class="cls-3" d="M321.11,308.89l-1.35-.66c-.39.76-.72,1.54-1.08,2.31l1.36.63C320.4,310.41,320.72,309.64,321.11,308.89Z" transform="translate(-304.24 -198.98)"/><path class="cls-2" d="M308.72,317.86c-.86,2.31-1.45,4.74-2.12,7.13-.51,2.44-1.12,4.86-1.42,7.35L320,334.57c.24-2,.75-4,1.15-6,.58-2,1-4,1.76-5.91Z" transform="translate(-304.24 -198.98)"/><polygon class="cls-3" points="9.47 131.1 8 130.81 7.74 132.06 7.54 133.32 9.02 133.57 9.21 132.33 9.47 131.1"/><polygon class="cls-3" points="10.48 126.72 9.03 126.34 8.7 127.57 8.43 128.82 9.89 129.16 10.15 127.93 10.48 126.72"/><path class="cls-3" d="M316,321.4l-1.43-.46c-.29.8-.52,1.62-.74,2.44l1.44.42C315.48,323,315.7,322.19,316,321.4Z" transform="translate(-304.24 -198.98)"/><path class="cls-2" d="M305.18,332.34c-.43,2.46-.59,5-.8,7.44-.1,1.24-.07,2.48-.11,3.72s-.06,2.49,0,3.72l15-.43a26.21,26.21,0,0,1,0-3.07c0-1,0-2.06.09-3.07.17-2,.29-4.07.65-6.08Z" transform="translate(-304.24 -198.98)"/><path class="cls-3" d="M312.31,343.49l-1.5,0c0,.85-.05,1.7,0,2.55l1.5,0C312.26,345.16,312.3,344.33,312.31,343.49Z" transform="translate(-304.24 -198.98)"/><path class="cls-3" d="M312.5,339l-1.49-.11c-.06.85-.18,1.7-.17,2.55l1.5.06C312.33,340.66,312.45,339.83,312.5,339Z" transform="translate(-304.24 -198.98)"/><path class="cls-3" d="M313,334.54l-1.49-.2a24.1,24.1,0,0,0-.3,2.54l1.49.15C312.72,336.2,312.84,335.37,313,334.54Z" transform="translate(-304.24 -198.98)"/><path class="cls-2" d="M304.31,347.22l.2,3.71a35.06,35.06,0,0,0,.32,3.7l.51,3.68c.19,1.22.32,2.46.63,3.65l14.71-2.91a26.22,26.22,0,0,1-.51-3.05l-.44-3.05a24.44,24.44,0,0,1-.25-3.08l-.18-3.08Z" transform="translate(-304.24 -198.98)"/><path class="cls-3" d="M313.26,357l-1.48.23c.12.84.22,1.69.37,2.52l1.48-.27C313.48,358.61,313.38,357.78,313.26,357Z" transform="translate(-304.24 -198.98)"/><path class="cls-3" d="M312.64,352.49l-1.49.15c.09.84.23,1.69.34,2.53L313,355C312.87,354.15,312.73,353.32,312.64,352.49Z" transform="translate(-304.24 -198.98)"/><polygon class="cls-3" points="8.15 149.04 6.65 149.1 6.79 151.65 8.29 151.54 8.15 149.04"/><path class="cls-2" d="M306,362a95.53,95.53,0,0,0,4,14.2L324.06,371a81.12,81.12,0,0,1-3.38-11.95Z" transform="translate(-304.24 -198.98)"/><path class="cls-3" d="M316.37,370.08l-1.42.46a25.57,25.57,0,0,0,.8,2.43l1.41-.51C316.84,371.69,316.62,370.88,316.37,370.08Z" transform="translate(-304.24 -198.98)"/><polygon class="cls-3" points="10.82 166.8 9.37 167.19 10.11 169.63 11.55 169.2 10.82 166.8"/><polygon class="cls-3" points="9.82 162.43 8.36 162.73 8.91 165.23 10.37 164.87 9.82 162.43"/><path class="cls-2" d="M310,376.16c.88,2.29,1.71,4.6,2.78,6.8l1.53,3.32,1.71,3.23,13.21-7.09-1.47-2.78-1.31-2.86c-.93-1.88-1.62-3.84-2.37-5.78Z" transform="translate(-304.24 -198.98)"/><path class="cls-3" d="M321.44,382.61l-1.35.66c.37.77.79,1.51,1.18,2.26l1.33-.7C322.22,384.09,321.8,383.36,321.44,382.61Z" transform="translate(-304.24 -198.98)"/><polygon class="cls-3" points="15.32 179.54 13.94 180.14 15 182.45 16.36 181.82 15.32 179.54"/><polygon class="cls-3" points="13.64 175.38 12.24 175.91 13.15 178.29 14.54 177.72 13.64 175.38"/><path class="cls-2" d="M316,389.51a119.83,119.83,0,0,0,7.62,12.36l12.24-8.67a106.25,106.25,0,0,1-6.65-10.78Z" transform="translate(-304.24 -198.98)"/><polygon class="cls-3" points="23.97 195.34 22.72 196.16 24.14 198.28 25.37 197.42 23.97 195.34"/><polygon class="cls-3" points="21.56 191.53 20.28 192.31 21.59 194.49 22.86 193.68 21.56 191.53"/><path class="cls-3" d="M323.55,386.62l-1.31.72c.39.76.79,1.51,1.24,2.23l1.3-.76C324.33,388.1,323.94,387.36,323.55,386.62Z" transform="translate(-304.24 -198.98)"/><path class="cls-2" d="M323.62,401.87a142,142,0,0,0,9,11.28l11.21-10a126.55,126.55,0,0,1-8-10Z" transform="translate(-304.24 -198.98)"/><polygon class="cls-3" points="32.07 206.18 30.92 207.14 32.58 209.07 33.71 208.08 32.07 206.18"/><polygon class="cls-3" points="29.23 202.67 28.05 203.59 29.64 205.58 30.81 204.63 29.23 202.67"/><polygon class="cls-3" points="26.54 199.07 25.32 199.95 26.84 202 28.04 201.09 26.54 199.07"/><path class="cls-2" d="M332.61,413.15a141.57,141.57,0,0,0,10.12,10.23l10.09-11.09a126.78,126.78,0,0,1-9-9.11Z" transform="translate(-304.24 -198.98)"/><path class="cls-3" d="M345.57,415l-1,1.08c.6.59,1.23,1.17,1.85,1.74l1-1.1C346.78,416.19,346.16,415.62,345.57,415Z" transform="translate(-304.24 -198.98)"/><polygon class="cls-3" points="38.13 212.88 37.05 213.92 38.83 215.74 39.89 214.67 38.13 212.88"/><polygon class="cls-3" points="35.05 209.6 33.94 210.6 35.67 212.47 36.76 211.44 35.05 209.6"/></g><g id="Food_copy_15" data-name="Food copy 15"><polyline points="64.79 246.1 55.81 228.14 73.78 228.14"/><rect x="436.79" y="38.45" width="18.63" height="18.63"/></g><g id="Pee_copy_16-2" data-name="Pee copy 16"><circle class="cls-5" cx="431.68" cy="81.47" r="8.31"/></g><g id="Me_copy_15" data-name="Me copy 15"><line class="cls-5" x1="125.25" y1="298.4" x2="76.35" y2="249.51"/><line class="cls-5" x1="125.25" y1="249.51" x2="76.35" y2="298.4"/></g></g></svg>