<svg id="drawings" xmlns="http://www.w3.org/2000/svg" viewBox="0 0 390.14 320.83"><defs><style>.cls-1,.cls-2,.cls-4{fill:none;}.cls-1,.cls-4{stroke:#000;}.cls-1{stroke-linecap:round;stroke-linejoin:round;}.cls-3{fill:#231f20;fill-rule:evenodd;}.cls-4{stroke-miterlimit:10;}</style></defs><g id="_9_3" data-name="9/3"><g id="Litter_Box_copy_3" data-name="Litter Box copy 3"><rect class="cls-1" x="341.7" y="171.7" width="47.94" height="61.51"/></g><g id="Path_copy_3" data-name="Path copy 3"><path class="cls-2" d="M464.73,173.83a64.88,64.88,0,0,0-15.07,2.07l3.81,14.5a50.54,50.54,0,0,1,11.61-1.58Z" transform="translate(-167.35 -173.83)"/><polygon class="cls-3" points="287.72 9.06 287.44 7.59 284.95 8.14 285.3 9.6 287.72 9.06"/><polygon class="cls-3" points="292.12 8.41 291.96 6.92 290.69 7.06 289.43 7.26 289.67 8.74 290.89 8.54 292.12 8.41"/><polygon class="cls-3" points="296.55 8.08 296.49 6.58 293.95 6.71 294.07 8.21 296.55 8.08"/><path class="cls-2" d="M449.66,175.9a50.38,50.38,0,0,0-14.54,6.29l8.21,12.55a35.62,35.62,0,0,1,10.14-4.34Z" transform="translate(-167.35 -173.83)"/><polygon class="cls-3" points="275.14 13.35 274.45 12.02 273.31 12.62 272.21 13.29 273 14.57 274.05 13.92 275.14 13.35"/><path class="cls-3" d="M446.52,185.33l-.54-1.39c-.79.31-1.57.67-2.36,1l.63,1.36C445,186,445.76,185.64,446.52,185.33Z" transform="translate(-167.35 -173.83)"/><path class="cls-3" d="M450.72,183.94l-.41-1.44c-.81.24-1.64.45-2.44.76l.49,1.42C449.13,184.38,449.93,184.18,450.72,183.94Z" transform="translate(-167.35 -173.83)"/><path class="cls-2" d="M435.12,182.19c-.59.34-1.14.79-1.71,1.19s-1.13.81-1.66,1.27a33.45,33.45,0,0,0-3.15,2.94,32.57,32.57,0,0,0-2.84,3.4c-.44.61-.83,1.28-1.23,1.92l-.59,1-.51,1.05,13.47,6.59.21-.47.29-.45c.2-.31.36-.63.58-.93a18.31,18.31,0,0,1,1.49-1.76,20.36,20.36,0,0,1,1.78-1.67c.31-.27.69-.5,1-.76a11.82,11.82,0,0,1,1.06-.75Z" transform="translate(-167.35 -173.83)"/><path class="cls-3" d="M432.38,195.55l-1.22-.88c-.52.7-.94,1.47-1.41,2.21l1.32.72C431.51,196.92,431.89,196.2,432.38,195.55Z" transform="translate(-167.35 -173.83)"/><polygon class="cls-3" points="267.91 18.41 266.88 17.33 265.08 19.21 266.22 20.19 267.91 18.41"/><path class="cls-3" d="M438.68,189.48l-.86-1.23c-.68.52-1.41,1-2.05,1.56l1,1.15C437.33,190.42,438,190,438.68,189.48Z" transform="translate(-167.35 -173.83)"/><path class="cls-2" d="M423.43,194.94c-.33.72-.7,1.39-1,2.14s-.51,1.5-.75,2.25a25.65,25.65,0,0,0-.86,4.57,26.46,26.46,0,0,0,.6,9.36L436,209.51a11.58,11.58,0,0,1-.2-4,10.68,10.68,0,0,1,.37-2.05c.12-.32.23-.63.32-.95a9.8,9.8,0,0,1,.43-.94Z" transform="translate(-167.35 -173.83)"/><path class="cls-3" d="M428.75,207.9l-1.5.07a17.82,17.82,0,0,0,.3,2.62l1.47-.28A17.6,17.6,0,0,1,428.75,207.9Z" transform="translate(-167.35 -173.83)"/><path class="cls-3" d="M429,203.53l-1.48-.23a25,25,0,0,0-.27,2.59l1.5.08C428.79,205.15,428.88,204.34,429,203.53Z" transform="translate(-167.35 -173.83)"/><path class="cls-3" d="M430.21,199.37l-1.38-.59c-.36.8-.58,1.66-.88,2.49l1.45.39C429.68,200.9,429.88,200.11,430.21,199.37Z" transform="translate(-167.35 -173.83)"/><path class="cls-2" d="M421.46,213.26a19.47,19.47,0,0,0,5.32,9.27,22.32,22.32,0,0,0,8.74,5.13l4.55-14.29a7.34,7.34,0,0,1-2.81-1.57,3.12,3.12,0,0,1-.75-.94,5.2,5.2,0,0,1-.53-1.35Z" transform="translate(-167.35 -173.83)"/><path class="cls-3" d="M434.86,218.65l-.75,1.3,1.18.62a10.92,10.92,0,0,0,1.23.5l.53-1.4c-.37-.16-.77-.26-1.12-.45Z" transform="translate(-167.35 -173.83)"/><path class="cls-3" d="M431.56,215.93l-1.16,1,.94,1,.48.49c.17.14.36.27.53.4l.94-1.17c-.16-.12-.33-.23-.48-.36l-.42-.43Z" transform="translate(-167.35 -173.83)"/><path class="cls-3" d="M429.52,212.19l-1.42.48a9.47,9.47,0,0,0,.48,1.25,9.2,9.2,0,0,0,.62,1.21l1.3-.75a6.75,6.75,0,0,1-.55-1.07A8.36,8.36,0,0,1,429.52,212.19Z" transform="translate(-167.35 -173.83)"/><path class="cls-2" d="M435.52,227.66a33,33,0,0,0,8.73,1.39,41.59,41.59,0,0,0,8.18-.64l-2.55-14.78a27.14,27.14,0,0,1-5.25.43,18.75,18.75,0,0,1-4.56-.69Z" transform="translate(-167.35 -173.83)"/><path class="cls-3" d="M447.64,220.93l.12,1.5c.85-.1,1.71-.12,2.55-.29l-.22-1.48C449.28,220.82,448.46,220.84,447.64,220.93Z" transform="translate(-167.35 -173.83)"/><path class="cls-3" d="M443.23,221l-.1,1.5a22.23,22.23,0,0,0,2.58.07l0-1.5A20.22,20.22,0,0,1,443.23,221Z" transform="translate(-167.35 -173.83)"/><polygon class="cls-3" points="271.57 46.44 271.18 47.89 272.45 48.21 273.74 48.4 273.96 46.92 272.75 46.74 271.57 46.44"/><path class="cls-2" d="M452.43,228.41a46.46,46.46,0,0,0,15.11-5.4l-7.49-13a31.43,31.43,0,0,1-10.17,3.62Z" transform="translate(-167.35 -173.83)"/><path class="cls-3" d="M460.46,217.61l.62,1.36c.39-.17.78-.34,1.17-.53l1.13-.61-.71-1.32-1.09.59C461.21,217.28,460.83,217.44,460.46,217.61Z" transform="translate(-167.35 -173.83)"/><path class="cls-3" d="M456.33,219.21l.46,1.43c.82-.24,1.61-.58,2.41-.87l-.54-1.39C457.88,218.65,457.12,219,456.33,219.21Z" transform="translate(-167.35 -173.83)"/><polygon class="cls-3" points="284.7 46.5 285 47.97 287.5 47.39 287.11 45.94 284.7 46.5"/><path class="cls-2" d="M467.54,223a39,39,0,0,0,12.25-11.09l-12.14-8.81a23.7,23.7,0,0,1-7.6,6.9Z" transform="translate(-167.35 -173.83)"/><path class="cls-3" d="M471.13,209.89l1.12,1c.57-.64,1.12-1.3,1.64-2L472.7,208C472.2,208.64,471.68,209.28,471.13,209.89Z" transform="translate(-167.35 -173.83)"/><path class="cls-3" d="M468,213l1,1.15c.66-.55,1.3-1.13,1.91-1.74l-1.06-1.06C469.2,211.88,468.59,212.44,468,213Z" transform="translate(-167.35 -173.83)"/><path class="cls-3" d="M464.39,215.52l.79,1.28c.72-.46,1.46-.91,2.15-1.43l-.89-1.21C465.79,214.66,465.08,215.08,464.39,215.52Z" transform="translate(-167.35 -173.83)"/><path class="cls-2" d="M479.79,211.92l.72-1,.21-23.39a10,10,0,0,0-3.25,1.33,12.68,12.68,0,0,0-3.54,3.59c-1.19,1.72-2.26,3.95-3.37,6-.56,1-1.11,2-1.72,3l-.46.7-.22.36-.11.15-.4.56Z" transform="translate(-167.35 -173.83)"/><path class="cls-3" d="M478.68,198.21l.33,2.25c.34-.63.7-1.27,1.1-1.88l-.08-2.46C479.54,196.78,479.11,197.49,478.68,198.21Z" transform="translate(-167.35 -173.83)"/><polygon class="cls-3" points="309.02 28.45 309.8 30.08 310.84 28.16 310.32 26.14 309.02 28.45"/><path class="cls-3" d="M473.87,206.38l1.24.85c.41-.61.81-1.21,1.18-1.84l-1-1.27C474.86,204.89,474.37,205.64,473.87,206.38Z" transform="translate(-167.35 -173.83)"/><path class="cls-2" d="M480.51,210.9,494.1,198a19.05,19.05,0,0,0-3.85-7.07,10.61,10.61,0,0,0-6.11-3.46c-.67,0-1.33-.1-1.9-.11a9.46,9.46,0,0,0-1.52.18Z" transform="translate(-167.35 -173.83)"/><path class="cls-3" d="M487.39,200l-1.18,1.87c.2.7.38,1.41.52,2.12l1.34-1.49A25.53,25.53,0,0,0,487.39,200Z" transform="translate(-167.35 -173.83)"/><path class="cls-3" d="M485.33,195.94l-.78,2.41a8.63,8.63,0,0,1,1.06,1.9l1-2.14A10.62,10.62,0,0,0,485.33,195.94Z" transform="translate(-167.35 -173.83)"/><path class="cls-3" d="M481.42,194.69l-.15,2.58a1.76,1.76,0,0,1,1.4-.34,2.37,2.37,0,0,1,.64.25l.53-2.57a3.37,3.37,0,0,0-.77-.28A2.17,2.17,0,0,0,481.42,194.69Z" transform="translate(-167.35 -173.83)"/><path class="cls-2" d="M480.51,210.9l-.06.45c-.06.4-.11.81-.2,1.21a16.63,16.63,0,0,1-.61,2.31l14.21,4.81a30.77,30.77,0,0,0,1.11-4.21c.15-.7.26-1.41.36-2.11,0-.37.09-.64.14-1.23l.13-1.68A35.78,35.78,0,0,0,494.1,198Z" transform="translate(-167.35 -173.83)"/><path class="cls-3" d="M488.15,214l-1.47-.28a23.46,23.46,0,0,1-.57,2.34l1.44.42A23.56,23.56,0,0,0,488.15,214Z" transform="translate(-167.35 -173.83)"/><path class="cls-3" d="M488.66,209.33l-1.51.29c0,.73-.08,1.44-.17,2.19l1.49.18C488.57,211.12,488.63,210.21,488.66,209.33Z" transform="translate(-167.35 -173.83)"/><path class="cls-3" d="M488.42,204.59,487,205.73c.08.72.14,1.45.16,2.17l1.5-.67C488.61,206.34,488.54,205.46,488.42,204.59Z" transform="translate(-167.35 -173.83)"/><path class="cls-2" d="M479.64,214.87a20.84,20.84,0,0,1-.89,2.11c-.16.34-.39.65-.57,1l-.28.5-.34.46a16.44,16.44,0,0,1-3.24,3.45L483.85,234a31.66,31.66,0,0,0,10-14.28Z" transform="translate(-167.35 -173.83)"/><path class="cls-3" d="M482,226.14l-1.1-1c-.57.56-1.12,1.15-1.73,1.67l1,1.13C480.84,227.36,481.43,226.74,482,226.14Z" transform="translate(-167.35 -173.83)"/><path class="cls-3" d="M484.83,222.51l-1.27-.8c-.41.68-.92,1.3-1.38,2l1.18.93C483.84,223.9,484.39,223.24,484.83,222.51Z" transform="translate(-167.35 -173.83)"/><path class="cls-3" d="M486.89,218.43l-1.4-.54c-.3.74-.66,1.45-1,2.18l1.33.69C486.19,220,486.57,219.22,486.89,218.43Z" transform="translate(-167.35 -173.83)"/><path class="cls-2" d="M474.32,222.37a23.91,23.91,0,0,1-4.27,2.77,26.14,26.14,0,0,1-4.78,1.86L469,241.52a39.75,39.75,0,0,0,7.78-3,38.74,38.74,0,0,0,7-4.56Z" transform="translate(-167.35 -173.83)"/><path class="cls-3" d="M470.67,233.65l-.55-1.39c-.75.29-1.52.56-2.29.8l.44,1.43Q469.49,234.12,470.67,233.65Z" transform="translate(-167.35 -173.83)"/><path class="cls-3" d="M474.79,231.71l-.72-1.31c-.71.39-1.43.76-2.17,1.1l.63,1.36C473.3,232.51,474.05,232.12,474.79,231.71Z" transform="translate(-167.35 -173.83)"/><path class="cls-3" d="M478.61,229.22,477.7,228c-.65.48-1.3,1-2,1.39l.81,1.26C477.24,230.24,477.92,229.73,478.61,229.22Z" transform="translate(-167.35 -173.83)"/></g><g id="Food_copy_3" data-name="Food copy 3"><polyline points="290.82 134.92 281.84 116.95 299.8 116.95"/></g><g id="Me_copy" data-name="Me copy"><line class="cls-4" x1="49.25" y1="320.47" x2="0.35" y2="271.58"/><line class="cls-4" x1="49.25" y1="271.58" x2="0.35" y2="320.47"/><line class="cls-4" x1="49.25" y1="320.47" x2="0.35" y2="271.58"/><line class="cls-4" x1="49.25" y1="271.58" x2="0.35" y2="320.47"/></g></g></svg>