<svg id="drawings" xmlns="http://www.w3.org/2000/svg" viewBox="0 0 692.47 424.54"><defs><style>.cls-1,.cls-2,.cls-5{fill:none;}.cls-1,.cls-5{stroke:#000;}.cls-1{stroke-linecap:round;stroke-linejoin:round;}.cls-3,.cls-4{fill:#231f20;}.cls-3{fill-rule:evenodd;}.cls-5{stroke-miterlimit:10;}</style></defs><g id="_9_5" data-name="9/5"><g id="Litter_Box_copy_4" data-name="Litter Box copy 4"><rect class="cls-1" x="0.5" y="106.32" width="47.94" height="61.51"/><rect class="cls-1" x="499.04" y="0.5" width="47.94" height="61.51"/></g><g id="Path_copy_4" data-name="Path copy 4"><path class="cls-2" d="M501.93,206.69a13.88,13.88,0,0,0-1.86-6.47,16.93,16.93,0,0,0-3.89-4.43,30.48,30.48,0,0,0-7.6-4.4l-5.82,13.82a16,16,0,0,1,3.86,2.14c.46.32.49.53.52.48s-.06-.2-.06-.16Z" transform="translate(-74.47 -70.11)"/><path class="cls-3" d="M488.5,200.26l.74-1.31c-.74-.43-1.51-.79-2.28-1.15l-.61,1.37C487.08,199.51,487.81,199.86,488.5,200.26Z" transform="translate(-74.47 -70.11)"/><path class="cls-3" d="M491.93,202.76l1.07-1a8.21,8.21,0,0,0-1-.89,8.73,8.73,0,0,0-1-.79l-.86,1.23a6.71,6.71,0,0,1,.95.71A7.29,7.29,0,0,1,491.93,202.76Z" transform="translate(-74.47 -70.11)"/><path class="cls-3" d="M493.86,206.29l1.47-.3a12,12,0,0,0-.35-1.34c-.19-.43-.4-.86-.63-1.27l-1.27.79c.17.33.34.67.5,1A10.6,10.6,0,0,1,493.86,206.29Z" transform="translate(-74.47 -70.11)"/><path class="cls-2" d="M488.58,191.39a81.23,81.23,0,0,0-14-4.18l-3.19,14.66a66.87,66.87,0,0,1,11.38,3.34Z" transform="translate(-74.47 -70.11)"/><polygon class="cls-3" points="401.72 125.72 402.09 124.26 399.67 123.69 399.34 125.16 401.72 125.72"/><path class="cls-3" d="M480.42,197l.44-1.43c-.79-.26-1.6-.46-2.39-.69l-.39,1.45C478.86,196.54,479.65,196.74,480.42,197Z" transform="translate(-74.47 -70.11)"/><path class="cls-3" d="M484.54,198.41l.55-1.39c-.78-.31-1.56-.6-2.36-.86l-.48,1.42C483,197.84,483.79,198.11,484.54,198.41Z" transform="translate(-74.47 -70.11)"/><path class="cls-2" d="M474.57,187.21c-4.56-1-9.07-1.74-13.5-2.43l-2.29,14.83c4.3.66,8.52,1.37,12.6,2.26Z" transform="translate(-74.47 -70.11)"/><polygon class="cls-3" points="388.77 123.15 389.01 121.67 386.57 121.28 386.34 122.76 388.77 123.15"/><polygon class="cls-3" points="393.11 123.9 393.38 122.42 390.94 121.99 390.69 123.47 393.11 123.9"/><polygon class="cls-3" points="397.41 124.73 397.72 123.27 395.29 122.78 395 124.25 397.41 124.73"/><path class="cls-2" d="M461.07,184.78l-5.38-.82-2.54-.42-1.11-.21-.45-.09-.17-.05a15.31,15.31,0,0,0-4.52-.68l-.07,15c.15,0,.05,0,.09,0l1.14.31.89.2,1.57.3,2.85.47,5.41.83Z" transform="translate(-74.47 -70.11)"/><path class="cls-3" d="M450.12,191.13l.33-1.46c-.35-.07-.67-.16-1-.25a11.13,11.13,0,0,0-1.5-.32l-.18,1.49a7.48,7.48,0,0,1,1.23.26C449.38,191,449.76,191.06,450.12,191.13Z" transform="translate(-74.47 -70.11)"/><polygon class="cls-3" points="380.03 121.79 380.26 120.31 377.85 119.92 377.59 121.39 380.03 121.79"/><rect class="cls-4" x="457" y="190.41" width="1.5" height="2.46" transform="translate(124.66 545.06) rotate(-81.31)"/><path class="cls-2" d="M446.9,182.51a18.77,18.77,0,0,0-5.48.83,25.73,25.73,0,0,0-4.39,1.85,32.77,32.77,0,0,0-6.94,5l10.25,10.95a18.31,18.31,0,0,1,3.75-2.75,11,11,0,0,1,1.7-.73,4.48,4.48,0,0,1,1-.19Z" transform="translate(-74.47 -70.11)"/><path class="cls-3" d="M438.17,193.93l-.88-1.21c-.68.5-1.35,1-2,1.59l1,1.13C436.9,194.91,437.53,194.4,438.17,193.93Z" transform="translate(-74.47 -70.11)"/><path class="cls-3" d="M441.87,191.74l-.62-1.36a21.45,21.45,0,0,0-2.27,1.21l.78,1.28A22.57,22.57,0,0,1,441.87,191.74Z" transform="translate(-74.47 -70.11)"/><path class="cls-3" d="M445.92,190.58l-.15-1.49a13.2,13.2,0,0,0-2.6.55l.45,1.43A11.65,11.65,0,0,1,445.92,190.58Z" transform="translate(-74.47 -70.11)"/><path class="cls-2" d="M430.09,190.22a37.25,37.25,0,0,0-5.37,6.26,34.33,34.33,0,0,0-3.91,7.46l14.05,5.26a21.78,21.78,0,0,1,5.48-8Z" transform="translate(-74.47 -70.11)"/><path class="cls-3" d="M429.72,203.69l-1.33-.71c-.39.75-.76,1.52-1.09,2.3l1.38.58C429,205.12,429.35,204.4,429.72,203.69Z" transform="translate(-74.47 -70.11)"/><path class="cls-3" d="M432.05,200l-1.21-.9c-.5.68-1,1.37-1.43,2.1l1.27.79A22.64,22.64,0,0,1,432.05,200Z" transform="translate(-74.47 -70.11)"/><path class="cls-3" d="M434.87,196.77l-1.06-1.06c-.6.6-1.17,1.22-1.72,1.86l1.14,1C433.76,197.93,434.3,197.34,434.87,196.77Z" transform="translate(-74.47 -70.11)"/><path class="cls-2" d="M420.81,203.94A27.72,27.72,0,0,0,419,212.7a24.31,24.31,0,0,0,.23,4.73c.16.78.32,1.57.5,2.35.1.38.17.78.29,1.16l.41,1.11,14.12-5-.18-.44a2.39,2.39,0,0,1-.09-.45c-.06-.3-.13-.6-.21-.89a9.68,9.68,0,0,1-.09-1.88,13.1,13.1,0,0,1,.9-4.15Z" transform="translate(-74.47 -70.11)"/><polygon class="cls-3" points="352.66 146.02 351.17 146.23 351.73 148.77 353.17 148.35 352.66 146.02"/><path class="cls-3" d="M427.09,211.86l-1.49-.16c-.06.43-.08.86-.1,1.29a11.1,11.1,0,0,0,0,1.29l1.5,0a17.82,17.82,0,0,1,.1-2.39Z" transform="translate(-74.47 -70.11)"/><path class="cls-3" d="M428,207.68l-1.42-.47a23.24,23.24,0,0,0-.67,2.48l1.47.31A23.33,23.33,0,0,1,428,207.68Z" transform="translate(-74.47 -70.11)"/><path class="cls-2" d="M420.41,222.05a26.68,26.68,0,0,0,4.53,8,32.34,32.34,0,0,0,3,3.15c.54.48,1.07,1,1.63,1.42l1.71,1.25,8.62-12.27-1-.7c-.31-.25-.58-.52-.87-.77a16.87,16.87,0,0,1-1.56-1.61,11.66,11.66,0,0,1-2-3.48Z" transform="translate(-74.47 -70.11)"/><path class="cls-3" d="M433.3,227.16l-1,1.1a19.13,19.13,0,0,0,2,1.64l.9-1.19A18.17,18.17,0,0,1,433.3,227.16Z" transform="translate(-74.47 -70.11)"/><path class="cls-3" d="M430.43,224l-1.21.88c.26.34.48.72.77,1l.86,1,1.1-1-.8-.89A11.44,11.44,0,0,1,430.43,224Z" transform="translate(-74.47 -70.11)"/><path class="cls-3" d="M428.31,220.26l-1.38.59a6.56,6.56,0,0,0,.55,1.17l.61,1.13,1.3-.76-.57-1A6.26,6.26,0,0,1,428.31,220.26Z" transform="translate(-74.47 -70.11)"/><path class="cls-2" d="M431.31,235.84a37.11,37.11,0,0,0,15.22,6.21l2.52-14.78a22.36,22.36,0,0,1-9.12-3.7Z" transform="translate(-74.47 -70.11)"/><path class="cls-3" d="M444.59,233.38l-.42,1.44a21,21,0,0,0,2.46.61l.3-1.47A19,19,0,0,1,444.59,233.38Z" transform="translate(-74.47 -70.11)"/><path class="cls-3" d="M440.52,231.89l-.62,1.37a24.15,24.15,0,0,0,2.36.94l.5-1.41A22.76,22.76,0,0,1,440.52,231.89Z" transform="translate(-74.47 -70.11)"/><polygon class="cls-3" points="362.25 159.72 361.44 160.98 363.63 162.28 364.33 160.96 362.25 159.72"/><path class="cls-2" d="M446.53,242.05a37.84,37.84,0,0,0,4.13.49c.69.06,1.4,0,2.1,0s1.4,0,2.11,0l2.13-.21.53-.06.26,0,.16,0,.58-.12,1.14-.24,2.45-15.32a14.44,14.44,0,0,0-3.21.16l-2.1.45-1,.22-.25,0h-.15l-.29,0-1.17.12a9.58,9.58,0,0,1-1.2,0c-.4,0-.8,0-1.21,0a22.42,22.42,0,0,1-2.45-.29Z" transform="translate(-74.47 -70.11)"/><polygon class="cls-3" points="383.01 163.98 383.19 165.47 385.44 164.99 385.5 163.46 383.01 163.98"/><path class="cls-3" d="M453.16,234.54l0,1.5a16.81,16.81,0,0,0,2.55-.17l-.17-1.49A16.13,16.13,0,0,1,453.16,234.54Z" transform="translate(-74.47 -70.11)"/><polygon class="cls-3" points="374.38 164.2 374.18 165.68 376.71 165.92 376.78 164.42 374.38 164.2"/><path class="cls-2" d="M459.67,241.83l0,.16a18.22,18.22,0,0,1,.29,2.34l15-1a33.79,33.79,0,0,0-.54-4.23l-.14-.66-.19-.79c-.13-.54-.29-1.06-.47-1.59a17.21,17.21,0,0,0-1.32-3,13.08,13.08,0,0,0-4.25-4.64,12,12,0,0,0-5.93-1.94Z" transform="translate(-74.47 -70.11)"/><path class="cls-3" d="M467.56,240.32l-1.47.29c.15.77.26,1.55.34,2.34l1.49-.15A23.15,23.15,0,0,0,467.56,240.32Z" transform="translate(-74.47 -70.11)"/><path class="cls-3" d="M465.88,236,464.74,237a7.93,7.93,0,0,1,.91,1.93l1.37-.66A9.46,9.46,0,0,0,465.88,236Z" transform="translate(-74.47 -70.11)"/><path class="cls-3" d="M462.07,233.5l-.44,1.52a4,4,0,0,1,2,.77l.88-1.34A5,5,0,0,0,462.07,233.5Z" transform="translate(-74.47 -70.11)"/><path class="cls-2" d="M460,244.33a42.64,42.64,0,0,1-.05,5.63c-.07,1-.15,2-.26,3.11,0,.31-.06.56-.09,1.12,0,.2,0,.32,0,.93v.1l0,.35a6.46,6.46,0,0,0,.11.75l.08.37,0,.1s.15.52.26.79a7.35,7.35,0,0,0,1.14,2,7.55,7.55,0,0,0,3.91,2.56,6.94,6.94,0,0,0,1.61.25,7.71,7.71,0,0,0,2.64-.35,8.11,8.11,0,0,0,1.83-.88,8.31,8.31,0,0,0,1.08-.86,7.46,7.46,0,0,0,.7-.79c.12-.15.22-.28.32-.43s.2-.3.28-.45l.14-.25c.09-.16.17-.35.2-.41l.11-.27c.11-.25.11-.28.09-.21l-.12.3-.15.31c-.07.14-.1.22-.26.5l-.22.35c0,.07-.2.3-.37.52a7.7,7.7,0,0,1-.54.6,7.18,7.18,0,0,1-1.08.91,7,7,0,0,1-1.61.85,7.62,7.62,0,0,1-2.47.48,7.35,7.35,0,0,1-1.68-.15,7.81,7.81,0,0,1-1.8-.61,7.56,7.56,0,0,1-2.87-2.48,8.44,8.44,0,0,1-.53-.91l-.11-.23a7.72,7.72,0,0,1-.38-1c0-.17-.09-.35-.13-.52l-.07-.4,0-.23c0-.16,0-.31,0-.46v-.57c0-.1,0-.1,0-.08l-.14,1.5,14.93,1.43.17-1.8,0-.49v-.83c0-.17,0-.34,0-.51l0-.26-.07-.41c0-.18-.09-.36-.14-.53a7,7,0,0,0-.38-1l-.11-.25a7.77,7.77,0,0,0-.54-.91,7.58,7.58,0,0,0-4.68-3.1,8,8,0,0,0-1.68-.16,7.65,7.65,0,0,0-2.48.49,7.09,7.09,0,0,0-1.62.85,7.92,7.92,0,0,0-1.09.91,7.72,7.72,0,0,0-.53.61c-.18.22-.33.45-.38.52l-.22.36a4.62,4.62,0,0,0-.27.51l-.15.32-.13.33c0,.08,0,.07.06-.17l.11-.25.2-.41.13-.24c.09-.14.18-.3.28-.44s.2-.28.31-.43a8.62,8.62,0,0,1,.71-.78,7.35,7.35,0,0,1,2.89-1.73,7.45,7.45,0,0,1,2.63-.35,7.26,7.26,0,0,1,1.61.24,7.59,7.59,0,0,1,3.9,2.54,7.41,7.41,0,0,1,1.13,2c.11.27.25.74.26.79l0,.08.08.35a5.52,5.52,0,0,1,.11.71l0,.39c0,.47,0,.46,0,.52l.05-.54c.1-1.06.21-2.29.29-3.49a60.2,60.2,0,0,0,0-7.62Z" transform="translate(-74.47 -70.11)"/><path class="cls-3" d="M467.69,253.68l-1.5-.14-.05.63,0,.33v.19a1.08,1.08,0,0,0,0,.43,1.06,1.06,0,0,0,.59.66,1,1,0,0,0,.2.05.88.88,0,0,0,.49,0,1.05,1.05,0,0,0,.31-.18,1,1,0,0,0,.14-.15.71.71,0,0,0,.15-.29s0,0-.08.16l-.07.1a.87.87,0,0,1-.16.14.77.77,0,0,1-.33.16,1,1,0,0,1-.24,0H467a1,1,0,0,1-.61-.36l-.08-.13,0,0,0,0a1,1,0,0,1,0-.18v-.06l0,.25-.05.59,1.49.15.06-.62,0-.34v-.19a.81.81,0,0,0-.05-.18s0,0-.07-.12a.54.54,0,0,0-.34-.21.59.59,0,0,0-.41.1.57.57,0,0,0-.14.14.82.82,0,0,0-.06.14s0,0,.06-.1a.47.47,0,0,1,.23-.17.45.45,0,0,1,.26,0l.11,0a.5.5,0,0,1,.3.34c0,.09,0,0,0,0v-.14l0-.29Z" transform="translate(-74.47 -70.11)"/><path class="cls-3" d="M468,249.26l-1.5-.07c0,.8-.09,1.61-.15,2.42l1.49.12C467.93,250.91,468,250.08,468,249.26Z" transform="translate(-74.47 -70.11)"/><path class="cls-3" d="M468.06,244.81l-1.5.06c0,.8,0,1.61,0,2.41l1.5,0Q468.11,246.06,468.06,244.81Z" transform="translate(-74.47 -70.11)"/><path class="cls-2" d="M459.54,256.14a62.42,62.42,0,0,0-.33,7.49,34.13,34.13,0,0,0,1.1,8.38l14.46-4a20.12,20.12,0,0,1-.57-4.73,50.23,50.23,0,0,1,.27-5.75Z" transform="translate(-74.47 -70.11)"/><path class="cls-3" d="M467.44,266.59l-1.49.17a21.85,21.85,0,0,0,.41,2.53l1.46-.32A23.58,23.58,0,0,1,467.44,266.59Z" transform="translate(-74.47 -70.11)"/><path class="cls-3" d="M467.23,262.25h-1.5c0,.84,0,1.68,0,2.52l1.5-.08C467.24,263.87,467.22,263.06,467.23,262.25Z" transform="translate(-74.47 -70.11)"/><path class="cls-3" d="M467.44,257.9l-1.49-.13c-.07.83-.13,1.66-.17,2.5l1.5.06C467.32,259.52,467.37,258.71,467.44,257.9Z" transform="translate(-74.47 -70.11)"/><path class="cls-2" d="M460.31,272a20.86,20.86,0,0,0,1.95,4.81,16.09,16.09,0,0,0,1.69,2.39c.31.37.63.76.95,1.1l1,.91a23.93,23.93,0,0,0,8.33,4.7l4.84-14.2a9.15,9.15,0,0,1-3.17-1.69l-.25-.19c-.05-.06-.07-.12-.11-.17s-.2-.17-.25-.29a6.5,6.5,0,0,1-.51-1.33Z" transform="translate(-74.47 -70.11)"/><path class="cls-3" d="M473.75,277,473,278.3a19.84,19.84,0,0,0,2.35,1.08l.55-1.4A17,17,0,0,1,473.75,277Z" transform="translate(-74.47 -70.11)"/><path class="cls-3" d="M470.41,274.42l-1.12,1a7,7,0,0,0,1,.93,8.13,8.13,0,0,0,1,.84l.89-1.21a6.6,6.6,0,0,1-.91-.75A5.86,5.86,0,0,1,470.41,274.42Z" transform="translate(-74.47 -70.11)"/><path class="cls-3" d="M468.34,270.82l-1.42.49a12.67,12.67,0,0,0,1.09,2.41l1.29-.76A11.46,11.46,0,0,1,468.34,270.82Z" transform="translate(-74.47 -70.11)"/><path class="cls-2" d="M474.22,285.92a35.07,35.07,0,0,0,8.25,1.68,17.45,17.45,0,0,0,2,.12c.67,0,1.35,0,2,0,1.35-.07,2.7-.07,4-.27l-1.69-14.91a23.23,23.23,0,0,1-9.83-.86Z" transform="translate(-74.47 -70.11)"/><polygon class="cls-3" points="411.83 209.63 411.84 211.13 414.37 211.01 414.25 209.51 411.83 209.63"/><path class="cls-3" d="M482,279.48l-.19,1.49c.84.07,1.68.21,2.53.22l.07-1.5C483.57,279.69,482.77,279.54,482,279.48Z" transform="translate(-74.47 -70.11)"/><path class="cls-3" d="M477.75,278.61l-.42,1.44a24,24,0,0,0,2.47.6l.29-1.48A21,21,0,0,1,477.75,278.61Z" transform="translate(-74.47 -70.11)"/><path class="cls-2" d="M490.58,287.49a40.47,40.47,0,0,0,8-1.72l2-.73,1-.38,1-.46,1.91-.93,1.86-1.13-8.08-12.64-1,.61-1.07.51-.53.26-.58.21-1.14.44a25.42,25.42,0,0,1-5,1.05Z" transform="translate(-74.47 -70.11)"/><path class="cls-3" d="M498.94,277l.63,1.37a24.24,24.24,0,0,0,2.26-1.18l-.75-1.3A19.72,19.72,0,0,1,498.94,277Z" transform="translate(-74.47 -70.11)"/><polygon class="cls-3" points="420.41 208.37 420.82 209.81 422.04 209.46 423.23 209.01 422.7 207.61 421.57 208.03 420.41 208.37"/><path class="cls-3" d="M490.66,279.39l.21,1.49c.84-.09,1.66-.31,2.49-.46L493,279C492.24,279.1,491.46,279.31,490.66,279.39Z" transform="translate(-74.47 -70.11)"/><path class="cls-2" d="M506.22,282.14l.91-.58.92-.67a20.53,20.53,0,0,0,1.84-1.52,24.68,24.68,0,0,0,1.76-1.78c.52-.64,1.07-1.31,1.51-2a38.36,38.36,0,0,0,3.78-7.38L503,262.64a23.66,23.66,0,0,1-2.18,4.43c-.17.27-.35.44-.5.67s-.34.39-.57.57a8.8,8.8,0,0,1-.73.59l-.41.31-.49.29Z" transform="translate(-74.47 -70.11)"/><path class="cls-3" d="M508.12,268.36l1.34.66c.38-.76.72-1.52,1-2.29l-1.38-.59C508.81,266.9,508.48,267.64,508.12,268.36Z" transform="translate(-74.47 -70.11)"/><path class="cls-3" d="M505.85,272l1.16.95a18.2,18.2,0,0,0,1.5-2.13l-1.29-.77A17,17,0,0,1,505.85,272Z" transform="translate(-74.47 -70.11)"/><polygon class="cls-3" points="428.25 204.74 429.11 205.96 430.15 205.19 431.13 204.34 430.11 203.24 429.21 204.02 428.25 204.74"/><path class="cls-2" d="M516.94,268.25c1.76-4.48,3.14-8.61,4.63-12.76l-14.14-5c-1.49,4.17-2.93,8.42-4.41,12.16Z" transform="translate(-74.47 -70.11)"/><rect class="cls-4" x="512.74" y="254.39" width="2.46" height="1.5" transform="translate(27.89 584.82) rotate(-70.57)"/><polygon class="cls-3" points="436.9 190.09 438.32 190.6 439.14 188.28 437.73 187.78 436.9 190.09"/><path class="cls-3" d="M509.85,264.32l1.4.54c.31-.77.59-1.54.88-2.32l-1.41-.52C510.43,262.79,510.16,263.56,509.85,264.32Z" transform="translate(-74.47 -70.11)"/><path class="cls-2" d="M521.57,255.49c1.46-4.14,3-8.23,4.49-12.33l-14-5.27c-1.56,4.18-3.1,8.39-4.59,12.59Z" transform="translate(-74.47 -70.11)"/><polygon class="cls-3" points="442.87 173.46 444.28 173.98 445.13 171.67 443.73 171.15 442.87 173.46"/><rect class="cls-4" x="515.72" y="246.07" width="2.46" height="1.5" transform="translate(34.37 578.7) rotate(-70.09)"/><polygon class="cls-3" points="439.87 181.75 441.28 182.25 442.11 179.94 440.69 179.43 439.87 181.75"/><path class="cls-2" d="M526.06,243.16c1.55-4.13,3.1-8.25,4.67-12.31l-14-5.44c-1.63,4.19-3.19,8.34-4.74,12.48Z" transform="translate(-74.47 -70.11)"/><polygon class="cls-3" points="447.54 161.04 448.94 161.58 449.82 159.29 448.43 158.74 447.54 161.04"/><rect class="cls-4" x="520.35" y="233.65" width="2.46" height="1.5" transform="translate(43.53 569.4) rotate(-69.31)"/><rect class="cls-4" x="518.8" y="237.76" width="2.46" height="1.5" transform="translate(39.4 571.34) rotate(-69.41)"/><path class="cls-2" d="M530.73,230.85c1.58-4,3.19-8,4.93-11.7l-13.54-6.46c-2,4.32-3.72,8.54-5.36,12.72Z" transform="translate(-74.47 -70.11)"/><path class="cls-3" d="M527,218.84l1.37.6c.32-.75.67-1.49,1-2.23l-1.36-.63C527.65,217.33,527.3,218.08,527,218.84Z" transform="translate(-74.47 -70.11)"/><polygon class="cls-3" points="450.78 152.8 452.17 153.37 453.11 151.11 451.73 150.52 450.78 152.8"/><polygon class="cls-3" points="449.15 156.89 450.54 157.44 451.44 155.16 450.05 154.6 449.15 156.89"/><path class="cls-2" d="M535.66,219.15a46.52,46.52,0,0,1,2.72-5.05,23.64,23.64,0,0,1,1.46-2.08c.24-.32.5-.59.74-.9l1-1-10.83-10.38-1.31,1.37c-.46.55-.95,1.1-1.38,1.65a40.84,40.84,0,0,0-2.35,3.35,64.41,64.41,0,0,0-3.58,6.6Z" transform="translate(-74.47 -70.11)"/><path class="cls-3" d="M533.45,207.15l1.18.93a20.31,20.31,0,0,1,1.56-1.8l-1.11-1A22.8,22.8,0,0,0,533.45,207.15Z" transform="translate(-74.47 -70.11)"/><path class="cls-3" d="M530.94,210.87l1.3.76c.42-.68.82-1.37,1.28-2l-1.24-.85C531.8,209.44,531.38,210.16,530.94,210.87Z" transform="translate(-74.47 -70.11)"/><path class="cls-3" d="M528.85,214.78l1.35.66c.34-.73.74-1.43,1.1-2.16l-1.32-.71C529.61,213.31,529.2,214,528.85,214.78Z" transform="translate(-74.47 -70.11)"/><path class="cls-2" d="M541.57,210.1a47.27,47.27,0,0,1,8.85-7.21l-8-12.66a62.78,62.78,0,0,0-11.64,9.49Z" transform="translate(-74.47 -70.11)"/><path class="cls-3" d="M543.24,198.06l.88,1.21c.66-.45,1.3-1,2-1.38l-.83-1.25C544.58,197.08,543.92,197.59,543.24,198.06Z" transform="translate(-74.47 -70.11)"/><polygon class="cls-3" points="465.25 130.68 466.22 131.82 468.11 130.31 467.19 129.12 465.25 130.68"/><path class="cls-3" d="M536.48,203.82l1.06,1.06a23,23,0,0,1,1.75-1.67l-1-1.11A24.23,24.23,0,0,0,536.48,203.82Z" transform="translate(-74.47 -70.11)"/><path class="cls-2" d="M550.42,202.89a56.59,56.59,0,0,1,10.46-5.18l-5.25-14.05a71.05,71.05,0,0,0-13.25,6.57Z" transform="translate(-74.47 -70.11)"/><path class="cls-3" d="M554.86,191.49l.59,1.37c.74-.33,1.5-.61,2.25-.92l-.55-1.4C556.39,190.86,555.61,191.14,554.86,191.49Z" transform="translate(-74.47 -70.11)"/><path class="cls-3" d="M550.84,193.39l.69,1.34c.72-.36,1.43-.74,2.17-1.08l-.64-1.36C552.31,192.64,551.58,193,550.84,193.39Z" transform="translate(-74.47 -70.11)"/><path class="cls-3" d="M547,195.57l.79,1.28c.67-.45,1.39-.81,2.09-1.22l-.73-1.31C548.4,194.74,547.66,195.11,547,195.57Z" transform="translate(-74.47 -70.11)"/><path class="cls-2" d="M560.88,197.71a60.51,60.51,0,0,1,11.36-3l-2.39-14.81a76.06,76.06,0,0,0-14.22,3.79Z" transform="translate(-74.47 -70.11)"/><path class="cls-3" d="M567.55,187.4l.32,1.47c.79-.17,1.59-.34,2.38-.47l-.26-1.48C569.17,187.06,568.36,187.23,567.55,187.4Z" transform="translate(-74.47 -70.11)"/><path class="cls-3" d="M563.24,188.49l.42,1.44c.77-.23,1.56-.43,2.34-.63l-.36-1.46C564.84,188.05,564,188.25,563.24,188.49Z" transform="translate(-74.47 -70.11)"/><path class="cls-3" d="M559,189.85l.51,1.41c.76-.29,1.53-.53,2.3-.78l-.46-1.43C560.59,189.3,559.8,189.56,559,189.85Z" transform="translate(-74.47 -70.11)"/><path class="cls-2" d="M572.24,194.68a34.93,34.93,0,0,1,5.47-.47c1.85,0,3.94.1,6.12.23l.87-15c-2.23-.12-4.55-.27-7.12-.25a50.92,50.92,0,0,0-7.73.66Z" transform="translate(-74.47 -70.11)"/><polygon class="cls-3" points="506.38 116.13 506.32 117.63 508.76 117.75 508.85 116.25 506.38 116.13"/><path class="cls-3" d="M576.4,186.21l.05,1.5c.8,0,1.61,0,2.41,0l0-1.5C578.06,186.17,577.23,186.18,576.4,186.21Z" transform="translate(-74.47 -70.11)"/><path class="cls-3" d="M572,186.6l.2,1.49c.8-.12,1.6-.2,2.39-.27l-.12-1.5C573.61,186.39,572.79,186.48,572,186.6Z" transform="translate(-74.47 -70.11)"/><path class="cls-2" d="M583.83,194.44c4.39.26,9,.5,13.51.6l.34-15c-4.32-.09-8.55-.31-13-.58Z" transform="translate(-74.47 -70.11)"/><polygon class="cls-3" points="519.62 116.8 519.57 118.3 522.03 118.37 522.07 116.87 519.62 116.8"/><polygon class="cls-3" points="515.22 116.61 515.14 118.11 517.61 118.22 517.67 116.72 515.22 116.61"/><polygon class="cls-3" points="510.83 116.37 510.74 117.86 513.2 118.01 513.28 116.51 510.83 116.37"/><path class="cls-2" d="M597.34,195q6.79.15,13.59,0l-.33-15q-6.47.15-12.92,0Z" transform="translate(-74.47 -70.11)"/><polygon class="cls-3" points="532.85 116.96 532.86 118.46 535.33 118.42 535.3 116.92 532.85 116.96"/><polygon class="cls-3" points="528.44 116.97 528.44 118.47 530.9 118.47 530.9 116.97 528.44 116.97"/><polygon class="cls-3" points="524.05 116.92 524.02 118.42 526.49 118.45 526.51 116.95 524.05 116.92"/><path class="cls-2" d="M610.93,195q6.8-.15,13.57-.59l-1-15q-6.45.42-12.92.56Z" transform="translate(-74.47 -70.11)"/><polygon class="cls-3" points="546.07 116.53 546.15 118.02 548.62 117.88 548.53 116.38 546.07 116.53"/><polygon class="cls-3" points="541.67 116.73 541.73 118.23 544.2 118.12 544.13 116.63 541.67 116.73"/><polygon class="cls-3" points="537.28 116.88 537.32 118.38 539.79 118.3 539.74 116.81 537.28 116.88"/><path class="cls-2" d="M624.5,194.45q6.76-.45,13.51-1.16l-1.59-14.92q-6.43.69-12.9,1.11Z" transform="translate(-74.47 -70.11)"/><polygon class="cls-3" points="559.27 115.54 559.41 117.03 561.87 116.78 561.72 115.29 559.27 115.54"/><polygon class="cls-3" points="554.88 115.92 555 117.42 557.46 117.21 557.33 115.71 554.88 115.92"/><polygon class="cls-3" points="550.5 116.26 550.61 117.75 553.07 117.57 552.95 116.08 550.5 116.26"/></g><g id="Food_copy_4" data-name="Food copy 4"><polyline points="577.88 123.86 568.9 105.9 586.86 105.9"/></g><g id="Pee_copy_6" data-name="Pee copy 6"><circle class="cls-5" cx="683.66" cy="193.49" r="8.31"/></g><g id="Me_copy_5" data-name="Me copy 5"><line class="cls-5" x1="142.13" y1="424.19" x2="93.23" y2="375.3"/><line class="cls-5" x1="142.13" y1="375.3" x2="93.23" y2="424.19"/></g><rect class="cls-1" x="0.5" y="106.32" width="47.94" height="61.51"/></g></svg>