<svg id="drawings" xmlns="http://www.w3.org/2000/svg" viewBox="0 0 586.86 424.54"><defs><style>.cls-1,.cls-2,.cls-5{fill:none;}.cls-1,.cls-5{stroke:#000;}.cls-1{stroke-linecap:round;stroke-linejoin:round;}.cls-3,.cls-4{fill:#231f20;}.cls-3{fill-rule:evenodd;}.cls-5{stroke-miterlimit:10;}</style></defs><g id="_9_6" data-name="9/6"><g id="Litter_Box_copy_6" data-name="Litter Box copy 6"><rect class="cls-1" x="0.5" y="106.32" width="47.94" height="61.51"/><rect class="cls-1" x="499.04" y="0.5" width="47.94" height="61.51"/></g><g id="Path_copy_6" data-name="Path copy 6"><path class="cls-2" d="M433,166c-3.88,2.47-7.68,5-11.43,7.73l8.78,12.16c3.47-2.5,7.05-4.91,10.69-7.22Z" transform="translate(-74.47 -70.11)"/><polygon class="cls-3" points="354.63 108.11 353.77 106.88 351.74 108.31 352.61 109.53 354.63 108.11"/><polygon class="cls-3" points="358.29 105.61 357.46 104.37 355.4 105.76 356.24 107 358.29 105.61"/><polygon class="cls-3" points="361.99 103.19 361.18 101.93 359.09 103.28 359.92 104.54 361.99 103.19"/><path class="cls-2" d="M421.58,173.71c-3.74,2.7-7.42,5.54-11,8.63l9.79,11.36c3.15-2.72,6.52-5.32,10-7.83Z" transform="translate(-74.47 -70.11)"/><path class="cls-3" d="M418.45,186.2l-.94-1.16c-.65.52-1.29,1.06-1.92,1.6l1,1.14C417.18,187.25,417.81,186.72,418.45,186.2Z" transform="translate(-74.47 -70.11)"/><polygon class="cls-3" points="347.46 113.35 346.54 112.16 344.58 113.69 345.51 114.87 347.46 113.35"/><polygon class="cls-3" points="350.99 110.7 350.11 109.49 348.11 110.97 349.01 112.17 350.99 110.7"/><path class="cls-2" d="M410.57,182.34a76.26,76.26,0,0,0-10.39,10.59l11.87,9.17a62.49,62.49,0,0,1,8.31-8.4Z" transform="translate(-74.47 -70.11)"/><path class="cls-3" d="M408.74,195.22l-1.12-1c-.55.63-1.12,1.25-1.64,1.92l1.16.94C407.65,196.44,408.2,195.83,408.74,195.22Z" transform="translate(-74.47 -70.11)"/><path class="cls-3" d="M411.81,192.06,410.76,191c-.6.58-1.19,1.18-1.77,1.78l1.08,1Q410.92,192.92,411.81,192.06Z" transform="translate(-74.47 -70.11)"/><path class="cls-3" d="M415.05,189.08l-1-1.13c-.63.54-1.24,1.12-1.86,1.67l1,1.11C413.83,190.18,414.43,189.61,415.05,189.08Z" transform="translate(-74.47 -70.11)"/><path class="cls-2" d="M400.18,192.93a31.51,31.51,0,0,0-4.16,6.88c-.28.76-.57,1.46-.8,2.29l-.17.67-.18.8a11.94,11.94,0,0,0-.21,1.53,15,15,0,0,0,.65,6c.31.68.58,1.38.93,2l13.4-6.92c.05,0,0,0,0,0v0s0,0,0,.05,0-.05,0-.07.15-.39.2-.59a16.64,16.64,0,0,1,2.2-3.52Z" transform="translate(-74.47 -70.11)"/><path class="cls-3" d="M402.6,206.36l-1.5,0c0,.44,0,.87.08,1.31s.19.86.31,1.28l.07.15,1.41-.52-.05-.12-.26-1.05Z" transform="translate(-74.47 -70.11)"/><path class="cls-3" d="M403.7,202.34l-1.36-.64a10,10,0,0,0-.51,1.21,9.07,9.07,0,0,0-.4,1.28l1.45.37a7,7,0,0,1,.36-1.13A7.41,7.41,0,0,1,403.7,202.34Z" transform="translate(-74.47 -70.11)"/><path class="cls-3" d="M405.94,198.64l-1.21-.88a25.42,25.42,0,0,0-1.42,2.13l1.28.77C405,200,405.45,199.29,405.94,198.64Z" transform="translate(-74.47 -70.11)"/><path class="cls-2" d="M396.24,213.12c.27.48.56.95.86,1.41a16,16,0,0,0,1,1.31,17.61,17.61,0,0,0,2.28,2.19,22.51,22.51,0,0,0,2.08,1.45l1,.62,1,.52a40.69,40.69,0,0,0,7.67,2.85L416.14,209a25.71,25.71,0,0,1-4.84-1.76l-.48-.24-.4-.25c-.3-.16-.43-.31-.66-.45-.06,0-.06-.06-.1-.09l0,0s0,0,0,0Z" transform="translate(-74.47 -70.11)"/><path class="cls-3" d="M411.05,214.7l-.52,1.41c.79.3,1.61.54,2.41.79l.43-1.44C412.59,215.22,411.8,215,411.05,214.7Z" transform="translate(-74.47 -70.11)"/><path class="cls-3" d="M407.1,212.89l-.76,1.29c.37.24.76.42,1.14.62a12.47,12.47,0,0,0,1.17.55l.6-1.37c-.37-.16-.74-.33-1.09-.52A11.89,11.89,0,0,1,407.1,212.89Z" transform="translate(-74.47 -70.11)"/><path class="cls-3" d="M403.88,210.23l-1.23.86c.31.34.59.72.93,1a13.61,13.61,0,0,0,1,.89l.93-1.18A10.14,10.14,0,0,1,403.88,210.23Z" transform="translate(-74.47 -70.11)"/><path class="cls-2" d="M412.19,223.47a86.93,86.93,0,0,0,14.41,2.46L428,211a72.15,72.15,0,0,1-11.88-2Z" transform="translate(-74.47 -70.11)"/><path class="cls-3" d="M423.93,217.56l-.18,1.49c.82.11,1.65.19,2.48.28l.15-1.49C425.57,217.75,424.75,217.67,423.93,217.56Z" transform="translate(-74.47 -70.11)"/><path class="cls-3" d="M419.57,216.89l-.27,1.48c.83.16,1.65.28,2.48.4l.22-1.48C421.19,217.16,420.37,217.05,419.57,216.89Z" transform="translate(-74.47 -70.11)"/><path class="cls-3" d="M415.27,216l-.36,1.45c.81.2,1.63.4,2.45.56l.31-1.47C416.86,216.37,416.07,216.17,415.27,216Z" transform="translate(-74.47 -70.11)"/><path class="cls-2" d="M426.6,225.93c4.72.45,9.38.63,14,.63v-15c-4.24,0-8.48-.17-12.62-.56Z" transform="translate(-74.47 -70.11)"/><polygon class="cls-3" points="362.72 148.38 362.68 149.88 365.18 149.92 365.19 148.42 362.72 148.38"/><polygon class="cls-3" points="358.29 148.22 358.21 149.72 360.71 149.83 360.76 148.33 358.29 148.22"/><polygon class="cls-3" points="353.89 147.92 353.76 149.41 356.25 149.6 356.35 148.1 353.89 147.92"/><path class="cls-2" d="M440.64,226.56c4.65,0,9.29-.18,13.95-.56l-1.23-14.95c-4.21.35-8.47.51-12.72.51Z" transform="translate(-74.47 -70.11)"/><polygon class="cls-3" points="376.02 148.13 376.11 149.63 378.59 149.46 378.48 147.96 376.02 148.13"/><polygon class="cls-3" points="371.59 148.33 371.64 149.83 374.13 149.73 374.06 148.23 371.59 148.33"/><polygon class="cls-3" points="367.18 148.42 367.19 149.92 369.68 149.88 369.65 148.38 367.18 148.42"/><path class="cls-2" d="M454.59,226a138,138,0,0,0,13.94-1.84l-2.65-14.76a123.64,123.64,0,0,1-12.52,1.65Z" transform="translate(-74.47 -70.11)"/><polygon class="cls-3" points="389.24 146.73 389.47 148.21 391.93 147.8 391.67 146.32 389.24 146.73"/><polygon class="cls-3" points="384.85 147.34 385.03 148.83 387.51 148.5 387.3 147.02 384.85 147.34"/><polygon class="cls-3" points="380.46 147.8 380.6 149.29 383.08 149.05 382.92 147.56 380.46 147.8"/><path class="cls-2" d="M468.53,224.16,475,223a43.27,43.27,0,0,1,5.65-.64l-.55-15a57.09,57.09,0,0,0-7.61.85l-6.63,1.21Z" transform="translate(-74.47 -70.11)"/><path class="cls-3" d="M476.88,214.58l.18,1.49c.8-.1,1.61-.17,2.41-.22l-.09-1.5C478.54,214.41,477.71,214.48,476.88,214.58Z" transform="translate(-74.47 -70.11)"/><polygon class="cls-3" points="397.99 145.16 398.25 146.63 400.67 146.22 400.44 144.74 397.99 145.16"/><rect class="cls-4" x="468.22" y="215.84" width="2.48" height="1.5" transform="translate(-106.04 18.91) rotate(-10.48)"/><path class="cls-2" d="M480.67,222.33a33,33,0,0,1,5.4.28,42.58,42.58,0,0,1,5.44,1.11l4.15-14.41a57.61,57.61,0,0,0-7.62-1.57,47.19,47.19,0,0,0-7.92-.4Z" transform="translate(-74.47 -70.11)"/><path class="cls-3" d="M490.32,215.2l-.29,1.47a23.71,23.71,0,0,1,2.36.54l.38-1.45C492,215.54,491.15,215.34,490.32,215.2Z" transform="translate(-74.47 -70.11)"/><path class="cls-3" d="M485.88,214.51l-.15,1.49c.8.06,1.6.2,2.4.31l.24-1.48C487.54,214.72,486.72,214.57,485.88,214.51Z" transform="translate(-74.47 -70.11)"/><path class="cls-3" d="M481.4,214.28l0,1.5c.8,0,1.61,0,2.41.06l.08-1.49C483.08,214.28,482.24,214.29,481.4,214.28Z" transform="translate(-74.47 -70.11)"/><path class="cls-2" d="M491.51,223.72a31.06,31.06,0,0,1,4.91,1.92,50,50,0,0,1,5,3l8.28-12.5a62.52,62.52,0,0,0-6.49-3.87,45,45,0,0,0-7.51-2.94Z" transform="translate(-74.47 -70.11)"/><path class="cls-3" d="M502.87,220.05l-.77,1.29c.7.4,1.38.86,2.07,1.3l.82-1.26C504.28,220.93,503.59,220.47,502.87,220.05Z" transform="translate(-74.47 -70.11)"/><path class="cls-3" d="M498.9,217.93l-.63,1.37c.73.33,1.46.68,2.16,1.08l.72-1.32C500.42,218.65,499.67,218.28,498.9,217.93Z" transform="translate(-74.47 -70.11)"/><path class="cls-3" d="M494.71,216.32l-.45,1.42c.76.25,1.53.49,2.27.81l.55-1.39A24.69,24.69,0,0,0,494.71,216.32Z" transform="translate(-74.47 -70.11)"/><path class="cls-2" d="M501.38,228.62A79.62,79.62,0,0,0,514,236l6.14-13.68a65.52,65.52,0,0,1-10.43-6.15Z" transform="translate(-74.47 -70.11)"/><path class="cls-3" d="M514.15,227.13l-.7,1.32c.75.38,1.49.78,2.25,1.13l.64-1.36C515.6,227.89,514.88,227.49,514.15,227.13Z" transform="translate(-74.47 -70.11)"/><path class="cls-3" d="M510.35,224.91l-.8,1.27c.71.43,1.41.89,2.15,1.3l.75-1.3C511.73,225.79,511.05,225.33,510.35,224.91Z" transform="translate(-74.47 -70.11)"/><polygon class="cls-3" points="432.18 152.38 431.35 153.62 433.42 155 434.24 153.75 432.18 152.38"/><path class="cls-2" d="M514,236a69.52,69.52,0,0,0,14.22,4.54l3.08-14.68a54.65,54.65,0,0,1-11.16-3.54Z" transform="translate(-74.47 -70.11)"/><path class="cls-3" d="M526.48,231.84l-.38,1.45c.8.24,1.62.39,2.44.58l.33-1.46C528.07,232.22,527.26,232.07,526.48,231.84Z" transform="translate(-74.47 -70.11)"/><path class="cls-3" d="M522.25,230.57l-.47,1.43c.79.26,1.58.55,2.39.76l.43-1.44C523.8,231.11,523,230.83,522.25,230.57Z" transform="translate(-74.47 -70.11)"/><polygon class="cls-3" points="443.67 158.93 443.09 160.31 445.43 161.23 445.96 159.83 443.67 158.93"/><path class="cls-2" d="M528.17,240.49a82.18,82.18,0,0,0,14.59,1.7l.39-15a67.2,67.2,0,0,1-11.9-1.38Z" transform="translate(-74.47 -70.11)"/><path class="cls-3" d="M539.53,234l-.11,1.49c.84.08,1.67.14,2.51.15l.06-1.5C541.17,234.12,540.35,234.06,539.53,234Z" transform="translate(-74.47 -70.11)"/><path class="cls-3" d="M535.14,233.53,535,235c.83.1,1.65.23,2.49.31l.15-1.5C536.77,233.76,536,233.63,535.14,233.53Z" transform="translate(-74.47 -70.11)"/><polygon class="cls-3" points="456.33 162.72 456.05 164.19 458.52 164.63 458.75 163.15 456.33 162.72"/><path class="cls-2" d="M542.76,242.19a73.63,73.63,0,0,0,14.83-1.09l-2.7-14.76a57.81,57.81,0,0,1-11.74.85Z" transform="translate(-74.47 -70.11)"/><polygon class="cls-3" points="478.28 163.6 478.46 165.09 480.96 164.74 480.71 163.26 478.28 163.6"/><polygon class="cls-3" points="473.89 164 473.97 165.5 476.48 165.3 476.34 163.81 473.89 164"/><path class="cls-3" d="M544,234.19l0,1.5c.84,0,1.68,0,2.51,0l0-1.5C545.61,234.17,544.79,234.23,544,234.19Z" transform="translate(-74.47 -70.11)"/><path class="cls-2" d="M557.59,241.1a54.42,54.42,0,0,0,14.62-4.73l-6.62-13.46a39.09,39.09,0,0,1-10.7,3.43Z" transform="translate(-74.47 -70.11)"/><path class="cls-3" d="M565.54,230.55l.56,1.4c.79-.28,1.54-.68,2.31-1l-.63-1.36C567,229.89,566.31,230.28,565.54,230.55Z" transform="translate(-74.47 -70.11)"/><polygon class="cls-3" points="486.91 161.84 487.33 163.29 488.55 162.95 489.74 162.52 489.24 161.1 488.09 161.52 486.91 161.84"/><path class="cls-3" d="M557.13,233l.29,1.47c.82-.18,1.66-.31,2.47-.54l-.37-1.45C558.74,232.7,557.92,232.82,557.13,233Z" transform="translate(-74.47 -70.11)"/><path class="cls-2" d="M572.21,236.37a44.29,44.29,0,0,0,12.94-9.55L574,216.74a29.18,29.18,0,0,1-8.45,6.17Z" transform="translate(-74.47 -70.11)"/><path class="cls-3" d="M576.77,223.8l1,1.12a17.88,17.88,0,0,0,1.84-1.75l-1.07-1A18.6,18.6,0,0,1,576.77,223.8Z" transform="translate(-74.47 -70.11)"/><polygon class="cls-3" points="498.83 156.35 499.67 157.59 501.75 156.13 500.82 154.94 498.83 156.35"/><polygon class="cls-3" points="495.09 158.61 495.79 159.94 497.99 158.68 497.21 157.4 495.09 158.61"/><path class="cls-2" d="M585.15,226.82a44.76,44.76,0,0,0,8.14-13.58l-13.86-5.75c-1.61,3.91-3.13,6.8-5.39,9.25Z" transform="translate(-74.47 -70.11)"/><path class="cls-3" d="M584.49,213.31l1.35.64c.38-.76.69-1.54,1-2.3l-1.38-.59C585.15,211.81,584.85,212.58,584.49,213.31Z" transform="translate(-74.47 -70.11)"/><path class="cls-3" d="M582.42,217.17l1.27.79c.44-.73.85-1.47,1.27-2.21l-1.33-.7C583.23,215.76,582.84,216.47,582.42,217.17Z" transform="translate(-74.47 -70.11)"/><path class="cls-3" d="M579.85,220.68l1.15,1c.52-.68,1.1-1.31,1.57-2l-1.22-.87C580.9,219.44,580.35,220,579.85,220.68Z" transform="translate(-74.47 -70.11)"/><path class="cls-2" d="M593.29,213.24c.9-2.21,1.66-4.12,2.47-5.92a30.86,30.86,0,0,1,2.6-4.68L586,194.13a46.15,46.15,0,0,0-3.89,7c-1,2.26-1.9,4.49-2.69,6.4Z" transform="translate(-74.47 -70.11)"/><path class="cls-3" d="M589.91,201.08l1.32.72a20.36,20.36,0,0,1,1.23-2.06l-1.26-.82A25.11,25.11,0,0,0,589.91,201.08Z" transform="translate(-74.47 -70.11)"/><path class="cls-3" d="M588,205.12l1.38.6c.31-.75.66-1.48,1-2.21l-1.35-.66C588.64,203.6,588.27,204.35,588,205.12Z" transform="translate(-74.47 -70.11)"/><rect class="cls-4" x="586.17" y="207.61" width="2.48" height="1.5" transform="translate(97.79 603.14) rotate(-67.76)"/><path class="cls-2" d="M598.36,202.64c.47-.7,1-1.33,1.53-2l.87-.92a8.6,8.6,0,0,1,.91-.9,27.09,27.09,0,0,1,4.18-3.21L597.8,183a42.1,42.1,0,0,0-6.38,4.92,18,18,0,0,0-1.46,1.44l-1.41,1.52c-.87,1.07-1.76,2.15-2.54,3.29Z" transform="translate(-74.47 -70.11)"/><path class="cls-3" d="M598.66,190.85l.92,1.19c.65-.47,1.28-1,1.95-1.42l-.84-1.25C600,189.83,599.34,190.36,598.66,190.85Z" transform="translate(-74.47 -70.11)"/><path class="cls-3" d="M595.28,193.84l1.07,1c.52-.6,1.18-1.08,1.76-1.63l-1-1.13A24.8,24.8,0,0,0,595.28,193.84Z" transform="translate(-74.47 -70.11)"/><path class="cls-3" d="M592.35,197.25l1.21.89c.5-.62,1-1.28,1.49-1.87l-1.13-1C593.36,195.9,592.88,196.6,592.35,197.25Z" transform="translate(-74.47 -70.11)"/><path class="cls-2" d="M605.85,195.62a34.07,34.07,0,0,1,10-4.23l-3.64-14.55A49.16,49.16,0,0,0,597.8,183Z" transform="translate(-74.47 -70.11)"/><path class="cls-3" d="M610.57,184.58l.48,1.42c.76-.26,1.55-.46,2.32-.69l-.39-1.45C612.18,184.1,611.36,184.31,610.57,184.58Z" transform="translate(-74.47 -70.11)"/><path class="cls-3" d="M606.39,186.22l.62,1.37c.74-.31,1.46-.68,2.23-.94l-.54-1.4C607.91,185.52,607.16,185.9,606.39,186.22Z" transform="translate(-74.47 -70.11)"/><path class="cls-3" d="M602.41,188.29l.77,1.29c.66-.45,1.41-.77,2.11-1.16l-.68-1.34C603.88,187.49,603.1,187.82,602.41,188.29Z" transform="translate(-74.47 -70.11)"/><path class="cls-2" d="M615.89,191.39A53.51,53.51,0,0,1,627.42,190l-.27-15a67.77,67.77,0,0,0-14.9,1.87Z" transform="translate(-74.47 -70.11)"/><path class="cls-3" d="M623.79,182.1l.1,1.49c.81-.07,1.63-.1,2.44-.12l-.05-1.5C625.45,182,624.62,182,623.79,182.1Z" transform="translate(-74.47 -70.11)"/><polygon class="cls-3" points="544.86 112.44 545.07 113.92 547.49 113.63 547.34 112.14 544.86 112.44"/><path class="cls-3" d="M614.93,183.38l.34,1.46c.79-.18,1.58-.37,2.38-.49l-.26-1.47C616.56,183,615.75,183.19,614.93,183.38Z" transform="translate(-74.47 -70.11)"/><path class="cls-2" d="M627.42,190a84,84,0,0,1,12.18.77l2-14.87a98.34,98.34,0,0,0-14.44-.89Z" transform="translate(-74.47 -70.11)"/><path class="cls-3" d="M637.21,182.37l-.15,1.5c.81.07,1.62.17,2.44.27l.18-1.49C638.86,182.55,638,182.44,637.21,182.37Z" transform="translate(-74.47 -70.11)"/><polygon class="cls-3" points="558.28 111.92 558.2 113.42 560.65 113.58 560.76 112.08 558.28 111.92"/><path class="cls-3" d="M628.29,181.93v1.5c.82,0,1.63,0,2.45,0l0-1.49C630,181.92,629.12,181.94,628.29,181.93Z" transform="translate(-74.47 -70.11)"/></g><g id="Food_copy_6" data-name="Food copy 6"><polyline points="577.88 123.86 568.9 105.9 586.86 105.9"/></g><g id="Pee_copy_7-2" data-name="Pee copy 7"><circle class="cls-5" cx="18.53" cy="120.93" r="8.31"/></g><g id="Me_copy_6" data-name="Me copy 6"><line class="cls-5" x1="142.13" y1="424.19" x2="93.23" y2="375.3"/><line class="cls-5" x1="142.13" y1="375.3" x2="93.23" y2="424.19"/></g></g></svg>