<svg id="drawings" xmlns="http://www.w3.org/2000/svg" viewBox="0 0 586.86 424.54"><defs><style>.cls-1,.cls-2,.cls-5{fill:none;}.cls-1,.cls-5{stroke:#000;}.cls-1{stroke-linecap:round;stroke-linejoin:round;}.cls-3,.cls-4{fill:#231f20;}.cls-3{fill-rule:evenodd;}.cls-5{stroke-miterlimit:10;}</style></defs><g id="_9_8" data-name="9/8"><g id="Litter_Box_copy_8" data-name="Litter Box copy 8"><rect class="cls-1" x="0.5" y="106.32" width="47.94" height="61.51"/><rect class="cls-1" x="499.04" y="0.5" width="47.94" height="61.51"/></g><g id="Path_copy_8" data-name="Path copy 8"><path class="cls-2" d="M387.53,183.46a133.24,133.24,0,0,0,4.23,13.43l14.05-5.26a118.56,118.56,0,0,1-3.75-11.88Z" transform="translate(-74.47 -70.11)"/><polygon class="cls-3" points="323.65 120.73 322.23 121.22 323.05 123.57 324.46 123.05 323.65 120.73"/><polygon class="cls-3" points="322.29 116.55 320.85 116.99 321.6 119.35 323.03 118.89 322.29 116.55"/><path class="cls-3" d="M395.56,182.44l-1.45.39c.21.8.43,1.6.67,2.39l1.44-.41C396,184,395.77,183.23,395.56,182.44Z" transform="translate(-74.47 -70.11)"/><path class="cls-2" d="M391.76,196.89a130.24,130.24,0,0,0,5.63,12.89l13.4-6.72a115.8,115.8,0,0,1-5-11.43Z" transform="translate(-74.47 -70.11)"/><polygon class="cls-3" points="328.61 132.98 327.25 133.62 328.3 135.86 329.65 135.2 328.61 132.98"/><path class="cls-3" d="M401.28,199.07l-1.38.59c.33.76.64,1.53,1,2.28l1.37-.61C401.91,200.59,401.61,199.83,401.28,199.07Z" transform="translate(-74.47 -70.11)"/><path class="cls-3" d="M399.64,195l-1.4.54c.3.77.58,1.55.9,2.31l1.39-.56C400.21,196.54,399.94,195.77,399.64,195Z" transform="translate(-74.47 -70.11)"/><path class="cls-2" d="M397.39,209.78c1.08,2.09,2.13,4.19,3.34,6.21.59,1,1.16,2,1.77,3l1.9,3L417,213.85l-1.67-2.62c-.54-.88-1-1.8-1.56-2.69-1.07-1.78-2-3.64-3-5.48Z" transform="translate(-74.47 -70.11)"/><polygon class="cls-3" points="334.82 144.64 333.54 145.42 334.88 147.51 336.14 146.71 334.82 144.64"/><polygon class="cls-3" points="332.62 140.83 331.31 141.56 332.55 143.71 333.84 142.96 332.62 140.83"/><polygon class="cls-3" points="330.55 136.96 329.22 137.64 330.36 139.85 331.68 139.14 330.55 136.96"/><path class="cls-2" d="M404.4,222a125.41,125.41,0,0,0,8.36,11.41l11.55-9.58a109,109,0,0,1-7.33-10Z" transform="translate(-74.47 -70.11)"/><polygon class="cls-3" points="342.34 155.49 341.15 156.42 342.7 158.36 343.86 157.41 342.34 155.49"/><polygon class="cls-3" points="339.71 151.97 338.49 152.85 339.93 154.87 341.13 153.97 339.71 151.97"/><path class="cls-3" d="M411.68,218.48l-1.25.83c.43.71.91,1.38,1.39,2.05l1.24-.85C412.58,219.85,412.1,219.18,411.68,218.48Z" transform="translate(-74.47 -70.11)"/><path class="cls-2" d="M412.76,233.42c1.5,1.82,3.13,3.54,4.69,5.32s3.33,3.35,5,5l10.3-10.91c-1.45-1.46-2.94-2.88-4.36-4.38s-2.77-3-4.08-4.64Z" transform="translate(-74.47 -70.11)"/><polygon class="cls-3" points="351.06 165.4 350 166.46 351.76 168.21 352.8 167.13 351.06 165.4"/><path class="cls-3" d="M422.49,232.34l-1.1,1c.56.61,1.08,1.26,1.68,1.83l1.09-1C423.56,233.58,423.05,232.94,422.49,232.34Z" transform="translate(-74.47 -70.11)"/><polygon class="cls-3" points="345.1 158.95 343.96 159.92 345.61 161.78 346.74 160.78 345.1 158.95"/><path class="cls-2" d="M422.45,243.77c1.74,1.61,3.55,3.14,5.32,4.7s3.73,2.91,5.6,4.37l8.87-12.1c-1.62-1.27-3.29-2.47-4.87-3.79s-3.11-2.69-4.62-4.09Z" transform="translate(-74.47 -70.11)"/><polygon class="cls-3" points="360.93 174.16 360 175.34 361.98 176.86 362.87 175.66 360.93 174.16"/><path class="cls-3" d="M432,241.5l-1,1.14c.63.54,1.22,1.12,1.89,1.61l.95-1.16C433.2,242.61,432.62,242,432,241.5Z" transform="translate(-74.47 -70.11)"/><polygon class="cls-3" points="354.23 168.5 353.21 169.6 355.07 171.24 356.07 170.12 354.23 168.5"/><path class="cls-2" d="M433.37,252.84a116.61,116.61,0,0,0,11.87,7.68l7.4-13a102.73,102.73,0,0,1-10.4-6.74Z" transform="translate(-74.47 -70.11)"/><polygon class="cls-3" points="371.77 181.69 371 182.97 373.13 184.25 373.88 182.95 371.77 181.69"/><polygon class="cls-3" points="368.05 179.34 367.23 180.6 369.32 181.94 370.12 180.67 368.05 179.34"/><polygon class="cls-3" points="364.44 176.86 363.56 178.08 365.61 179.5 366.45 178.26 364.44 176.86"/><path class="cls-2" d="M445.24,260.52a129.11,129.11,0,0,0,12.56,6.29l6-13.74a115.22,115.22,0,0,1-11.17-5.59Z" transform="translate(-74.47 -70.11)"/><path class="cls-3" d="M457.89,258l-.63,1.36c.74.36,1.5.69,2.25,1l.62-1.36C459.38,258.72,458.63,258.4,457.89,258Z" transform="translate(-74.47 -70.11)"/><path class="cls-3" d="M453.94,256.1l-.68,1.33q1.1.58,2.22,1.11l.66-1.34C455.4,256.85,454.67,256.48,453.94,256.1Z" transform="translate(-74.47 -70.11)"/><path class="cls-3" d="M450.08,254l-.73,1.31c.72.4,1.43.82,2.17,1.19l.71-1.32C451.5,254.84,450.79,254.42,450.08,254Z" transform="translate(-74.47 -70.11)"/><path class="cls-2" d="M457.8,266.81q6.43,2.81,13.11,5l4.6-14.28c-4-1.29-7.87-2.77-11.7-4.44Z" transform="translate(-74.47 -70.11)"/><polygon class="cls-3" points="395.65 192.93 395.15 194.35 397.5 195.15 397.98 193.72 395.65 192.93"/><polygon class="cls-3" points="391.52 191.41 390.98 192.8 393.3 193.68 393.82 192.27 391.52 191.41"/><polygon class="cls-3" points="387.46 189.75 386.87 191.13 389.17 192.07 389.73 190.68 387.46 189.75"/><path class="cls-2" d="M470.91,271.79a136.87,136.87,0,0,0,13.57,3.61l3.11-14.67a120.79,120.79,0,0,1-12.08-3.22Z" transform="translate(-74.47 -70.11)"/><path class="cls-3" d="M482.8,266.79l-.35,1.46c.8.19,1.6.39,2.42.56l.32-1.47C484.39,267.18,483.59,267,482.8,266.79Z" transform="translate(-74.47 -70.11)"/><path class="cls-3" d="M478.54,265.68l-.4,1.45c.8.21,1.59.45,2.39.65l.38-1.45C480.11,266.13,479.33,265.9,478.54,265.68Z" transform="translate(-74.47 -70.11)"/><polygon class="cls-3" points="399.86 194.33 399.41 195.76 401.78 196.49 402.2 195.05 399.86 194.33"/><path class="cls-2" d="M484.48,275.4a125.07,125.07,0,0,0,14,2.16l1.41-14.93a113.89,113.89,0,0,1-12.26-1.9Z" transform="translate(-74.47 -70.11)"/><polygon class="cls-3" points="421.31 199.07 421.13 200.56 423.6 200.84 423.75 199.34 421.31 199.07"/><path class="cls-3" d="M491.43,268.55l-.24,1.48c.82.14,1.64.25,2.46.37l.21-1.49C493.05,268.79,492.24,268.69,491.43,268.55Z" transform="translate(-74.47 -70.11)"/><path class="cls-3" d="M487.12,267.75l-.3,1.47c.81.18,1.63.32,2.44.47l.27-1.48C488.73,268.06,487.92,267.93,487.12,267.75Z" transform="translate(-74.47 -70.11)"/><path class="cls-2" d="M498.44,277.56a107.76,107.76,0,0,0,14.28.38l-.63-15a92.91,92.91,0,0,1-12.24-.33Z" transform="translate(-74.47 -70.11)"/><path class="cls-3" d="M509,270v1.5c.83,0,1.66,0,2.49,0l0-1.5C510.59,270,509.78,270,509,270Z" transform="translate(-74.47 -70.11)"/><path class="cls-3" d="M504.56,269.91l-.06,1.5c.83,0,1.66.08,2.49.09l0-1.5C506.2,270,505.38,269.94,504.56,269.91Z" transform="translate(-74.47 -70.11)"/><polygon class="cls-3" points="425.72 199.53 425.59 201.02 428.07 201.21 428.16 199.72 425.72 199.53"/><path class="cls-2" d="M512.72,277.94a86.48,86.48,0,0,0,14.41-1.77L524,261.5a71.82,71.82,0,0,1-11.9,1.46Z" transform="translate(-74.47 -70.11)"/><path class="cls-3" d="M522.09,269l.24,1.48c.82-.15,1.65-.27,2.46-.44l-.29-1.47C523.7,268.68,522.89,268.8,522.09,269Z" transform="translate(-74.47 -70.11)"/><polygon class="cls-3" points="443.27 199.43 443.43 200.92 445.9 200.62 445.7 199.13 443.27 199.43"/><path class="cls-3" d="M513.38,269.88l.08,1.5c.83,0,1.66-.12,2.49-.18l-.13-1.49C515,269.77,514.2,269.86,513.38,269.88Z" transform="translate(-74.47 -70.11)"/><path class="cls-2" d="M527.13,276.17a69.7,69.7,0,0,0,14.14-4.6l-6.22-13.65A53.39,53.39,0,0,1,524,261.5Z" transform="translate(-74.47 -70.11)"/><polygon class="cls-3" points="460.32 195.46 460.86 196.86 463.19 195.93 462.59 194.56 460.32 195.46"/><path class="cls-3" d="M530.65,267l.43,1.43c.8-.24,1.59-.52,2.38-.78l-.49-1.42C532.2,266.49,531.43,266.76,530.65,267Z" transform="translate(-74.47 -70.11)"/><polygon class="cls-3" points="451.95 197.99 452.29 199.45 453.51 199.18 454.71 198.85 454.32 197.4 453.15 197.72 451.95 197.99"/><path class="cls-2" d="M541.27,271.57a57.41,57.41,0,0,0,12.93-8.07L544.58,252a42.16,42.16,0,0,1-9.53,5.93Z" transform="translate(-74.47 -70.11)"/><path class="cls-3" d="M546.36,259.42l.87,1.21c.67-.5,1.35-1,2-1.5l-.94-1.17C547.67,258.46,547,258.93,546.36,259.42Z" transform="translate(-74.47 -70.11)"/><path class="cls-3" d="M542.7,261.81l.76,1.29c.72-.42,1.42-.89,2.13-1.34l-.83-1.25C544.07,260.94,543.4,261.39,542.7,261.81Z" transform="translate(-74.47 -70.11)"/><path class="cls-3" d="M538.84,263.83l.65,1.36c.76-.35,1.51-.72,2.24-1.14l-.71-1.32A23.41,23.41,0,0,1,538.84,263.83Z" transform="translate(-74.47 -70.11)"/><path class="cls-2" d="M554.2,263.5a51.53,51.53,0,0,0,5.57-5.39,57.87,57.87,0,0,0,4.68-6.11l-12.52-8.26a43.69,43.69,0,0,1-3.38,4.42,36.86,36.86,0,0,1-4,3.83Z" transform="translate(-74.47 -70.11)"/><path class="cls-3" d="M555.76,250.35l1.19.91c.51-.67,1-1.33,1.48-2l-1.23-.85C556.75,249.06,556.26,249.7,555.76,250.35Z" transform="translate(-74.47 -70.11)"/><path class="cls-3" d="M552.94,253.67l1.09,1c.59-.6,1.14-1.24,1.67-1.88l-1.15-1C554,252.48,553.51,253.09,552.94,253.67Z" transform="translate(-74.47 -70.11)"/><path class="cls-3" d="M549.81,256.7l1,1.13c.64-.54,1.23-1.15,1.85-1.71l-1-1.08C551,255.59,550.44,256.18,549.81,256.7Z" transform="translate(-74.47 -70.11)"/><path class="cls-2" d="M564.45,252a79.4,79.4,0,0,0,6.73-13l-13.83-5.81a64.53,64.53,0,0,1-5.42,10.56Z" transform="translate(-74.47 -70.11)"/><path class="cls-3" d="M562.4,239l1.37.63c.33-.76.68-1.51,1-2.28l-1.38-.59C563.08,237.54,562.73,238.28,562.4,239Z" transform="translate(-74.47 -70.11)"/><path class="cls-3" d="M560.47,243l1.32.7c.38-.74.78-1.47,1.13-2.22l-1.35-.66C561.23,241.52,560.83,242.23,560.47,243Z" transform="translate(-74.47 -70.11)"/><path class="cls-3" d="M558.28,246.74l1.27.8c.44-.71.89-1.42,1.29-2.15l-1.3-.75C559.15,245.36,558.71,246,558.28,246.74Z" transform="translate(-74.47 -70.11)"/><path class="cls-2" d="M571.18,239c1.81-4.31,3.32-8.49,4.93-12.4l-13.89-5.68c-1.75,4.28-3.25,8.43-4.87,12.27Z" transform="translate(-74.47 -70.11)"/><polygon class="cls-3" points="492.92 156.64 494.32 157.19 495.22 154.91 493.83 154.35 492.92 156.64"/><rect class="cls-4" x="565.7" y="229.25" width="2.46" height="1.5" transform="translate(72.28 604.59) rotate(-68.71)"/><polygon class="cls-3" points="489.69 164.85 491.08 165.42 492 163.12 490.61 162.57 489.69 164.85"/><path class="cls-2" d="M576.11,226.59a81.44,81.44,0,0,1,5.27-10.93L568.51,208a95.43,95.43,0,0,0-6.29,12.94Z" transform="translate(-74.47 -70.11)"/><path class="cls-3" d="M572.8,214.57l1.32.71c.37-.73.77-1.43,1.18-2.13l-1.3-.75C573.58,213.12,573.17,213.84,572.8,214.57Z" transform="translate(-74.47 -70.11)"/><path class="cls-3" d="M570.83,218.56l1.36.63c.33-.75.7-1.47,1-2.2l-1.34-.67C571.54,217.07,571.16,217.81,570.83,218.56Z" transform="translate(-74.47 -70.11)"/><polygon class="cls-3" points="494.58 152.5 495.97 153.08 496.93 150.83 495.55 150.23 494.58 152.5"/><path class="cls-2" d="M581.38,215.66a47,47,0,0,1,7-9l-10.65-10.57a62,62,0,0,0-9.2,11.92Z" transform="translate(-74.47 -70.11)"/><path class="cls-3" d="M580.29,203.5l1.13,1c.53-.61,1.09-1.19,1.63-1.78l-1.08-1C581.41,202.28,580.83,202.88,580.29,203.5Z" transform="translate(-74.47 -70.11)"/><path class="cls-3" d="M577.51,207l1.21.89c.49-.64.95-1.3,1.47-1.92L579,205C578.49,205.66,578,206.34,577.51,207Z" transform="translate(-74.47 -70.11)"/><path class="cls-3" d="M575,210.68l1.27.79c.43-.69.85-1.37,1.32-2l-1.24-.84C575.9,209.27,575.46,210,575,210.68Z" transform="translate(-74.47 -70.11)"/><path class="cls-2" d="M588.36,206.62a51.1,51.1,0,0,1,9-7.15l-7.95-12.71a66.25,66.25,0,0,0-11.74,9.29Z" transform="translate(-74.47 -70.11)"/><path class="cls-3" d="M590.25,194.59l.86,1.22c.66-.47,1.32-.93,2-1.35l-.81-1.26C591.6,193.63,590.92,194.1,590.25,194.59Z" transform="translate(-74.47 -70.11)"/><polygon class="cls-3" points="512.23 127.17 513.18 128.33 515.08 126.82 514.17 125.63 512.23 127.17"/><polygon class="cls-3" points="508.92 130.14 509.96 131.22 510.83 130.37 511.74 129.57 510.74 128.45 509.81 129.27 508.92 130.14"/><path class="cls-2" d="M597.4,199.47a57.47,57.47,0,0,1,10.53-5.17l-5.23-14.06a71.77,71.77,0,0,0-13.25,6.52Z" transform="translate(-74.47 -70.11)"/><path class="cls-3" d="M601.91,188.06l.59,1.38c.74-.32,1.5-.61,2.25-.91l-.54-1.4C603.44,187.44,602.67,187.73,601.91,188.06Z" transform="translate(-74.47 -70.11)"/><path class="cls-3" d="M597.88,190l.69,1.34c.72-.36,1.43-.76,2.18-1.07l-.64-1.36C599.35,189.2,598.63,189.6,597.88,190Z" transform="translate(-74.47 -70.11)"/><polygon class="cls-3" points="519.52 122.01 520.3 123.29 522.41 122.09 521.68 120.78 519.52 122.01"/><path class="cls-2" d="M607.93,194.3a69.55,69.55,0,0,1,11.51-3.13l-2.66-14.76a84.36,84.36,0,0,0-14.08,3.83Z" transform="translate(-74.47 -70.11)"/><path class="cls-3" d="M614.62,184l.33,1.46c.78-.2,1.58-.34,2.38-.5l-.28-1.47C616.23,183.62,615.42,183.77,614.62,184Z" transform="translate(-74.47 -70.11)"/><polygon class="cls-3" points="535.83 114.95 536.25 116.39 538.6 115.76 538.23 114.3 535.83 114.95"/><path class="cls-3" d="M606.08,186.43l.51,1.42c.76-.28,1.52-.55,2.3-.78l-.45-1.43C607.64,185.87,606.86,186.16,606.08,186.43Z" transform="translate(-74.47 -70.11)"/><path class="cls-2" d="M619.44,191.17A83.23,83.23,0,0,1,631.53,190l-.45-15a97.76,97.76,0,0,0-14.3,1.45Z" transform="translate(-74.47 -70.11)"/><path class="cls-3" d="M627.83,182.09l.1,1.5c.81-.06,1.62-.11,2.43-.13l-.06-1.5C629.48,182,628.65,182,627.83,182.09Z" transform="translate(-74.47 -70.11)"/><path class="cls-3" d="M623.4,182.49l.17,1.49c.81-.09,1.62-.19,2.43-.25l-.13-1.49C625,182.3,624.22,182.4,623.4,182.49Z" transform="translate(-74.47 -70.11)"/><path class="cls-3" d="M619,183.1l.25,1.48c.8-.13,1.6-.26,2.41-.36l-.21-1.49C620.64,182.83,619.83,183,619,183.1Z" transform="translate(-74.47 -70.11)"/></g><g id="Food_copy_8" data-name="Food copy 8"><polyline points="577.88 123.86 568.9 105.9 586.86 105.9"/></g><g id="Poop_copy_8" data-name="Poop copy 8"><rect x="23.91" y="125.31" width="17.96" height="17.96"/></g><g id="Pee_copy_9-2" data-name="Pee copy 9"><circle class="cls-5" cx="9.67" cy="147.68" r="8.31"/></g><g id="Me_copy_8" data-name="Me copy 8"><line class="cls-5" x1="142.13" y1="424.19" x2="93.23" y2="375.3"/><line class="cls-5" x1="142.13" y1="375.3" x2="93.23" y2="424.19"/></g></g></svg>