<svg id="drawings" xmlns="http://www.w3.org/2000/svg" viewBox="0 0 454.6 424.54"><defs><style>.cls-1,.cls-2,.cls-5{fill:none;}.cls-1,.cls-5{stroke:#000;}.cls-1{stroke-linecap:round;stroke-linejoin:round;}.cls-3,.cls-4{fill:#231f20;}.cls-3{fill-rule:evenodd;}.cls-5{stroke-miterlimit:10;}</style></defs><g id="_9_11" data-name="9/11"><g id="Litter_Box_copy_11" data-name="Litter Box copy 11"><rect class="cls-1" x="406.16" y="0.5" width="47.94" height="61.51"/></g><g id="Path_copy_11" data-name="Path copy 11"><path class="cls-2" d="M439,201.48a36.69,36.69,0,0,1,6.46-9.16l-10.71-10.51A51.65,51.65,0,0,0,425.49,195Z" transform="translate(-167.35 -70.11)"/><path class="cls-3" d="M437.32,189.37l1.15,1c.54-.63,1-1.3,1.61-1.89l-1.09-1C438.39,188,437.88,188.72,437.32,189.37Z" transform="translate(-167.35 -70.11)"/><polygon class="cls-3" points="267.23 122.98 268.48 123.8 269.88 121.74 268.67 120.85 267.23 122.98"/><polygon class="cls-3" points="264.91 126.95 266.25 127.64 267.44 125.45 266.14 124.69 264.91 126.95"/><path class="cls-2" d="M445.45,192.32a31.66,31.66,0,0,1,8.93-6.46l-6.45-13.54a46.94,46.94,0,0,0-13.19,9.49Z" transform="translate(-167.35 -70.11)"/><polygon class="cls-3" points="280.39 110.21 281.16 111.5 283.35 110.32 282.67 108.99 280.39 110.21"/><path class="cls-3" d="M443.94,182.94l.91,1.19a20.67,20.67,0,0,1,2-1.44l-.84-1.24A20.46,20.46,0,0,0,443.94,182.94Z" transform="translate(-167.35 -70.11)"/><path class="cls-3" d="M440.47,186l1,1.08a17.11,17.11,0,0,1,1.83-1.67l-1-1.14A18.4,18.4,0,0,0,440.47,186Z" transform="translate(-167.35 -70.11)"/><path class="cls-2" d="M454.38,185.86a28.41,28.41,0,0,1,10.37-2.73l-.84-15a43.29,43.29,0,0,0-16,4.16Z" transform="translate(-167.35 -70.11)"/><path class="cls-3" d="M460.71,175.52,461,177c.81-.13,1.63-.18,2.45-.28l-.13-1.5C462.43,175.33,461.56,175.38,460.71,175.52Z" transform="translate(-167.35 -70.11)"/><path class="cls-3" d="M456.22,176.6l.43,1.44,1.18-.37c.4-.11.81-.17,1.21-.27l-.33-1.46c-.42.1-.85.16-1.26.28Z" transform="translate(-167.35 -70.11)"/><polygon class="cls-3" points="284.54 108.09 285.15 109.47 287.44 108.51 286.92 107.1 284.54 108.09"/><path class="cls-2" d="M464.75,183.13a19.88,19.88,0,0,1,9.69,1.76l6.44-13.54a34.77,34.77,0,0,0-17-3.19Z" transform="translate(-167.35 -70.11)"/><polygon class="cls-3" points="307.16 106.2 306.72 107.64 309.02 108.45 309.61 107.07 307.16 106.2"/><path class="cls-3" d="M470,175.35l-.19,1.49a14.16,14.16,0,0,1,2.41.43l.33-1.46A15.67,15.67,0,0,0,470,175.35Z" transform="translate(-167.35 -70.11)"/><path class="cls-3" d="M465.36,175.11l0,1.5c.82,0,1.65,0,2.46,0l.09-1.5C467.08,175.08,466.22,175.12,465.36,175.11Z" transform="translate(-167.35 -70.11)"/><path class="cls-2" d="M474.44,184.89a15.62,15.62,0,0,1,3.85,2.55,22.54,22.54,0,0,1,3.16,3.77L494,183.05a37.07,37.07,0,0,0-5.64-6.69,30.46,30.46,0,0,0-7.52-5Z" transform="translate(-167.35 -70.11)"/><polygon class="cls-3" points="318.66 113.83 317.52 114.8 318.3 115.74 319.01 116.75 320.24 115.89 319.49 114.83 318.66 113.83"/><path class="cls-3" d="M482.71,180.68l-.95,1.16c.31.26.63.51.93.78l.87.86,1.07-1-.92-.92C483.38,181.22,483,181,482.71,180.68Z" transform="translate(-167.35 -70.11)"/><path class="cls-3" d="M478.84,178.12l-.71,1.33c.36.19.74.34,1.08.56l1,.68.85-1.24-1.08-.72C479.62,178.49,479.22,178.33,478.84,178.12Z" transform="translate(-167.35 -70.11)"/><path class="cls-2" d="M481.45,191.21a28.52,28.52,0,0,1,2.37,4.72,31.11,31.11,0,0,1,1.48,5.29L500,198.44a46.79,46.79,0,0,0-2.22-7.89,43.57,43.57,0,0,0-3.78-7.5Z" transform="translate(-167.35 -70.11)"/><path class="cls-3" d="M492.36,196.22l-1.44.41c.21.8.46,1.59.6,2.41l1.47-.32C492.84,197.88,492.58,197.05,492.36,196.22Z" transform="translate(-167.35 -70.11)"/><path class="cls-3" d="M490.82,191.86l-1.38.59c.32.76.64,1.52.89,2.31l1.42-.49C491.49,193.45,491.16,192.66,490.82,191.86Z" transform="translate(-167.35 -70.11)"/><polygon class="cls-3" points="321.38 117.64 320.09 118.41 320.72 119.47 321.27 120.57 322.62 119.9 322.04 118.75 321.38 117.64"/><path class="cls-2" d="M485.3,201.22a28.78,28.78,0,0,1,.09,10.78l14.71,2.89a39.09,39.09,0,0,0,.75-8.34,45.79,45.79,0,0,0-.81-8.11Z" transform="translate(-167.35 -70.11)"/><path class="cls-3" d="M493.77,210l-1.49-.12c-.1.81-.13,1.64-.31,2.44l1.48.24A24.52,24.52,0,0,0,493.77,210Z" transform="translate(-167.35 -70.11)"/><path class="cls-3" d="M493.85,205.34l-1.5.07c0,.83.08,1.65,0,2.48l1.5,0C493.93,207.06,493.85,206.2,493.85,205.34Z" transform="translate(-167.35 -70.11)"/><path class="cls-3" d="M493.38,200.76l-1.48.24c.1.82.27,1.64.31,2.46l1.49-.14C493.66,202.46,493.49,201.62,493.38,200.76Z" transform="translate(-167.35 -70.11)"/><path class="cls-2" d="M485.39,212a19.83,19.83,0,0,1-.6,2.36c-.11.38-.29.71-.42,1.07l-.21.53c-.08.17-.18.33-.27.5a18.49,18.49,0,0,1-2.89,4.06l11.24,9.94a33.94,33.94,0,0,0,5-7.11c.18-.34.36-.67.53-1l.44-1.05c.28-.7.6-1.41.82-2.12a32.7,32.7,0,0,0,1.1-4.27Z" transform="translate(-167.35 -70.11)"/><path class="cls-3" d="M489.27,223l-1.22-.86c-.45.68-1,1.29-1.5,2l1.14,1C488.22,224.39,488.79,223.74,489.27,223Z" transform="translate(-167.35 -70.11)"/><path class="cls-3" d="M491.59,219l-1.37-.61c-.3.76-.75,1.44-1.11,2.17l1.29.76C490.79,220.53,491.27,219.79,491.59,219Z" transform="translate(-167.35 -70.11)"/><polygon class="cls-3" points="325.72 144.47 324.26 144.13 323.58 146.48 325 146.97 325.72 144.47"/><path class="cls-2" d="M481,220.52c-2.48,2.8-6.21,6.12-9.52,9.95l11.32,9.83c1.36-1.53,2.75-3,4.36-4.59s3.29-3.22,5.08-5.25Z" transform="translate(-167.35 -70.11)"/><path class="cls-3" d="M479.93,233.13l-1.09-1c-.6.61-1.17,1.25-1.74,1.9l1.11,1C478.78,234.36,479.34,233.73,479.93,233.13Z" transform="translate(-167.35 -70.11)"/><polygon class="cls-3" points="315.77 159.78 314.71 158.72 312.91 160.52 313.97 161.57 315.77 159.78"/><path class="cls-3" d="M486.31,226.62l-1.1-1c-.56.62-1.16,1.21-1.73,1.82l1.06,1.05C485.13,227.85,485.74,227.25,486.31,226.62Z" transform="translate(-167.35 -70.11)"/><path class="cls-2" d="M471.48,230.47a67.66,67.66,0,0,0-8.7,12.67l13.24,7a53.24,53.24,0,0,1,6.78-9.88Z" transform="translate(-167.35 -70.11)"/><polygon class="cls-3" points="304.26 173.73 302.98 172.95 301.7 175.2 303.01 175.92 304.26 173.73"/><path class="cls-3" d="M474.12,240.08l-1.22-.88c-.53.68-1,1.42-1.46,2.14l1.26.82C473.16,241.46,473.6,240.74,474.12,240.08Z" transform="translate(-167.35 -70.11)"/><path class="cls-3" d="M476.88,236.52l-1.15-1c-.54.67-1.1,1.32-1.62,2l1.18.92C475.8,237.81,476.35,237.17,476.88,236.52Z" transform="translate(-167.35 -70.11)"/><path class="cls-2" d="M462.78,243.14l-1.65,3.43a37.17,37.17,0,0,0-1.54,3.48,70.69,70.69,0,0,0-2.49,7.17l14.38,4.25a57.81,57.81,0,0,1,2-5.77,25.59,25.59,0,0,1,1.24-2.78l1.3-2.74Z" transform="translate(-167.35 -70.11)"/><path class="cls-3" d="M465.87,256.14l-1.42-.5c-.14.4-.31.8-.44,1.21l-.36,1.23,1.43.45.35-1.21C465.57,256.92,465.72,256.53,465.87,256.14Z" transform="translate(-167.35 -70.11)"/><path class="cls-3" d="M467.48,251.91l-1.38-.59c-.33.79-.61,1.6-.92,2.4l1.4.54C466.88,253.48,467.16,252.68,467.48,251.91Z" transform="translate(-167.35 -70.11)"/><polygon class="cls-3" points="302.07 177.72 300.74 177.04 299.63 179.37 300.99 180 302.07 177.72"/><path class="cls-2" d="M457.1,257.22c-.34,1.21-.73,2.42-1,3.64l-.78,3.68c-.12.62-.27,1.23-.37,1.85l-.27,1.85-.52,3.71,14.92,1.61.43-3.07.21-1.54c.09-.51.21-1,.32-1.51l.63-3c.25-1,.57-2,.84-2.95Z" transform="translate(-167.35 -70.11)"/><polygon class="cls-3" points="295.25 199.21 293.77 198.98 293.41 201.53 294.9 201.71 295.25 199.21"/><polygon class="cls-3" points="296.08 194.75 294.61 194.44 294.08 196.96 295.55 197.22 296.08 194.75"/><path class="cls-3" d="M464.51,260.49l-1.44-.41c-.23.83-.52,1.64-.69,2.49l1.46.35C464,262.09,464.29,261.3,464.51,260.49Z" transform="translate(-167.35 -70.11)"/><path class="cls-2" d="M454.13,272a105.1,105.1,0,0,0-.42,14.82l15-.65a90.53,90.53,0,0,1,.36-12.56Z" transform="translate(-167.35 -70.11)"/><polygon class="cls-3" points="294.28 212.77 292.78 212.78 292.85 215.35 294.35 215.3 294.28 212.77"/><polygon class="cls-3" points="294.36 208.24 292.86 208.18 292.81 210.75 294.31 210.77 294.36 208.24"/><polygon class="cls-3" points="294.68 203.73 293.19 203.59 292.99 206.15 294.48 206.25 294.68 203.73"/><path class="cls-2" d="M453.71,286.77a123.45,123.45,0,0,0,1.57,14.56l14.79-2.54a106.89,106.89,0,0,1-1.38-12.67Z" transform="translate(-167.35 -70.11)"/><polygon class="cls-3" points="295.3 226.36 293.82 226.57 294.21 229.1 295.69 228.86 295.3 226.36"/><polygon class="cls-3" points="294.76 221.85 293.27 222 293.57 224.55 295.05 224.37 294.76 221.85"/><polygon class="cls-3" points="294.42 217.34 292.92 217.42 293.11 219.98 294.6 219.87 294.42 217.34"/><path class="cls-2" d="M455.28,301.33c.83,4.77,1.94,9.53,3.21,14.07l14.46-4a126.87,126.87,0,0,1-2.88-12.64Z" transform="translate(-167.35 -70.11)"/><polygon class="cls-3" points="297.96 239.74 296.51 240.11 297.16 242.58 298.61 242.19 297.96 239.74"/><path class="cls-3" d="M464.28,305.42l-1.47.33c.18.83.36,1.67.57,2.49l1.46-.35C464.63,307.08,464.46,306.25,464.28,305.42Z" transform="translate(-167.35 -70.11)"/><polygon class="cls-3" points="296.04 230.87 294.56 231.14 295.03 233.66 296.5 233.36 296.04 230.87"/><path class="cls-2" d="M458.49,315.4c1.24,4.45,2.42,8.86,4,13.54l14.22-4.76c-1.32-4-2.52-8.4-3.73-12.75Z" transform="translate(-167.35 -70.11)"/><path class="cls-3" d="M469,323l-1.44.43c.24.82.5,1.64.76,2.45l1.43-.46C469.5,324.64,469.25,323.83,469,323Z" transform="translate(-167.35 -70.11)"/><polygon class="cls-3" points="300.38 248.54 298.94 248.95 299.64 251.4 301.08 250.98 300.38 248.54"/><rect class="cls-4" x="465.37" y="314.43" width="1.5" height="2.54" transform="translate(-234.92 66.4) rotate(-15.55)"/><path class="cls-2" d="M462.46,328.94a61.37,61.37,0,0,0,2.87,7.24,35.11,35.11,0,0,0,4.65,7.34l11.51-9.62a19.87,19.87,0,0,1-2.64-4.22,46,46,0,0,1-2.17-5.5Z" transform="translate(-167.35 -70.11)"/><path class="cls-3" d="M474.11,335.54l-1.27.79a24.67,24.67,0,0,0,1.49,2.18l1.19-.91C475,336.93,474.54,336.26,474.11,335.54Z" transform="translate(-167.35 -70.11)"/><path class="cls-3" d="M472,331.57l-1.38.61c.38.78.72,1.58,1.15,2.34l1.32-.7C472.73,333.1,472.4,332.32,472,331.57Z" transform="translate(-167.35 -70.11)"/><path class="cls-3" d="M470.41,327.37l-1.42.5c.27.81.59,1.61.89,2.42l1.4-.55C471,329,470.67,328.17,470.41,327.37Z" transform="translate(-167.35 -70.11)"/><path class="cls-2" d="M470,343.52a32.21,32.21,0,0,0,6.56,5.94,35.06,35.06,0,0,0,7.7,4l5.24-14.06a20.13,20.13,0,0,1-4.42-2.29,17.09,17.09,0,0,1-3.57-3.22Z" transform="translate(-167.35 -70.11)"/><path class="cls-3" d="M483.87,344.52l-.7,1.33c.78.41,1.57.78,2.38,1.11l.58-1.38C485.36,345.26,484.6,344.91,483.87,344.52Z" transform="translate(-167.35 -70.11)"/><path class="cls-3" d="M480.1,342.12l-.91,1.2c.71.52,1.41,1,2.17,1.49l.79-1.28A23.31,23.31,0,0,1,480.1,342.12Z" transform="translate(-167.35 -70.11)"/><path class="cls-3" d="M476.81,339.13l-1.11,1c.58.67,1.24,1.26,1.88,1.87l1-1.13C478,340.31,477.35,339.76,476.81,339.13Z" transform="translate(-167.35 -70.11)"/><path class="cls-2" d="M484.24,353.47a52.54,52.54,0,0,0,15.62,2.87l.88-15a38.19,38.19,0,0,1-11.26-2Z" transform="translate(-167.35 -70.11)"/><path class="cls-3" d="M496.81,348.05l-.15,1.5c.85.08,1.71.15,2.56.21l.11-1.5C498.48,348.21,497.65,348.13,496.81,348.05Z" transform="translate(-167.35 -70.11)"/><path class="cls-3" d="M492.34,347.41l-.28,1.47c.85.17,1.7.3,2.56.42l.2-1.48C494,347.7,493.16,347.57,492.34,347.41Z" transform="translate(-167.35 -70.11)"/><path class="cls-3" d="M488,346.28l-.47,1.42c.82.29,1.67.51,2.51.74l.36-1.46C489.61,346.76,488.8,346.56,488,346.28Z" transform="translate(-167.35 -70.11)"/><path class="cls-2" d="M499.86,356.34c4.84.27,9.27.29,13,.83L515,342.32c-5.28-.73-10-.69-14.29-.95Z" transform="translate(-167.35 -70.11)"/><path class="cls-3" d="M510.48,348.83l-.12,1.5c.83.06,1.66.14,2.49.25l.18-1.49C512.18,349,511.33,348.9,510.48,348.83Z" transform="translate(-167.35 -70.11)"/><polygon class="cls-3" points="338.55 278.46 338.49 279.96 341.01 280.08 341.1 278.59 338.55 278.46"/><polygon class="cls-3" points="334.01 278.27 333.94 279.77 336.49 279.88 336.55 278.38 334.01 278.27"/><path class="cls-2" d="M512.91,357.17a18.19,18.19,0,0,1,9,3.42l9.28-11.78a29.6,29.6,0,0,0-8-4.46,38.43,38.43,0,0,0-8.21-2Z" transform="translate(-167.35 -70.11)"/><path class="cls-3" d="M523.86,352.28l-.72,1.31a11,11,0,0,1,1,.62,11.78,11.78,0,0,1,1,.67l.87-1.22a12.66,12.66,0,0,0-1.08-.72A9.67,9.67,0,0,0,523.86,352.28Z" transform="translate(-167.35 -70.11)"/><path class="cls-3" d="M519.58,350.45l-.46,1.43a12,12,0,0,1,1.15.4c.38.15.77.28,1.13.46l.61-1.38c-.4-.18-.8-.33-1.21-.48S520,350.57,519.58,350.45Z" transform="translate(-167.35 -70.11)"/><path class="cls-3" d="M515.08,349.38l-.25,1.48c.82.13,1.63.3,2.43.5l.35-1.46C516.78,349.69,515.93,349.52,515.08,349.38Z" transform="translate(-167.35 -70.11)"/><path class="cls-2" d="M521.93,360.59a17.34,17.34,0,0,1,5.4,7.78l14.06-5.22a32.32,32.32,0,0,0-10.18-14.34Z" transform="translate(-167.35 -70.11)"/><path class="cls-3" d="M533.39,362.27l-1.33.68c.36.74.73,1.47,1,2.24l1.39-.57C534.16,363.81,533.77,363,533.39,362.27Z" transform="translate(-167.35 -70.11)"/><path class="cls-3" d="M530.9,358.34l-1.19.91a23.32,23.32,0,0,1,1.39,2l1.27-.79A22.51,22.51,0,0,0,530.9,358.34Z" transform="translate(-167.35 -70.11)"/><path class="cls-3" d="M527.71,355l-1,1.14c.63.51,1.17,1.11,1.75,1.68l1.11-1C529,356.16,528.39,355.51,527.71,355Z" transform="translate(-167.35 -70.11)"/><path class="cls-2" d="M527.33,368.37a36.7,36.7,0,0,1,2,11.1l15-.57a51.3,51.3,0,0,0-2.89-15.75Z" transform="translate(-167.35 -70.11)"/><path class="cls-3" d="M537.07,375.59l-1.49.15c.09.83.14,1.66.19,2.49l1.5-.08C537.22,377.29,537.16,376.44,537.07,375.59Z" transform="translate(-167.35 -70.11)"/><path class="cls-3" d="M536.38,371l-1.47.3c.18.8.3,1.63.43,2.45l1.48-.22C536.69,372.72,536.56,371.87,536.38,371Z" transform="translate(-167.35 -70.11)"/><path class="cls-3" d="M535.2,366.57l-1.42.48c.27.78.49,1.57.7,2.37l1.45-.37C535.71,368.22,535.48,367.39,535.2,366.57Z" transform="translate(-167.35 -70.11)"/></g><g id="Food_copy_11" data-name="Food copy 11"><polyline points="360.45 327.04 351.47 309.08 369.44 309.08"/></g><g id="Pee_copy_12-2" data-name="Pee copy 12"><circle class="cls-5" cx="426.46" cy="14.4" r="8.31"/><circle class="cls-5" cx="426.46" cy="14.4" r="8.31"/></g><g id="Me_copy_11" data-name="Me copy 11"><line class="cls-5" x1="49.25" y1="424.19" x2="0.35" y2="375.3"/><line class="cls-5" x1="49.25" y1="375.3" x2="0.35" y2="424.19"/></g></g></svg>