<svg id="drawings" xmlns="http://www.w3.org/2000/svg" viewBox="0 0 454.6 424.54"><defs><style>.cls-1,.cls-2,.cls-5{fill:none;}.cls-1,.cls-5{stroke:#000;}.cls-1{stroke-linecap:round;stroke-linejoin:round;}.cls-3,.cls-4{fill:#231f20;}.cls-4{fill-rule:evenodd;}.cls-5{stroke-miterlimit:10;}</style></defs><g id="_9_12" data-name="9/12"><g id="Litter_Box_copy_12" data-name="Litter Box copy 12"><rect class="cls-1" x="406.16" y="0.5" width="47.94" height="61.51"/></g><g id="Food_copy_12" data-name="Food copy 12"><polyline points="254.49 406.83 245.51 388.87 263.48 388.87"/><polygon class="cls-2" points="237.56 135.56 244.1 134.88 250.65 134.27 249.36 119.33 242.62 119.95 235.91 120.65 237.56 135.56"/><rect class="cls-3" x="413.92" y="196.58" width="2.47" height="1.5" transform="translate(-183.83 -30.85) rotate(-5.31)"/><polygon class="cls-4" points="242.08 127.01 242.23 128.5 244.69 128.26 244.55 126.77 242.08 127.01"/><rect class="cls-3" x="405.11" y="197.45" width="2.47" height="1.5" transform="translate(-186.42 -24.95) rotate(-6.22)"/><polygon class="cls-2" points="250.65 134.27 257.19 133.75 263.72 133.33 262.88 118.36 256.11 118.79 249.36 119.33 250.65 134.27"/><polygon class="cls-4" points="259.81 125.53 259.91 127.03 262.37 126.87 262.29 125.37 259.81 125.53"/><path class="cls-4" d="M422.73,196l.11,1.49c.82-.06,1.64-.13,2.47-.17l-.11-1.5C424.38,195.82,423.55,195.88,422.73,196Z" transform="translate(-167.35 -70.11)"/><polygon class="cls-4" points="250.96 126.18 251.09 127.68 253.55 127.48 253.43 125.99 250.96 126.18"/><path class="cls-2" d="M431.07,203.44c4.35-.22,8.7-.42,13-.48l-.26-15c-4.56.07-9.09.27-13.62.51Z" transform="translate(-167.35 -70.11)"/><path class="cls-4" d="M440.5,195l0,1.49c.83,0,1.65,0,2.47-.05l0-1.5C442.15,195,441.33,195,440.5,195Z" transform="translate(-167.35 -70.11)"/><polygon class="cls-4" points="268.7 125.04 268.77 126.54 271.23 126.46 271.18 124.96 268.7 125.04"/><polygon class="cls-4" points="264.28 125.26 264.36 126.76 266.82 126.64 266.75 125.14 264.28 125.26"/><path class="cls-2" d="M444.11,203c4.33-.1,8.65-.05,12.94.08l.51-15c-4.59-.14-9.16-.19-13.71-.09Z" transform="translate(-167.35 -70.11)"/><polygon class="cls-4" points="286.5 124.82 286.48 126.32 288.94 126.37 288.99 124.87 286.5 124.82"/><polygon class="cls-4" points="282.06 124.77 282.06 126.27 284.52 126.28 284.54 124.78 282.06 124.77"/><path class="cls-4" d="M445,194.91l0,1.5c.82,0,1.64,0,2.47,0v-1.5C446.63,194.88,445.8,194.9,445,194.91Z" transform="translate(-167.35 -70.11)"/><path class="cls-2" d="M457.05,203q6.43.21,12.74.89L471.42,189q-7-.75-13.86-1Z" transform="translate(-167.35 -70.11)"/><path class="cls-4" d="M467.21,195.61l-.13,1.49c.81.08,1.63.14,2.45.23l.15-1.5C468.86,195.74,468,195.68,467.21,195.61Z" transform="translate(-167.35 -70.11)"/><polygon class="cls-4" points="295.41 125.17 295.32 126.67 297.78 126.82 297.89 125.33 295.41 125.17"/><polygon class="cls-4" points="290.98 124.95 290.93 126.45 293.39 126.55 293.46 125.05 290.98 124.95"/><path class="cls-2" d="M469.79,203.93a105.18,105.18,0,0,1,12.28,2l3.37-14.61a117.62,117.62,0,0,0-14-2.3Z" transform="translate(-167.35 -70.11)"/><polygon class="cls-4" points="313.12 127.28 312.83 128.75 315.23 129.24 315.56 127.78 313.12 127.28"/><path class="cls-4" d="M476.07,196.64l-.22,1.48c.81.11,1.61.27,2.42.4l.26-1.48C477.71,196.91,476.9,196.74,476.07,196.64Z" transform="translate(-167.35 -70.11)"/><path class="cls-4" d="M471.67,196.06l-.17,1.49c.81.09,1.62.18,2.43.3l.2-1.48C473.32,196.24,472.49,196.15,471.67,196.06Z" transform="translate(-167.35 -70.11)"/><path class="cls-2" d="M482.07,205.93a56.79,56.79,0,0,1,11.11,3.68l6.4-13.57a70.53,70.53,0,0,0-14.14-4.72Z" transform="translate(-167.35 -70.11)"/><path class="cls-4" d="M493.39,201l-.54,1.4c.76.28,1.49.62,2.24.93l.61-1.37C494.93,201.61,494.17,201.26,493.39,201Z" transform="translate(-167.35 -70.11)"/><polygon class="cls-4" points="321.81 129.4 321.37 130.83 323.69 131.59 324.18 130.17 321.81 129.4"/><path class="cls-4" d="M484.86,198.35l-.35,1.45c.79.19,1.58.39,2.36.62l.4-1.45C486.48,198.74,485.67,198.53,484.86,198.35Z" transform="translate(-167.35 -70.11)"/><path class="cls-2" d="M493.18,209.61a23.48,23.48,0,0,1,8.11,5.84l11.52-9.62A38.43,38.43,0,0,0,499.58,196Z" transform="translate(-167.35 -70.11)"/><polygon class="cls-4" points="337.65 137.65 336.65 138.77 337.52 139.58 338.33 140.44 339.44 139.43 338.57 138.51 337.65 137.65"/><path class="cls-4" d="M501.42,205l-.82,1.25c.66.44,1.32.91,1.95,1.39l.92-1.18C502.8,206,502.12,205.48,501.42,205Z" transform="translate(-167.35 -70.11)"/><path class="cls-4" d="M497.53,202.79l-.67,1.35c.73.33,1.41.76,2.12,1.13l.76-1.29C499,203.58,498.29,203.14,497.53,202.79Z" transform="translate(-167.35 -70.11)"/><path class="cls-2" d="M501.29,215.45a9.28,9.28,0,0,1,.68.87,7.32,7.32,0,0,1,.59.9,9.45,9.45,0,0,1,.91,1.87,3.42,3.42,0,0,1,.32.91c.07.29.18.58.24.88s.06.61.11.92a8.51,8.51,0,0,1,0,1l15,.05a20,20,0,0,0-.08-2.31c-.09-.8-.19-1.6-.3-2.39s-.38-1.57-.58-2.35a15,15,0,0,0-.77-2.23,27.58,27.58,0,0,0-4.62-7.76Z" transform="translate(-167.35 -70.11)"/><path class="cls-4" d="M511.91,219.3l-1.48.28c.08.78.24,1.54.26,2.32l1.49-.07C512.16,221,512,220.14,511.91,219.3Z" transform="translate(-167.35 -70.11)"/><path class="cls-4" d="M510.47,215l-1.36.64c.28.73.62,1.44.85,2.18l1.43-.45C511.14,216.53,510.77,215.76,510.47,215Z" transform="translate(-167.35 -70.11)"/><path class="cls-4" d="M508.11,211.1l-1.19.91a23,23,0,0,1,1.31,2l1.29-.76A22.78,22.78,0,0,0,508.11,211.1Z" transform="translate(-167.35 -70.11)"/><path class="cls-2" d="M504.16,222.82v.52l-.06.59c0,.41-.05.79-.11,1.22-.17.91-.26,1.76-.51,2.77l-.31,1.47-.37,1.54-.79,3.18,14.55,3.64.82-3.3.4-1.69.39-1.79c.27-1.15.46-2.52.68-3.79.09-.67.14-1.4.21-2.1l.09-1.07v-1.14Z" transform="translate(-167.35 -70.11)"/><polygon class="cls-4" points="343.29 162.58 341.83 162.23 341.24 164.63 342.7 164.99 343.29 162.58"/><path class="cls-4" d="M511.61,228.33l-1.48-.27c-.15.79-.33,1.59-.5,2.39l1.46.32C511.26,230,511.45,229.15,511.61,228.33Z" transform="translate(-167.35 -70.11)"/><path class="cls-4" d="M512.18,223.88l-1.5-.08c-.08.79-.12,1.58-.24,2.38l1.49.21C512.05,225.56,512.1,224.71,512.18,223.88Z" transform="translate(-167.35 -70.11)"/><path class="cls-2" d="M502,234.11c-1.09,4.31-2.17,8.82-3.08,13.35l14.71,2.92c.85-4.19,1.83-8.33,2.92-12.63Z" transform="translate(-167.35 -70.11)"/><polygon class="cls-4" points="340.17 175.53 338.71 175.22 338.19 177.65 339.66 177.95 340.17 175.53"/><polygon class="cls-4" points="341.16 171.22 339.7 170.87 339.13 173.29 340.6 173.62 341.16 171.22"/><polygon class="cls-4" points="342.21 166.93 340.75 166.56 340.16 168.97 341.62 169.32 342.21 166.93"/><path class="cls-2" d="M498.94,247.46c-.86,4.54-1.66,9.1-2.19,13.68L511.62,263c.5-4.25,1.24-8.45,2-12.64Z" transform="translate(-167.35 -70.11)"/><path class="cls-4" d="M505.16,258.73l-1.49-.22c-.12.82-.21,1.64-.32,2.47l1.49.19C504.94,260.36,505,259.54,505.16,258.73Z" transform="translate(-167.35 -70.11)"/><polygon class="cls-4" points="338.49 184.24 337.01 183.99 336.63 186.45 338.11 186.68 338.49 184.24"/><polygon class="cls-4" points="339.28 179.9 337.81 179.62 337.35 182.06 338.83 182.33 339.28 179.9"/><path class="cls-2" d="M496.75,261.14c-.32,2.28-.55,4.57-.76,6.86s-.42,4.52-.59,6.77l15,1.16c.16-2.19.35-4.41.56-6.52s.41-4.27.7-6.39Z" transform="translate(-167.35 -70.11)"/><rect class="cls-3" x="501.6" y="272.36" width="2.48" height="1.5" transform="translate(22.25 681.87) rotate(-85.32)"/><polygon class="cls-4" points="336.75 197.42 335.26 197.27 335.02 199.75 336.51 199.88 336.75 197.42"/><path class="cls-4" d="M504.58,263.15,503.1,263c-.1.82-.23,1.64-.3,2.46l1.49.17C504.36,264.78,504.49,264,504.58,263.15Z" transform="translate(-167.35 -70.11)"/><path class="cls-2" d="M495.4,274.77c-.35,4.49-.64,9.05-.79,13.64l15,.5c.14-4.3.41-8.61.76-13Z" transform="translate(-167.35 -70.11)"/><polygon class="cls-4" points="335.42 215.11 333.92 215.04 333.82 217.52 335.32 217.58 335.42 215.11"/><polygon class="cls-4" points="335.67 210.69 334.17 210.59 334.03 213.07 335.52 213.16 335.67 210.69"/><polygon class="cls-4" points="335.98 206.28 334.48 206.17 334.3 208.64 335.8 208.75 335.98 206.28"/><path class="cls-2" d="M494.61,288.41c-.16,4.58-.16,9.19,0,13.81l15-.46c-.12-4.27-.12-8.55,0-12.85Z" transform="translate(-167.35 -70.11)"/><polygon class="cls-4" points="335.18 228.41 333.68 228.43 333.72 230.92 335.22 230.88 335.18 228.41"/><polygon class="cls-4" points="335.17 223.98 333.67 223.97 333.65 226.46 335.15 226.45 335.17 223.98"/><polygon class="cls-4" points="335.25 219.57 333.75 219.53 333.69 222.01 335.19 222.04 335.25 219.57"/><path class="cls-2" d="M494.58,302.22c.12,4.62.48,9.25.94,13.87l14.91-1.6c-.41-4.23-.75-8.46-.86-12.73Z" transform="translate(-167.35 -70.11)"/><polygon class="cls-4" points="335.83 241.69 334.33 241.81 334.56 244.29 336.05 244.14 335.83 241.69"/><polygon class="cls-4" points="335.5 237.27 334.01 237.36 334.16 239.85 335.66 239.74 335.5 237.27"/><polygon class="cls-4" points="335.29 232.87 333.79 232.92 333.88 235.41 335.38 235.33 335.29 232.87"/><path class="cls-2" d="M495.52,316.09c.52,4.61,1.17,9.23,2.08,13.81L512.32,327c-.82-4.14-1.41-8.34-1.89-12.55Z" transform="translate(-167.35 -70.11)"/><polygon class="cls-4" points="337.5 254.87 336.02 255.12 336.47 257.57 337.95 257.29 337.5 254.87"/><polygon class="cls-4" points="336.82 250.49 335.34 250.7 335.71 253.16 337.19 252.93 336.82 250.49"/><polygon class="cls-4" points="336.27 246.12 334.78 246.29 335.07 248.76 336.56 248.57 336.27 246.12"/><path class="cls-2" d="M497.6,329.9c.41,2.29,1,4.56,1.47,6.85s1.13,4.53,1.81,6.78l14.4-4.21c-.61-2-1.08-4.06-1.63-6.09s-1-4.11-1.33-6.19Z" transform="translate(-167.35 -70.11)"/><path class="cls-4" d="M507.68,338l-1.45.39c.22.8.41,1.61.64,2.4l1.44-.41C508.08,339.55,507.89,338.75,507.68,338Z" transform="translate(-167.35 -70.11)"/><path class="cls-4" d="M506.61,333.66l-1.47.34c.17.82.37,1.62.59,2.42l1.46-.36C507,335.27,506.77,334.47,506.61,333.66Z" transform="translate(-167.35 -70.11)"/><path class="cls-4" d="M505.66,329.36l-1.47.29c.16.82.35,1.63.53,2.44l1.46-.32C506,331,505.82,330.16,505.66,329.36Z" transform="translate(-167.35 -70.11)"/><path class="cls-2" d="M500.88,343.53a137.23,137.23,0,0,0,4.63,13.32l13.89-5.67a120.34,120.34,0,0,1-4.12-11.86Z" transform="translate(-167.35 -70.11)"/><polygon class="cls-4" points="344.34 280.49 342.93 281.02 343.83 283.35 345.23 282.79 344.34 280.49"/><path class="cls-4" d="M510.21,346.44l-1.42.48c.25.79.55,1.57.82,2.35l1.41-.5C510.75,348,510.45,347.23,510.21,346.44Z" transform="translate(-167.35 -70.11)"/><path class="cls-4" d="M508.88,342.24l-1.44.43c.23.8.47,1.6.74,2.38l1.43-.45C509.34,343.82,509.11,343,508.88,342.24Z" transform="translate(-167.35 -70.11)"/><path class="cls-2" d="M505.51,356.85a134.51,134.51,0,0,0,6.06,12.78l13.19-7.15a116.58,116.58,0,0,1-5.36-11.3Z" transform="translate(-167.35 -70.11)"/><path class="cls-4" d="M517,362.75l-1.33.68c.37.74.75,1.48,1.14,2.21l1.33-.7C517.77,364.22,517.41,363.48,517,362.75Z" transform="translate(-167.35 -70.11)"/><polygon class="cls-4" points="347.75 288.66 346.39 289.29 347.46 291.54 348.81 290.89 347.75 288.66"/><path class="cls-4" d="M513.34,354.74l-1.39.58c.32.77.64,1.54,1,2.29l1.37-.61C514,356.26,513.65,355.5,513.34,354.74Z" transform="translate(-167.35 -70.11)"/><path class="cls-2" d="M511.57,369.63c2.23,4.14,4.69,8.1,7.11,11.9l12.64-8.07c-2.35-3.69-4.58-7.28-6.56-11Z" transform="translate(-167.35 -70.11)"/><polygon class="cls-4" points="356.25 304.18 354.98 304.98 356.3 307.08 357.57 306.27 356.25 304.18"/><polygon class="cls-4" points="353.95 300.4 352.66 301.16 353.94 303.3 355.22 302.51 353.95 300.4"/><polygon class="cls-4" points="351.76 296.57 350.44 297.3 351.67 299.47 352.97 298.72 351.76 296.57"/><path class="cls-2" d="M518.68,381.53c2.41,3.79,4.83,7.42,6.56,10.79l13.34-6.85c-2.35-4.53-4.91-8.29-7.26-12Z" transform="translate(-167.35 -70.11)"/><path class="cls-4" d="M530.7,385.6l-1.3.76c.4.71.82,1.41,1.19,2.12l1.33-.7C531.53,387,531.1,386.32,530.7,385.6Z" transform="translate(-167.35 -70.11)"/><polygon class="cls-4" points="361.02 311.69 359.75 312.49 361.05 314.57 362.33 313.79 361.02 311.69"/><rect class="cls-3" x="525.28" y="378.27" width="1.5" height="2.47" transform="translate(-288.95 273.21) rotate(-32.61)"/><path class="cls-2" d="M525.24,392.32a20.4,20.4,0,0,1,2.67,9.36l15-.1a31.36,31.36,0,0,0-1.27-8.62,43.07,43.07,0,0,0-3-7.49Z" transform="translate(-167.35 -70.11)"/><path class="cls-4" d="M535.65,398.1l-1.48.23a23.31,23.31,0,0,1,.25,2.36l1.49-.07A23.64,23.64,0,0,0,535.65,398.1Z" transform="translate(-167.35 -70.11)"/><path class="cls-4" d="M534.57,393.71l-1.42.48c.23.76.49,1.52.65,2.29l1.46-.34C535.09,395.31,534.81,394.51,534.57,393.71Z" transform="translate(-167.35 -70.11)"/><path class="cls-4" d="M532.83,389.57l-1.34.66c.36.72.67,1.46,1,2.2l1.39-.57C533.54,391.09,533.21,390.32,532.83,389.57Z" transform="translate(-167.35 -70.11)"/><path class="cls-2" d="M527.91,401.68a22.21,22.21,0,0,1-2.34,9.52l13.5,6.55.46-.91.38-1,.76-1.92a15.09,15.09,0,0,0,.64-2l.56-2a34,34,0,0,0,1-8.42Z" transform="translate(-167.35 -70.11)"/><polygon class="cls-4" points="366.81 341.36 365.4 340.86 364.52 343.09 365.89 343.7 366.81 341.36"/><path class="cls-4" d="M535.38,407.13l-1.47-.3a23.23,23.23,0,0,1-.6,2.32l1.45.42C535,408.75,535.25,408,535.38,407.13Z" transform="translate(-167.35 -70.11)"/><polygon class="cls-4" points="368.57 332.55 367.07 332.49 367.01 333.68 366.87 334.86 368.35 335.06 368.5 333.81 368.57 332.55"/><path class="cls-2" d="M525.57,411.2a32,32,0,0,1-6.41,8.63l10.56,10.64a47,47,0,0,0,9.35-12.72Z" transform="translate(-167.35 -70.11)"/><path class="cls-4" d="M527.21,423l-1.13-1c-.54.6-1.06,1.22-1.63,1.8l1.08,1C526.11,424.23,526.65,423.6,527.21,423Z" transform="translate(-167.35 -70.11)"/><polygon class="cls-4" points="362.66 349.36 361.43 348.5 359.96 350.41 361.14 351.35 362.66 349.36"/><path class="cls-4" d="M532.33,415.62l-1.33-.69-.55,1.06c-.2.35-.43.68-.64,1l1.27.79c.22-.35.46-.7.67-1.06Z" transform="translate(-167.35 -70.11)"/><path class="cls-2" d="M519.16,419.83a72.15,72.15,0,0,1-9.32,7.59l8.57,12.3a85.19,85.19,0,0,0,11.31-9.25Z" transform="translate(-167.35 -70.11)"/><polygon class="cls-4" points="349.89 361.86 349 360.65 347.01 362.09 347.88 363.31 349.89 361.86"/><path class="cls-4" d="M520.76,429.21l-1-1.15c-.62.52-1.28,1-1.91,1.52l.92,1.18C519.46,430.24,520.13,429.75,520.76,429.21Z" transform="translate(-167.35 -70.11)"/><polygon class="cls-4" points="356.73 356.13 355.69 355.04 354.82 355.89 353.9 356.69 354.89 357.81 355.83 356.99 356.73 356.13"/><path class="cls-2" d="M509.84,427.42c-3.44,2.37-7.08,4.64-10.81,6.88l7.7,12.87c3.9-2.34,7.81-4.76,11.68-7.45Z" transform="translate(-167.35 -70.11)"/><polygon class="cls-4" points="338.77 369.28 337.98 368 335.88 369.29 336.65 370.57 338.77 369.28"/><polygon class="cls-4" points="342.54 366.91 341.72 365.65 339.65 366.98 340.44 368.25 342.54 366.91"/><polygon class="cls-4" points="346.24 364.46 345.39 363.22 343.35 364.6 344.18 365.85 346.24 364.46"/><path class="cls-2" d="M499,434.3c-3.71,2.22-7.59,4.45-11.39,6.62l7.43,13c3.92-2.24,7.75-4.44,11.66-6.78Z" transform="translate(-167.35 -70.11)"/><rect class="cls-3" x="491.94" y="445.4" width="2.47" height="1.5" transform="translate(-324.31 236.06) rotate(-29.98)"/><rect class="cls-3" x="495.78" y="443.17" width="2.47" height="1.5" transform="translate(-323.27 240.51) rotate(-30.23)"/><polygon class="cls-4" points="334.93 371.59 334.17 370.3 332.04 371.56 332.8 372.86 334.93 371.59"/><path class="cls-2" d="M487.64,440.92c-3.72,2.09-7.48,4.12-11.33,5.94l6.48,13.52c4.18-2,8.26-4.16,12.28-6.43Z" transform="translate(-167.35 -70.11)"/><polygon class="cls-4" points="315.55 382.47 314.87 381.13 312.66 382.2 313.31 383.55 315.55 382.47"/><polygon class="cls-4" points="319.5 380.42 318.79 379.09 316.61 380.23 317.29 381.56 319.5 380.42"/><polygon class="cls-4" points="323.38 378.28 322.65 376.97 320.5 378.17 321.21 379.49 323.38 378.28"/><path class="cls-2" d="M476.31,446.86c-3.85,1.84-7.76,3.56-11.73,5.11l5.5,13.95c4.31-1.68,8.54-3.54,12.71-5.54Z" transform="translate(-167.35 -70.11)"/><path class="cls-4" d="M470.74,458.14l-.57-1.38-2.28.93.55,1.39C469.22,458.78,470,458.47,470.74,458.14Z" transform="translate(-167.35 -70.11)"/><path class="cls-4" d="M474.83,456.39l-.61-1.38c-.74.35-1.5.66-2.26,1l.59,1.37C473.32,457.05,474.08,456.74,474.83,456.39Z" transform="translate(-167.35 -70.11)"/><path class="cls-4" d="M478.87,454.54l-.64-1.36c-.74.37-1.5.69-2.24,1l.62,1.37C477.36,455.23,478.12,454.9,478.87,454.54Z" transform="translate(-167.35 -70.11)"/><path class="cls-2" d="M464.58,452q-6,2.37-12.07,4.28L457,470.56q6.62-2.08,13.06-4.64Z" transform="translate(-167.35 -70.11)"/><path class="cls-4" d="M458.23,462.84l-.48-1.43c-.78.27-1.56.53-2.34.77l.46,1.43C456.66,463.37,457.44,463.11,458.23,462.84Z" transform="translate(-167.35 -70.11)"/><path class="cls-4" d="M462.43,461.37l-.51-1.41c-.77.29-1.54.57-2.32.83l.49,1.41C460.88,461.94,461.65,461.66,462.43,461.37Z" transform="translate(-167.35 -70.11)"/><path class="cls-4" d="M466.58,459.81l-.54-1.39c-.76.3-1.53.6-2.3.87l.52,1.41C465,460.42,465.81,460.12,466.58,459.81Z" transform="translate(-167.35 -70.11)"/><path class="cls-2" d="M452.51,456.25c-4.07,1.28-8.18,2.44-12.34,3.43l3.5,14.59c4.5-1.08,8.95-2.33,13.35-3.71Z" transform="translate(-167.35 -70.11)"/><polygon class="cls-4" points="278.06 396.54 277.68 395.09 275.3 395.68 275.65 397.14 278.06 396.54"/><path class="cls-4" d="M449.71,465.48,449.3,464c-.79.23-1.59.43-2.38.65l.39,1.45C448.11,465.92,448.92,465.72,449.71,465.48Z" transform="translate(-167.35 -70.11)"/><path class="cls-4" d="M454,464.21l-.44-1.43c-.78.25-1.57.48-2.36.71l.42,1.44C452.38,464.7,453.17,464.47,454,464.21Z" transform="translate(-167.35 -70.11)"/><path class="cls-2" d="M440.17,459.68q-6.23,1.5-12.56,2.57l2.5,14.79q6.83-1.17,13.56-2.77Z" transform="translate(-167.35 -70.11)"/><polygon class="cls-4" points="265.01 399.44 264.74 397.97 262.31 398.4 262.57 399.88 265.01 399.44"/><path class="cls-4" d="M436.73,468.68l-.31-1.46c-.8.16-1.6.34-2.41.49l.29,1.47C435.11,469,435.92,468.85,436.73,468.68Z" transform="translate(-167.35 -70.11)"/><polygon class="cls-4" points="273.71 397.61 273.37 396.15 270.96 396.7 271.29 398.16 273.71 397.61"/></g><g id="Pee_copy_13-2" data-name="Pee copy 13"><circle class="cls-5" cx="426.46" cy="14.4" r="8.31"/></g><g id="Me_copy_12" data-name="Me copy 12"><line class="cls-5" x1="49.25" y1="424.19" x2="0.35" y2="375.3"/><line class="cls-5" x1="49.25" y1="375.3" x2="0.35" y2="424.19"/></g></g></svg>