<svg id="drawings" xmlns="http://www.w3.org/2000/svg" viewBox="0 0 512.8 237.16"><defs><style>.cls-1,.cls-2,.cls-5{fill:none;}.cls-1,.cls-5{stroke:#000;}.cls-1{stroke-linecap:round;stroke-linejoin:round;}.cls-3,.cls-4{fill:#231f20;}.cls-3{fill-rule:evenodd;}.cls-5{stroke-miterlimit:10;}</style></defs><g id="_9_13" data-name="9/13"><g id="Litter_Box_copy_13" data-name="Litter Box copy 13"><rect class="cls-1" x="464.36" y="24.93" width="47.94" height="61.51"/></g><g id="Path_copy_13" data-name="Path copy 13"><path class="cls-2" d="M434.59,220.06c3.45,2.5,6.8,5.08,10,7.76l9.69-11.45c-3.55-3-7.18-5.78-10.86-8.45Z" transform="translate(-251.27 -207.92)"/><polygon class="cls-3" points="195.84 11.59 194.89 12.76 196.78 14.3 197.74 13.15 195.84 11.59"/><polygon class="cls-3" points="192.37 8.86 191.46 10.05 193.38 11.55 194.31 10.37 192.37 8.86"/><polygon class="cls-3" points="188.85 6.23 187.96 7.44 189.93 8.89 190.83 7.69 188.85 6.23"/><path class="cls-2" d="M444.57,227.82a85,85,0,0,1,8.72,8.38l11.26-9.91a101.74,101.74,0,0,0-10.29-9.92Z" transform="translate(-251.27 -207.92)"/><path class="cls-3" d="M457,228.36l-1.08,1c.57.57,1.11,1.17,1.66,1.76l1.11-1C458.1,229.56,457.55,229,457,228.36Z" transform="translate(-251.27 -207.92)"/><path class="cls-3" d="M453.8,225.28l-1,1.09c.59.56,1.18,1.11,1.76,1.68l1-1.07C455,226.4,454.4,225.84,453.8,225.28Z" transform="translate(-251.27 -207.92)"/><polygon class="cls-3" points="199.25 14.43 198.27 15.57 200.1 17.17 201.1 16.05 199.25 14.43"/><path class="cls-2" d="M453.29,236.2a38.31,38.31,0,0,1,3.36,4.35,16.41,16.41,0,0,1,2,4l14.37-4.3a30.77,30.77,0,0,0-3.76-7.85,52.13,52.13,0,0,0-4.68-6.1Z" transform="translate(-251.27 -207.92)"/><path class="cls-3" d="M465,239l-1.34.67a22.5,22.5,0,0,1,.93,2.15l1.41-.51A21.46,21.46,0,0,0,465,239Z" transform="translate(-251.27 -207.92)"/><path class="cls-3" d="M462.69,235.16l-1.23.86c.46.65.89,1.31,1.3,2l1.29-.76C463.62,236.53,463.17,235.83,462.69,235.16Z" transform="translate(-251.27 -207.92)"/><path class="cls-3" d="M460,231.66l-1.15,1c.53.61,1,1.24,1.52,1.86l1.19-.91C461,232.93,460.52,232.28,460,231.66Z" transform="translate(-251.27 -207.92)"/><path class="cls-2" d="M458.62,244.54a4.2,4.2,0,0,1,.19,2.31.48.48,0,0,0-.09.24c-.09,0,0,.09-.11.15s-.05.14-.26.25a2.59,2.59,0,0,1-.52.41l8.59,12.3a17.56,17.56,0,0,0,2.06-1.64,16,16,0,0,0,2-2.15,18.06,18.06,0,0,0,1.67-2.63,26.28,26.28,0,0,0,1.1-2.83,18.42,18.42,0,0,0,.64-5.65,20.79,20.79,0,0,0-.89-5.06Z" transform="translate(-251.27 -207.92)"/><path class="cls-3" d="M465.05,252.05l-1.2-.9-.71.83c-.27.25-.57.49-.85.74l.95,1.16c.32-.28.65-.55,1-.85Z" transform="translate(-251.27 -207.92)"/><path class="cls-3" d="M466.8,247.79l-1.48-.23a9.87,9.87,0,0,1-.23,1.08l-.38,1,1.37.61.46-1.22C466.63,248.63,466.75,248.22,466.8,247.79Z" transform="translate(-251.27 -207.92)"/><path class="cls-3" d="M466.58,243.24l-1.46.34a13.12,13.12,0,0,1,.31,2.24l1.49,0A13.28,13.28,0,0,0,466.58,243.24Z" transform="translate(-251.27 -207.92)"/><path class="cls-2" d="M457.83,247.9a25.25,25.25,0,0,1-4.44,2.2l-6.06,2.41,5.57,13.93,6.21-2.47a39.39,39.39,0,0,0,7.31-3.77Z" transform="translate(-251.27 -207.92)"/><rect class="cls-4" x="450.86" y="257.71" width="2.45" height="1.5" transform="translate(-314.52 -24.34) rotate(-21.49)"/><path class="cls-3" d="M457.58,257l-.59-1.37c-.74.31-1.48.63-2.24.93l.56,1.39C456.07,257.69,456.83,257.37,457.58,257Z" transform="translate(-251.27 -207.92)"/><path class="cls-3" d="M461.57,255.06l-.78-1.28c-.69.37-1.35.78-2.08,1.1l.65,1.35C460.12,255.9,460.83,255.46,461.57,255.06Z" transform="translate(-251.27 -207.92)"/><path class="cls-2" d="M447.33,252.51a128.44,128.44,0,0,0-12.72,5.79l7,13.27a114.3,114.3,0,0,1,11.31-5.13Z" transform="translate(-251.27 -207.92)"/><path class="cls-3" d="M441.39,263.87l-.66-1.35c-.74.35-1.47.74-2.2,1.11l.68,1.33C439.94,264.6,440.66,264.22,441.39,263.87Z" transform="translate(-251.27 -207.92)"/><path class="cls-3" d="M445.36,262l-.6-1.38c-.75.33-1.51.66-2.25,1l.63,1.36C443.87,262.69,444.62,262.36,445.36,262Z" transform="translate(-251.27 -207.92)"/><polygon class="cls-3" points="198.12 52.42 197.55 51.03 195.28 51.97 195.86 53.35 198.12 52.42"/><path class="cls-2" d="M434.61,258.3c-1.05.54-2.07,1.13-3.1,1.7-.53.29-1,.57-1.5.85l-1.47.86c-2,1.16-3.94,2.37-5.88,3.62l8.13,12.61q2.64-1.71,5.37-3.31l1.37-.81c.48-.28.94-.54,1.38-.77.89-.49,1.78-1,2.68-1.48Z" transform="translate(-251.27 -207.92)"/><polygon class="cls-3" points="178.63 62.34 177.85 61.07 175.76 62.38 176.56 63.64 178.63 62.34"/><polygon class="cls-3" points="182.4 60.1 181.64 58.8 179.52 60.05 180.29 61.34 182.4 60.1"/><polygon class="cls-3" points="186.2 57.96 185.49 56.64 183.33 57.84 184.07 59.14 186.2 57.96"/><path class="cls-2" d="M422.66,265.33c-3.88,2.51-7.67,5.18-11.34,8.1l9.33,11.74c3.22-2.56,6.63-5,10.14-7.23Z" transform="translate(-251.27 -207.92)"/><path class="cls-3" d="M419,277.63l-.89-1.2c-.67.49-1.31,1-2,1.5l.93,1.18C417.72,278.62,418.36,278.11,419,277.63Z" transform="translate(-251.27 -207.92)"/><polygon class="cls-3" points="171.29 67.15 170.44 65.92 168.42 67.35 169.3 68.57 171.29 67.15"/><polygon class="cls-3" points="174.91 64.71 174.09 63.45 172.04 64.82 172.88 66.06 174.91 64.71"/><path class="cls-2" d="M411.32,273.43A104.81,104.81,0,0,0,400.77,283l10.85,10.36a89.46,89.46,0,0,1,9-8.16Z" transform="translate(-251.27 -207.92)"/><path class="cls-3" d="M409,286.11,407.94,285c-.6.56-1.18,1.15-1.75,1.74l1.07,1.05C407.82,287.24,408.4,286.66,409,286.11Z" transform="translate(-251.27 -207.92)"/><path class="cls-3" d="M412.2,283.15l-1-1.13c-.62.54-1.23,1.1-1.84,1.66l1,1.1C411,284.23,411.58,283.68,412.2,283.15Z" transform="translate(-251.27 -207.92)"/><path class="cls-3" d="M415.54,280.34l-1-1.17c-.64.51-1.27,1.05-1.9,1.58l1,1.14C414.28,281.38,414.9,280.84,415.54,280.34Z" transform="translate(-251.27 -207.92)"/><path class="cls-2" d="M400.77,283a68.53,68.53,0,0,0-9.09,11.7l12.84,7.75a53.91,53.91,0,0,1,7.1-9.09Z" transform="translate(-251.27 -207.92)"/><path class="cls-3" d="M400.4,296l-1.23-.86c-.46.69-.93,1.37-1.38,2.07l1.27.81C399.49,297.31,400,296.65,400.4,296Z" transform="translate(-251.27 -207.92)"/><path class="cls-3" d="M403,292.51l-1.16-.95c-.51.66-1.05,1.29-1.54,2l1.2.9C402,293.77,402.54,293.15,403,292.51Z" transform="translate(-251.27 -207.92)"/><path class="cls-3" d="M405.9,289.24l-1.1-1c-.56.61-1.12,1.21-1.66,1.85l1.14,1C404.8,290.43,405.35,289.84,405.9,289.24Z" transform="translate(-251.27 -207.92)"/><path class="cls-2" d="M391.68,294.67a46.69,46.69,0,0,0-3.5,7,38.21,38.21,0,0,0-2.28,7.78l14.75,2.69a23.75,23.75,0,0,1,1.44-4.86,32,32,0,0,1,2.43-4.82Z" transform="translate(-251.27 -207.92)"/><path class="cls-3" d="M394.58,307.58l-1.43-.43c-.27.8-.42,1.63-.64,2.44l1.47.32C394.18,309.13,394.33,308.34,394.58,307.58Z" transform="translate(-251.27 -207.92)"/><path class="cls-3" d="M396.09,303.52l-1.37-.6c-.35.76-.63,1.55-1,2.33l1.41.51C395.48,305,395.75,304.26,396.09,303.52Z" transform="translate(-251.27 -207.92)"/><polygon class="cls-3" points="146.78 91.75 145.48 91 144.28 93.21 145.63 93.88 146.78 91.75"/><path class="cls-2" d="M385.9,309.41a36.32,36.32,0,0,0-.54,8.37c.13,1.41.29,2.85.54,4.24a36.54,36.54,0,0,0,1.06,4.06l14.28-4.58a21.54,21.54,0,0,1-.61-2.32c-.13-.77-.21-1.53-.3-2.3a21,21,0,0,1,.32-4.78Z" transform="translate(-251.27 -207.92)"/><polygon class="cls-3" points="142.49 112.46 141.01 112.74 141.6 115.21 143.04 114.8 142.49 112.46"/><path class="cls-3" d="M393.37,316.1l-1.5,0v1.27c0,.42.09.84.13,1.26l1.5-.16c0-.4-.12-.79-.13-1.19Z" transform="translate(-251.27 -207.92)"/><path class="cls-3" d="M393.64,311.82l-1.49-.22c-.16.83-.17,1.68-.26,2.52l1.49.09C393.47,313.41,393.48,312.61,393.64,311.82Z" transform="translate(-251.27 -207.92)"/><path class="cls-2" d="M387,326.08c1.72,5.25,4.2,9.4,6.05,13.07l13.35-6.84c-2.15-4.15-4.12-7.66-5.12-10.81Z" transform="translate(-251.27 -207.92)"/><rect class="cls-4" x="397.73" y="332.66" width="1.5" height="2.45" transform="matrix(0.88, -0.47, 0.47, 0.88, -360.9, 16.05)"/><path class="cls-3" d="M396.6,328.54l-1.35.65c.36.74.71,1.5,1.09,2.22l1.34-.68C397.3,330,397,329.27,396.6,328.54Z" transform="translate(-251.27 -207.92)"/><path class="cls-3" d="M394.92,324.56l-1.41.5c.24.81.61,1.56.92,2.34l1.38-.6C395.51,326.06,395.15,325.33,394.92,324.56Z" transform="translate(-251.27 -207.92)"/><path class="cls-2" d="M393,339.15a52.24,52.24,0,0,1,4.32,10.74l14.5-3.86a67.37,67.37,0,0,0-5.47-13.72Z" transform="translate(-251.27 -207.92)"/><path class="cls-3" d="M404.09,344.52l-1.42.48c.24.76.54,1.51.74,2.29l1.44-.42C404.64,346.07,404.34,345.3,404.09,344.52Z" transform="translate(-251.27 -207.92)"/><polygon class="cls-3" points="151.23 132.46 149.86 133.06 150.76 135.29 152.16 134.75 151.23 132.46"/><path class="cls-3" d="M400.61,336.39l-1.34.67c.37.72.73,1.45,1.06,2.18l1.36-.63C401.35,337.85,401,337.12,400.61,336.39Z" transform="translate(-251.27 -207.92)"/><path class="cls-2" d="M397.33,349.89a43.35,43.35,0,0,1,1.47,11.24l15-.23a59,59,0,0,0-2-14.87Z" transform="translate(-251.27 -207.92)"/><path class="cls-3" d="M406.71,357.56l-1.5.1c.09.8.06,1.61.09,2.41l1.5,0C406.77,359.2,406.8,358.38,406.71,357.56Z" transform="translate(-251.27 -207.92)"/><path class="cls-3" d="M406.21,353.15l-1.48.22c.17.79.19,1.6.29,2.39l1.49-.16C406.41,354.78,406.39,354,406.21,353.15Z" transform="translate(-251.27 -207.92)"/><polygon class="cls-3" points="154.08 140.89 152.62 141.25 152.92 142.41 153.13 143.59 154.6 143.31 154.38 142.09 154.08 140.89"/><path class="cls-2" d="M398.8,361.13a57,57,0,0,1-1,11.69l14.76,2.67a71.7,71.7,0,0,0,1.2-14.59Z" transform="translate(-251.27 -207.92)"/><path class="cls-3" d="M406.28,370.84l-1.49-.2c-.1.8-.23,1.6-.36,2.39l1.48.25C406.05,372.47,406.17,371.65,406.28,370.84Z" transform="translate(-251.27 -207.92)"/><path class="cls-3" d="M406.72,366.43l-1.5-.1c-.05.8-.12,1.61-.2,2.41l1.49.15Q406.63,367.66,406.72,366.43Z" transform="translate(-251.27 -207.92)"/><path class="cls-3" d="M406.85,362h-1.5c0,.8,0,1.61,0,2.41l1.5.06C406.84,363.66,406.89,362.84,406.85,362Z" transform="translate(-251.27 -207.92)"/><path class="cls-2" d="M397.84,372.82c-.18,1-.38,2-.6,3s-.46,2.09-.71,3c-.47,2-1,3.91-1.63,5.85l14.29,4.56c.7-2.27,1.36-4.55,1.91-6.87.31-1.18.54-2.23.8-3.38s.48-2.32.7-3.5Z" transform="translate(-251.27 -207.92)"/><polygon class="cls-3" points="152.26 175.9 150.82 175.5 150.13 177.83 151.57 178.27 152.26 175.9"/><polygon class="cls-3" points="153.36 171.62 151.9 171.29 151.31 173.64 152.76 174.01 153.36 171.62"/><path class="cls-3" d="M405.56,375.24l-1.48-.29c-.15.79-.31,1.59-.49,2.38l1.47.32C405.23,376.85,405.4,376,405.56,375.24Z" transform="translate(-251.27 -207.92)"/><path class="cls-2" d="M394.9,384.68A85,85,0,0,1,390.4,396l13.52,6.51a102.67,102.67,0,0,0,5.27-13.23Z" transform="translate(-251.27 -207.92)"/><path class="cls-3" d="M399.08,396.32l-1.38-.61c-.31.75-.67,1.47-1,2.21l1.36.64C398.39,397.81,398.75,397.07,399.08,396.32Z" transform="translate(-251.27 -207.92)"/><path class="cls-3" d="M400.75,392.22l-1.4-.53c-.29.75-.58,1.51-.9,2.25l1.39.57C400.17,393.76,400.46,393,400.75,392.22Z" transform="translate(-251.27 -207.92)"/><polygon class="cls-3" points="150.96 180.16 149.53 179.69 148.75 181.99 150.17 182.49 150.96 180.16"/><path class="cls-2" d="M390.4,396a88.06,88.06,0,0,1-6,10.6l12.52,8.26a103.62,103.62,0,0,0,7-12.35Z" transform="translate(-251.27 -207.92)"/><polygon class="cls-3" points="141.67 200.16 140.39 199.38 139.1 201.43 140.36 202.25 141.67 200.16"/><path class="cls-3" d="M395.15,404.25l-1.31-.72c-.38.71-.79,1.41-1.2,2.11l1.29.75C394.35,405.69,394.77,405,395.15,404.25Z" transform="translate(-251.27 -207.92)"/><polygon class="cls-3" points="145.92 192.43 144.58 191.77 143.48 193.93 144.81 194.63 145.92 192.43"/><path class="cls-2" d="M384.38,406.56a96.36,96.36,0,0,1-7.37,9.76l11.36,9.79a110.6,110.6,0,0,0,8.53-11.29Z" transform="translate(-251.27 -207.92)"/><path class="cls-3" d="M385.29,418.91l-1.17-.94c-.51.63-1,1.26-1.54,1.87l1.14,1C384.26,420.19,384.77,419.55,385.29,418.91Z" transform="translate(-251.27 -207.92)"/><path class="cls-3" d="M388,415.41l-1.21-.89c-.48.66-1,1.3-1.46,1.94l1.18.92C387,416.73,387.5,416.08,388,415.41Z" transform="translate(-251.27 -207.92)"/><path class="cls-3" d="M390.53,411.82l-1.24-.84c-.44.68-.93,1.33-1.39,2l1.23.86C389.59,413.17,390.08,412.51,390.53,411.82Z" transform="translate(-251.27 -207.92)"/></g><g id="Food_copy_13" data-name="Food copy 13"><polyline points="117.77 237.16 108.79 219.2 126.75 219.2"/><rect x="484.65" y="60.7" width="18.63" height="18.63"/></g><g id="Pee_copy_14-2" data-name="Pee copy 14"><circle class="cls-5" cx="484.65" cy="38.82" r="8.31"/></g><g id="Me_copy_13" data-name="Me copy 13"><line class="cls-5" x1="49.25" y1="75.5" x2="0.35" y2="26.6"/><line class="cls-5" x1="49.25" y1="26.6" x2="0.35" y2="75.5"/></g><rect x="484.65" y="60.7" width="18.63" height="18.63"/></g></svg>