<svg id="drawings" xmlns="http://www.w3.org/2000/svg" viewBox="0 0 435.11 248.06"><defs><style>.cls-1,.cls-2,.cls-3{fill:none;}.cls-1,.cls-2{stroke:#000;}.cls-1{stroke-linecap:round;stroke-linejoin:round;}.cls-2{stroke-miterlimit:10;}.cls-4,.cls-5{fill:#231f20;}.cls-4{fill-rule:evenodd;}</style></defs><g id="_9_14" data-name="9/14"><g id="Litter_Box_copy_14" data-name="Litter Box copy 14"><rect class="cls-1" x="386.68" y="35.83" width="47.94" height="61.51"/></g><g id="Food_copy_14" data-name="Food copy 14"><polyline points="40.09 248.06 31.11 230.1 49.07 230.1"/><rect x="412.08" y="40.41" width="18.63" height="18.63"/></g><g id="Pee_copy_15-2" data-name="Pee copy 15"><circle class="cls-2" cx="406.97" cy="83.44" r="8.31"/></g><g id="Me_copy_14" data-name="Me copy 14"><line class="cls-2" x1="49.25" y1="159.2" x2="0.35" y2="110.31"/><line class="cls-2" x1="49.25" y1="110.31" x2="0.35" y2="159.2"/><path class="cls-3" d="M450.56,210.69c4.07,1.85,8.12,3.72,12.13,5.69l6.56-13.49c-4.14-2-8.33-4-12.53-5.88Z" transform="translate(-328.95 -197.01)"/><polygon class="cls-4" points="134.06 10.61 133.42 11.96 135.69 13.05 136.35 11.7 134.06 10.61"/><polygon class="cls-4" points="129.96 8.67 129.33 10.03 131.61 11.1 132.25 9.75 129.96 8.67"/><polygon class="cls-4" points="125.84 6.78 125.23 8.15 127.52 9.2 128.15 7.84 125.84 6.78"/><path class="cls-3" d="M462.69,216.38c4,1.93,8,4,12,6l6.95-13.29c-4.1-2.12-8.2-4.22-12.36-6.22Z" transform="translate(-328.95 -197.01)"/><polygon class="cls-4" points="146.29 16.65 145.6 17.99 147.84 19.14 148.54 17.81 146.29 16.65"/><polygon class="cls-4" points="142.24 14.6 141.56 15.94 143.82 17.07 144.5 15.74 142.24 14.6"/><polygon class="cls-4" points="138.18 12.59 137.52 13.94 139.79 15.05 140.46 13.71 138.18 12.59"/><path class="cls-3" d="M474.66,222.4c3.95,2.09,7.89,4.19,11.78,6.39l7.34-13.08c-4-2.27-8.09-4.44-12.17-6.6Z" transform="translate(-328.95 -197.01)"/><polygon class="cls-4" points="158.33 23.05 157.6 24.36 159.81 25.59 160.54 24.28 158.33 23.05"/><polygon class="cls-4" points="154.34 20.88 153.63 22.2 155.85 23.41 156.56 22.09 154.34 20.88"/><polygon class="cls-4" points="150.34 18.76 149.65 20.09 151.88 21.27 152.58 19.94 150.34 18.76"/><path class="cls-3" d="M486.44,228.79c3.89,2.19,7.76,4.42,11.58,6.73l7.73-12.85q-5.92-3.58-12-7Z" transform="translate(-328.95 -197.01)"/><polygon class="cls-4" points="170.17 29.81 169.41 31.1 171.57 32.4 172.34 31.11 170.17 29.81"/><polygon class="cls-4" points="166.25 27.52 165.5 28.82 167.68 30.09 168.44 28.8 166.25 27.52"/><polygon class="cls-4" points="162.32 25.28 161.58 26.59 163.78 27.84 164.52 26.53 162.32 25.28"/><path class="cls-3" d="M498,235.52q5.75,3.45,11.37,7.07L517.51,230q-5.82-3.75-11.76-7.31Z" transform="translate(-328.95 -197.01)"/><polygon class="cls-4" points="181.81 36.93 181 38.2 183.13 39.55 183.94 38.28 181.81 36.93"/><polygon class="cls-4" points="177.96 34.52 177.17 35.79 179.31 37.13 180.1 35.86 177.96 34.52"/><polygon class="cls-4" points="174.1 32.16 173.32 33.44 175.47 34.76 176.26 33.48 174.1 32.16"/><polygon class="cls-3" points="180.44 45.58 186.05 49.25 191.7 53.02 200.04 40.55 194.35 36.76 188.56 32.97 180.44 45.58"/><rect class="cls-5" x="522.06" y="241.45" width="1.5" height="2.53" transform="translate(-298.09 346.08) rotate(-56.31)"/><polygon class="cls-4" points="189.44 41.87 188.62 43.12 190.72 44.52 191.55 43.27 189.44 41.87"/><polygon class="cls-4" points="185.66 39.39 184.84 40.65 186.96 42.03 187.78 40.77 185.66 39.39"/><path class="cls-3" d="M520.65,250c3.75,2.52,7.51,5,11.19,7.58l8.51-12.35c-3.78-2.62-7.57-5.15-11.36-7.7Z" transform="translate(-328.95 -197.01)"/><rect class="cls-5" x="533.35" y="249.06" width="1.5" height="2.53" transform="translate(-302.44 353.77) rotate(-55.73)"/><rect class="cls-5" x="529.6" y="246.52" width="1.5" height="2.53" transform="translate(-300.65 351.79) rotate(-55.99)"/><rect class="cls-5" x="525.85" y="243.99" width="1.5" height="2.53" transform="translate(-299.03 349.52) rotate(-56.21)"/><path class="cls-3" d="M531.84,257.61c1.85,1.27,3.7,2.54,5.51,3.84s3.65,2.57,5.41,3.9l8.89-12.08c-1.86-1.4-3.75-2.72-5.64-4.06s-3.77-2.66-5.66-4Z" transform="translate(-328.95 -197.01)"/><path class="cls-4" d="M544.66,256.8l-.87,1.21c.68.49,1.36,1,2,1.49l.88-1.22C546,257.78,545.35,257.28,544.66,256.8Z" transform="translate(-328.95 -197.01)"/><polygon class="cls-4" points="212.01 57.16 211.15 58.38 213.2 59.84 214.07 58.62 212.01 57.16"/><polygon class="cls-4" points="208.3 54.57 207.44 55.8 209.52 57.24 210.38 56.01 208.3 54.57"/><path class="cls-3" d="M542.76,265.35c3.59,2.63,7.08,5.31,10.46,8.09l9.52-11.59c-3.64-3-7.35-5.84-11.09-8.58Z" transform="translate(-328.95 -197.01)"/><path class="cls-4" d="M555.56,265l-.93,1.17c.65.52,1.33,1,2,1.57l.94-1.16C556.9,266,556.22,265.53,555.56,265Z" transform="translate(-328.95 -197.01)"/><polygon class="cls-4" points="223.03 65.19 222.12 66.39 224.1 67.94 225.03 66.76 223.03 65.19"/><polygon class="cls-4" points="219.4 62.49 218.51 63.69 220.53 65.19 221.44 63.99 219.4 62.49"/><path class="cls-3" d="M553.22,273.44c3.36,2.77,6.63,5.62,9.66,8.62l10.51-10.7c-3.43-3.38-7-6.51-10.65-9.51Z" transform="translate(-328.95 -197.01)"/><path class="cls-4" d="M566,273.88l-1,1.1c.63.55,1.25,1.12,1.83,1.72l1-1.08C567.2,275,566.58,274.44,566,273.88Z" transform="translate(-328.95 -197.01)"/><polygon class="cls-4" points="233.62 73.81 232.64 74.94 234.5 76.63 235.5 75.51 233.62 73.81"/><polygon class="cls-4" points="230.16 70.89 229.2 72.04 231.13 73.65 232.1 72.51 230.16 70.89"/><path class="cls-3" d="M562.88,282.06c1.51,1.51,3,3,4.4,4.59l2.11,2.34,1.93,2.45,11.83-9.22-2.3-2.9-2.43-2.72c-1.6-1.86-3.32-3.54-5-5.24Z" transform="translate(-328.95 -197.01)"/><path class="cls-4" d="M575.44,283.72l-1.14,1c.54.63,1,1.3,1.55,1.95l1.18-.93C576.5,285.05,576,284.37,575.44,283.72Z" transform="translate(-328.95 -197.01)"/><polygon class="cls-4" points="243.45 83.31 242.35 84.33 244.02 86.2 245.15 85.2 243.45 83.31"/><polygon class="cls-4" points="240.29 80.05 239.23 81.11 241 82.89 242.09 81.85 240.29 80.05"/><path class="cls-3" d="M571.32,291.44a70.63,70.63,0,0,1,6.74,10.27l13.26-7a85.14,85.14,0,0,0-8.17-12.48Z" transform="translate(-328.95 -197.01)"/><polygon class="cls-4" points="254.45 97.85 253.16 98.61 254.39 100.78 255.71 100.06 254.45 97.85"/><polygon class="cls-4" points="251.99 94 250.75 94.84 252.15 96.91 253.42 96.11 251.99 94"/><path class="cls-4" d="M578.3,287.32l-1.2.91a22.66,22.66,0,0,1,1.5,2l1.22-.87C579.36,288.64,578.82,288,578.3,287.32Z" transform="translate(-328.95 -197.01)"/><path class="cls-3" d="M578.06,301.71c.53.87.88,1.83,1.32,2.73s.89,1.82,1.26,2.76l1,2.85a22,22,0,0,1,.94,2.88L597,308.67a32,32,0,0,0-1.17-3.59l-1.3-3.55c-.47-1.17-1-2.3-1.56-3.44s-1-2.31-1.65-3.39Z" transform="translate(-328.95 -197.01)"/><path class="cls-4" d="M589.21,307.26l-1.42.5c.28.79.6,1.56.84,2.35l1.43-.44C589.81,308.85,589.49,308.07,589.21,307.26Z" transform="translate(-328.95 -197.01)"/><path class="cls-4" d="M587.57,303l-1.38.59a22,22,0,0,1,.93,2.32l1.4-.54A22.1,22.1,0,0,0,587.57,303Z" transform="translate(-328.95 -197.01)"/><polygon class="cls-4" points="256.7 101.86 255.36 102.54 256.41 104.8 257.77 104.17 256.7 101.86"/><path class="cls-3" d="M582.62,312.93c.49,2,1.14,3.91,1.48,5.87s.65,4,.84,6.05l14.93-1.41c-.23-2.48-.57-4.95-1-7.44s-1.2-4.9-1.83-7.33Z" transform="translate(-328.95 -197.01)"/><path class="cls-4" d="M592.52,320.56l-1.48.21c.12.82.21,1.65.3,2.47l1.5-.15C592.74,322.24,592.65,321.4,592.52,320.56Z" transform="translate(-328.95 -197.01)"/><path class="cls-4" d="M591.74,316.06l-1.47.31c.17.81.32,1.62.46,2.44l1.48-.25C592.07,317.72,591.91,316.89,591.74,316.06Z" transform="translate(-328.95 -197.01)"/><polygon class="cls-4" points="261.64 114.64 260.2 115.04 260.85 117.45 262.31 117.1 261.64 114.64"/><path class="cls-3" d="M584.94,324.85a71.38,71.38,0,0,1,.09,12.32l15,1.15a87,87,0,0,0-.12-14.88Z" transform="translate(-328.95 -197.01)"/><polygon class="cls-4" points="264.29 137.22 262.79 137.17 262.67 139.67 264.17 139.77 264.29 137.22"/><path class="cls-4" d="M593.26,329.67l-1.5,0c0,.83,0,1.66,0,2.49l1.5,0C593.3,331.37,593.27,330.52,593.26,329.67Z" transform="translate(-328.95 -197.01)"/><path class="cls-4" d="M593,325.13l-1.5.12c.06.83.13,1.66.16,2.49l1.5-.07C593.16,326.82,593.08,326,593,325.13Z" transform="translate(-328.95 -197.01)"/><path class="cls-3" d="M585,337.17c-.14,2.05-.41,4.09-.73,6.11-.16,1-.38,2-.57,3l-.77,3L597.48,353c.31-1.21.64-2.41.93-3.63s.49-2.44.68-3.67c.4-2.46.73-4.93.9-7.41Z" transform="translate(-328.95 -197.01)"/><path class="cls-4" d="M591.61,347.83l-1.46-.3c-.18.81-.42,1.61-.62,2.42l1.46.35C591.19,349.48,591.44,348.66,591.61,347.83Z" transform="translate(-328.95 -197.01)"/><path class="cls-4" d="M592.41,343.34l-1.48-.22c-.14.82-.24,1.65-.41,2.46l1.48.27C592.17,345,592.28,344.18,592.41,343.34Z" transform="translate(-328.95 -197.01)"/><path class="cls-4" d="M593,338.82l-1.5-.13c-.06.83-.18,1.65-.27,2.48l1.49.18C592.77,340.51,592.9,339.67,593,338.82Z" transform="translate(-328.95 -197.01)"/><path class="cls-3" d="M583,349.27l-.77,3c-.31,1-.69,1.93-1,2.9l-1,2.89-1.28,2.8,13.63,6.26c.52-1.14,1-2.26,1.54-3.4l1.27-3.52c.41-1.17.86-2.34,1.23-3.52l1-3.62Z" transform="translate(-328.95 -197.01)"/><path class="cls-4" d="M587.61,360.94l-1.39-.57c-.31.78-.68,1.52-1,2.28l1.37.61C586.92,362.48,587.3,361.73,587.61,360.94Z" transform="translate(-328.95 -197.01)"/><polygon class="cls-4" points="260.2 159.63 258.78 159.15 257.94 161.5 259.34 162.02 260.2 159.63"/><polygon class="cls-4" points="261.52 155.28 260.07 154.88 259.44 157.29 260.87 157.74 261.52 155.28"/><path class="cls-3" d="M578.85,360.83c-.43.93-.84,1.88-1.29,2.8l-1.51,2.7c-.53.89-1,1.83-1.55,2.68l-1.72,2.59L585.2,380l2-3.1c.7-1,1.24-2.14,1.86-3.21l1.81-3.25c.55-1.11,1.05-2.25,1.57-3.37Z" transform="translate(-328.95 -197.01)"/><polygon class="cls-4" points="252.44 176.13 251.16 175.34 249.79 177.42 251.04 178.25 252.44 176.13"/><polygon class="cls-4" points="254.7 172.16 253.38 171.45 252.17 173.63 253.46 174.39 254.7 172.16"/><path class="cls-4" d="M585.72,365.13l-1.36-.65c-.36.75-.67,1.53-1.06,2.26l1.33.69C585,366.68,585.35,365.89,585.72,365.13Z" transform="translate(-328.95 -197.01)"/><path class="cls-3" d="M572.78,371.6l-.85,1.3c-.29.43-.62.84-.94,1.25l-1.88,2.49c-.6.85-1.34,1.6-2,2.41s-1.35,1.59-2.06,2.37l11.05,10.14c.82-.9,1.6-1.84,2.41-2.76s1.63-1.83,2.35-2.83l2.23-2.93c.37-.5.75-1,1.1-1.48l1-1.54Z" transform="translate(-328.95 -197.01)"/><polygon class="cls-4" points="244.34 187.16 243.19 186.18 241.56 188.08 242.68 189.08 244.34 187.16"/><path class="cls-4" d="M576.16,380.63l-1.19-.92c-.51.66-1,1.34-1.53,2l1.16.95C575.15,382,575.64,381.3,576.16,380.63Z" transform="translate(-328.95 -197.01)"/><path class="cls-4" d="M578.86,377l-1.23-.85c-.44.71-1,1.36-1.47,2l1.21.89A25.06,25.06,0,0,0,578.86,377Z" transform="translate(-328.95 -197.01)"/><polygon class="cls-3" points="236.09 184.41 233.9 186.68 232.81 187.81 231.65 188.89 229.34 191.06 226.93 193.12 236.57 204.61 239.34 202.24 242 199.75 243.33 198.5 244.6 197.19 247.14 194.55 236.09 184.41"/><polygon class="cls-4" points="234.79 196.96 233.79 195.84 231.89 197.47 232.86 198.61 234.79 196.96"/><polygon class="cls-4" points="238.12 193.84 237.07 192.77 235.24 194.48 236.26 195.58 238.12 193.84"/><polygon class="cls-4" points="241.28 190.59 240.19 189.56 238.45 191.36 239.52 192.41 241.28 190.59"/><path class="cls-3" d="M555.88,390.13a108.3,108.3,0,0,1-10.2,7.59l8.2,12.55a121,121,0,0,0,11.64-8.65Z" transform="translate(-328.95 -197.01)"/><polygon class="cls-4" points="224.06 205.44 223.2 204.21 221.13 205.62 221.96 206.87 224.06 205.44"/><path class="cls-4" d="M556.69,399.77l-.9-1.19-2,1.48.88,1.21C555.33,400.77,556,400.28,556.69,399.77Z" transform="translate(-328.95 -197.01)"/><path class="cls-4" d="M560.26,397l-1-1.15c-.64.54-1.31,1-2,1.56l.93,1.17C558.93,398,559.61,397.5,560.26,397Z" transform="translate(-328.95 -197.01)"/><path class="cls-3" d="M545.68,397.72c-1.8,1.16-3.56,2.26-5.47,3.36l-2.75,1.53c-.91.51-1.84.92-2.75,1.4l6.52,13.5c1.1-.56,2.24-1.09,3.31-1.68l3.21-1.79c2-1.16,4.11-2.46,6.13-3.77Z" transform="translate(-328.95 -197.01)"/><path class="cls-4" d="M541.37,409.62l-.71-1.32c-.73.42-1.48.76-2.23,1.14l.67,1.35C539.86,410.4,540.63,410.05,541.37,409.62Z" transform="translate(-328.95 -197.01)"/><path class="cls-4" d="M545.33,407.38l-.76-1.29c-.72.42-1.45.85-2.18,1.25l.74,1.3C543.88,408.24,544.6,407.81,545.33,407.38Z" transform="translate(-328.95 -197.01)"/><path class="cls-4" d="M549.2,405l-.81-1.26c-.71.44-1.41.9-2.13,1.33l.79,1.28C547.77,405.92,548.48,405.45,549.2,405Z" transform="translate(-328.95 -197.01)"/><path class="cls-3" d="M534.71,404a64.24,64.24,0,0,1-11.45,4.22l3.9,14.48a78.39,78.39,0,0,0,14.07-5.2Z" transform="translate(-328.95 -197.01)"/><path class="cls-4" d="M528.76,415l-.45-1.43c-.79.28-1.59.5-2.39.72l.4,1.44C527.14,415.49,528,415.26,528.76,415Z" transform="translate(-328.95 -197.01)"/><path class="cls-4" d="M533.07,413.47l-.54-1.4c-.78.29-1.55.61-2.34.87l.49,1.42C531.49,414.09,532.27,413.76,533.07,413.47Z" transform="translate(-328.95 -197.01)"/><polygon class="cls-4" points="208.31 214.68 207.68 213.32 205.4 214.32 205.98 215.71 208.31 214.68"/><path class="cls-3" d="M523.26,408.23c-4,1.07-8.26,1.88-12.59,2.61l2.42,14.8c4.62-.77,9.31-1.66,14.07-2.93Z" transform="translate(-328.95 -197.01)"/><polygon class="cls-4" points="186.5 221.14 186.24 219.67 183.76 220.1 184.01 221.58 186.5 221.14"/><polygon class="cls-4" points="190.97 220.27 190.66 218.81 188.2 219.3 188.48 220.77 190.97 220.27"/><polygon class="cls-4" points="195.4 219.25 195.02 217.79 192.59 218.37 192.92 219.83 195.4 219.25"/><path class="cls-3" d="M510.67,410.84q-6.56,1-13.27,1.93l2,14.86q6.78-.88,13.69-2Z" transform="translate(-328.95 -197.01)"/><rect class="cls-5" x="499.36" y="418.93" width="2.53" height="1.5" transform="translate(-381.71 -124.49) rotate(-7.87)"/><rect class="cls-5" x="503.85" y="418.3" width="2.53" height="1.5" transform="translate(-384.48 -119.17) rotate(-8.35)"/><polygon class="cls-4" points="181.99 221.91 181.75 220.43 179.26 220.82 179.49 222.3 181.99 221.91"/><polygon class="cls-3" points="168.45 215.75 154.98 217.51 156.91 232.39 170.45 230.62 168.45 215.75"/><rect class="cls-5" x="485.85" y="420.71" width="2.53" height="1.5" transform="translate(-378.97 -131.08) rotate(-7.37)"/><rect class="cls-5" x="490.35" y="420.12" width="2.53" height="1.5" transform="translate(-379.35 -129.75) rotate(-7.45)"/><rect class="cls-5" x="494.83" y="419.54" width="2.53" height="1.5" transform="translate(-380.19 -127.69) rotate(-7.6)"/><polygon class="cls-3" points="154.98 217.51 141.45 219.28 143.42 234.15 156.91 232.39 154.98 217.51"/><rect class="cls-5" x="472.35" y="422.46" width="2.53" height="1.5" transform="translate(-380.01 -131.76) rotate(-7.48)"/><rect class="cls-5" x="476.84" y="421.87" width="2.53" height="1.5" transform="translate(-379.47 -131.81) rotate(-7.41)"/><rect class="cls-5" x="481.32" y="421.29" width="2.53" height="1.5" transform="translate(-379.12 -131.59) rotate(-7.37)"/><polygon class="cls-3" points="141.45 219.28 127.91 221.11 129.96 235.97 143.42 234.15 141.45 219.28"/><rect class="cls-5" x="458.84" y="424.27" width="2.53" height="1.5" transform="translate(-382.24 -130.83) rotate(-7.78)"/><rect class="cls-5" x="463.34" y="423.66" width="2.53" height="1.5" transform="translate(-381.44 -131.21) rotate(-7.67)"/><rect class="cls-5" x="467.82" y="423.06" width="2.53" height="1.5" transform="translate(-380.7 -131.51) rotate(-7.57)"/><polygon class="cls-3" points="127.91 221.11 114.38 223.02 116.52 237.87 129.96 235.97 127.91 221.11"/><rect class="cls-5" x="445.35" y="426.16" width="2.53" height="1.5" transform="matrix(0.99, -0.14, 0.14, 0.99, -384.7, -129.76)"/><rect class="cls-5" x="449.84" y="425.53" width="2.53" height="1.5" transform="translate(-383.88 -130.09) rotate(-8)"/><rect class="cls-5" x="454.32" y="424.9" width="2.53" height="1.5" transform="translate(-383.06 -130.46) rotate(-7.89)"/><polygon class="cls-3" points="114.38 223.02 100.86 225.01 103.09 239.84 116.52 237.87 114.38 223.02"/><rect class="cls-5" x="431.87" y="428.13" width="2.53" height="1.5" transform="translate(-387.22 -128.78) rotate(-8.44)"/><rect class="cls-5" x="436.36" y="427.47" width="2.53" height="1.5" transform="translate(-386.38 -129.08) rotate(-8.33)"/><rect class="cls-5" x="440.83" y="426.82" width="2.53" height="1.5" transform="translate(-385.54 -129.41) rotate(-8.22)"/><polygon class="cls-3" points="100.86 225.01 87.35 227.07 89.67 241.89 103.09 239.84 100.86 225.01"/><rect class="cls-5" x="418.41" y="430.18" width="2.53" height="1.5" transform="translate(-389.79 -127.93) rotate(-8.78)"/><rect class="cls-5" x="422.89" y="429.49" width="2.53" height="1.5" transform="matrix(0.99, -0.15, 0.15, 0.99, -388.94, -128.19)"/><rect class="cls-5" x="427.36" y="428.81" width="2.53" height="1.5" transform="translate(-388.08 -128.47) rotate(-8.56)"/><polygon class="cls-3" points="87.35 227.07 73.86 229.22 76.26 244.02 89.67 241.89 87.35 227.07"/><rect class="cls-5" x="404.95" y="432.3" width="2.53" height="1.5" transform="translate(-392.45 -127.16) rotate(-9.12)"/><rect class="cls-5" x="409.43" y="431.59" width="2.53" height="1.5" transform="translate(-391.56 -127.39) rotate(-9.01)"/><rect class="cls-5" x="413.89" y="430.88" width="2.53" height="1.5" transform="translate(-390.68 -127.65) rotate(-8.89)"/><polygon class="cls-3" points="73.86 229.22 60.37 231.45 62.87 246.24 76.26 244.02 73.86 229.22"/><rect class="cls-5" x="391.51" y="434.51" width="2.53" height="1.5" transform="translate(-395.24 -126.43) rotate(-9.47)"/><rect class="cls-5" x="395.98" y="433.77" width="2.53" height="1.5" transform="translate(-394.3 -126.66) rotate(-9.36)"/><rect class="cls-5" x="400.44" y="433.04" width="2.53" height="1.5" transform="translate(-393.37 -126.9) rotate(-9.24)"/></g></g></svg>