<svg id="drawings" xmlns="http://www.w3.org/2000/svg" viewBox="0 0 384.92 312.15"><defs><style>.cls-1,.cls-2,.cls-4{fill:none;}.cls-1,.cls-4{stroke:#000;}.cls-1{stroke-linecap:round;stroke-linejoin:round;}.cls-3{fill:#231f20;fill-rule:evenodd;}.cls-4{stroke-miterlimit:10;}</style></defs><g id="_9_4" data-name="9/4"><g id="Litter_Box_copy_5" data-name="Litter Box copy 5"><rect class="cls-1" x="96.76" y="130.63" width="47.94" height="61.51"/><rect class="cls-1" x="336.49" y="176.09" width="47.94" height="61.51"/></g><g id="Path_copy_5" data-name="Path copy 5"><path class="cls-2" d="M465.64,215.33a58.5,58.5,0,0,0-1.44-15.25l-14.57,3.55a38.23,38.23,0,0,1,.86,5.46,55.78,55.78,0,0,1,.16,5.8Z" transform="translate(-167.35 -182.51)"/><path class="cls-3" d="M457.05,205.33l1.48-.22c-.11-.84-.28-1.67-.45-2.5l-1.47.32C456.78,203.73,456.94,204.52,457.05,205.33Z" transform="translate(-167.35 -182.51)"/><path class="cls-3" d="M457.52,209.71l1.49-.1c0-.84-.11-1.68-.21-2.51l-1.49.16C457.41,208.07,457.47,208.89,457.52,209.71Z" transform="translate(-167.35 -182.51)"/><path class="cls-3" d="M457.62,214.09l1.5,0c0-.84,0-1.68,0-2.52l-1.5,0C457.64,212.46,457.64,213.27,457.62,214.09Z" transform="translate(-167.35 -182.51)"/><path class="cls-2" d="M464.2,200.08a33.68,33.68,0,0,0-3-8,22.45,22.45,0,0,0-2.88-4.16,16.25,16.25,0,0,0-4.86-3.83l-6.68,13.44a6.63,6.63,0,0,1,1.2,1.65,18.76,18.76,0,0,1,1.61,4.48Z" transform="translate(-167.35 -182.51)"/><path class="cls-3" d="M452.43,193.3l1.13-1a10.36,10.36,0,0,0-2-1.83l-.84,1.24A8.85,8.85,0,0,1,452.43,193.3Z" transform="translate(-167.35 -182.51)"/><path class="cls-3" d="M454.69,196.93l1.36-.63c-.19-.39-.36-.78-.57-1.16l-.66-1.14-1.26.81.6,1C454.35,196.2,454.51,196.57,454.69,196.93Z" transform="translate(-167.35 -182.51)"/><path class="cls-3" d="M456.15,201l1.45-.39c-.22-.82-.49-1.63-.78-2.44l-1.4.51C455.68,199.46,455.94,200.23,456.15,201Z" transform="translate(-167.35 -182.51)"/><path class="cls-2" d="M453.5,184.06a14.9,14.9,0,0,0-6.44-1.55,18.32,18.32,0,0,0-5.56.81,27.7,27.7,0,0,0-8.17,4.2l8.87,12.1a12.83,12.83,0,0,1,3.62-1.94,4.25,4.25,0,0,1,1-.18s0,0,0,0Z" transform="translate(-167.35 -182.51)"/><path class="cls-3" d="M440.94,192.2l-.69-1.33c-.77.41-1.5.85-2.22,1.33l.84,1.24A24.09,24.09,0,0,1,440.94,192.2Z" transform="translate(-167.35 -182.51)"/><path class="cls-3" d="M445,190.73l-.29-1.48a15.51,15.51,0,0,0-2.54.76l.55,1.39A13.21,13.21,0,0,1,445,190.73Z" transform="translate(-167.35 -182.51)"/><path class="cls-3" d="M449.06,190.88l.49-1.42a8.34,8.34,0,0,0-2.76-.43v1.5A7.21,7.21,0,0,1,449.06,190.88Z" transform="translate(-167.35 -182.51)"/><path class="cls-2" d="M433.33,187.52a37.41,37.41,0,0,0-10.82,12.62l13.28,7a22.63,22.63,0,0,1,6.41-7.49Z" transform="translate(-167.35 -182.51)"/><path class="cls-3" d="M431.38,201l-1.23-.85c-.49.7-.94,1.43-1.36,2.17l1.3.74C430.49,202.32,430.92,201.63,431.38,201Z" transform="translate(-167.35 -182.51)"/><path class="cls-3" d="M434.11,197.56l-1.1-1c-.58.62-1.13,1.27-1.66,1.94l1.17.93C433,198.77,433.56,198.15,434.11,197.56Z" transform="translate(-167.35 -182.51)"/><path class="cls-3" d="M437.29,194.6l-.93-1.17c-.67.53-1.31,1.09-1.93,1.68l1,1.09C436.05,195.64,436.66,195.1,437.29,194.6Z" transform="translate(-167.35 -182.51)"/><path class="cls-2" d="M422.51,200.14a32.3,32.3,0,0,0-3,8.2,25.87,25.87,0,0,0-.26,9.35l14.81-2.36a10.91,10.91,0,0,1,.13-3.92,17.48,17.48,0,0,1,1.59-4.3Z" transform="translate(-167.35 -182.51)"/><path class="cls-3" d="M427,213.08l-1.5-.06a11.28,11.28,0,0,0,0,1.3,11.51,11.51,0,0,0,.08,1.31l1.49-.15a18,18,0,0,1-.06-2.4Z" transform="translate(-167.35 -182.51)"/><path class="cls-3" d="M427.66,208.81l-1.44-.39a24.4,24.4,0,0,0-.54,2.54l1.49.22A23.71,23.71,0,0,1,427.66,208.81Z" transform="translate(-167.35 -182.51)"/><path class="cls-3" d="M429.18,204.76l-1.36-.65c-.36.78-.7,1.57-1,2.38l1.41.51A22.06,22.06,0,0,1,429.18,204.76Z" transform="translate(-167.35 -182.51)"/><path class="cls-2" d="M419.26,217.69a24.79,24.79,0,0,0,1.25,4.64,18.35,18.35,0,0,0,.91,2.19l1.11,2a29.24,29.24,0,0,0,5.72,6.85l10-11.19a14.09,14.09,0,0,1-2.83-3.34c-.15-.29-.31-.59-.48-.88a6.14,6.14,0,0,1-.36-.89,10.89,10.89,0,0,1-.5-1.79Z" transform="translate(-167.35 -182.51)"/><path class="cls-3" d="M431.23,225l-1.15,1c.58.63,1.13,1.3,1.75,1.89l1.05-1.08C432.29,226.23,431.78,225.6,431.23,225Z" transform="translate(-167.35 -182.51)"/><path class="cls-3" d="M428.85,221.41l-1.33.68a15.63,15.63,0,0,0,1.33,2.23l1.24-.85A13.9,13.9,0,0,1,428.85,221.41Z" transform="translate(-167.35 -182.51)"/><path class="cls-3" d="M427.4,217.38l-1.46.33c.1.42.18.85.29,1.27l.46,1.23,1.4-.53-.42-1.13C427.56,218.17,427.49,217.77,427.4,217.38Z" transform="translate(-167.35 -182.51)"/><path class="cls-2" d="M428.25,233.42A36,36,0,0,0,443,241.26l3.93-14.47c-.41-.12-.82-.21-1.22-.34l-1.18-.45-.59-.22-.57-.27L442.2,225a20.34,20.34,0,0,1-4-2.75Z" transform="translate(-167.35 -182.51)"/><path class="cls-3" d="M441.83,232.44l-.55,1.4c.8.28,1.58.64,2.41.85l.44-1.44A24.16,24.16,0,0,1,441.83,232.44Z" transform="translate(-167.35 -182.51)"/><path class="cls-3" d="M437.91,230.54l-.75,1.3a19.48,19.48,0,0,0,2.26,1.19l.64-1.36A17.61,17.61,0,0,1,437.91,230.54Z" transform="translate(-167.35 -182.51)"/><path class="cls-3" d="M434.33,228.09l-.95,1.15c.66.55,1.38,1,2.06,1.54l.84-1.24C435.63,229.05,435,228.6,434.33,228.09Z" transform="translate(-167.35 -182.51)"/><path class="cls-2" d="M443,241.26a37.78,37.78,0,0,0,8.23,1.31h3.19l1.07-.1,2.14-.22c.71-.1,1.43-.27,2.14-.42l-3.19-14.65c-.38.07-.75.18-1.13.23l-1.18.12-.59.06h-1.83a23.25,23.25,0,0,1-4.92-.79Z" transform="translate(-167.35 -182.51)"/><path class="cls-3" d="M454.67,234.47l.11,1.5c.85-.11,1.72-.12,2.56-.31l-.26-1.48C456.29,234.36,455.47,234.37,454.67,234.47Z" transform="translate(-167.35 -182.51)"/><path class="cls-3" d="M450.32,234.45l-.13,1.49c.43,0,.85.09,1.28.1h1.28v-1.5h-1.21C451.12,234.53,450.72,234.48,450.32,234.45Z" transform="translate(-167.35 -182.51)"/><path class="cls-3" d="M446,233.78l-.34,1.46c.83.18,1.67.32,2.51.48l.22-1.48C447.62,234.08,446.81,234,446,233.78Z" transform="translate(-167.35 -182.51)"/><path class="cls-2" d="M459.73,241.82a30.69,30.69,0,0,0,4.23-1.2,35.2,35.2,0,0,0,4-1.84,32.35,32.35,0,0,0,6.94-5.05L464.6,222.82a17.18,17.18,0,0,1-3.81,2.78,16.81,16.81,0,0,1-2.07,1,15.58,15.58,0,0,1-2.18.61Z" transform="translate(-167.35 -182.51)"/><path class="cls-3" d="M466.78,230.06l.88,1.22c.67-.54,1.37-1,2-1.62l-1-1.12C468.07,229.09,467.41,229.55,466.78,230.06Z" transform="translate(-167.35 -182.51)"/><path class="cls-3" d="M463.05,232.28l.64,1.36c.78-.38,1.52-.81,2.27-1.23l-.78-1.28C464.47,231.53,463.77,231.93,463.05,232.28Z" transform="translate(-167.35 -182.51)"/><path class="cls-3" d="M459,233.78l.38,1.45c.83-.24,1.64-.52,2.46-.78L461.3,233C460.53,233.29,459.76,233.56,459,233.78Z" transform="translate(-167.35 -182.51)"/><path class="cls-2" d="M474.89,233.73a39.69,39.69,0,0,0,5.36-6.29,40.14,40.14,0,0,0,4-7.19l-13.84-5.77a26.5,26.5,0,0,1-2.48,4.47,24.87,24.87,0,0,1-3.29,3.87Z" transform="translate(-167.35 -182.51)"/><path class="cls-3" d="M475.3,220.21l1.31.74c.41-.75.8-1.5,1.16-2.28l-1.36-.63C476.07,218.78,475.7,219.5,475.3,220.21Z" transform="translate(-167.35 -182.51)"/><path class="cls-3" d="M472.92,223.89l1.21.89c.5-.68,1-1.38,1.44-2.1l-1.26-.8C473.88,222.57,473.41,223.23,472.92,223.89Z" transform="translate(-167.35 -182.51)"/><path class="cls-3" d="M470.09,227.19l1.07,1.06c.6-.61,1.18-1.23,1.72-1.89l-1.15-1C471.22,226,470.66,226.61,470.09,227.19Z" transform="translate(-167.35 -182.51)"/></g><g id="Food_copy_5" data-name="Food copy 5"><polyline points="290.82 126.24 281.84 108.27 299.8 108.27"/></g><g id="Me_copy_4" data-name="Me copy 4"><line class="cls-4" x1="49.25" y1="311.8" x2="0.35" y2="262.9"/><line class="cls-4" x1="49.25" y1="262.9" x2="0.35" y2="311.8"/></g></g></svg>