<svg id="drawings" xmlns="http://www.w3.org/2000/svg" viewBox="0 0 586.86 424.54"><defs><style>.cls-1,.cls-2,.cls-5{fill:none;}.cls-1,.cls-5{stroke:#000;}.cls-1{stroke-linecap:round;stroke-linejoin:round;}.cls-3,.cls-4{fill:#231f20;}.cls-3{fill-rule:evenodd;}.cls-5{stroke-miterlimit:10;}</style></defs><g id="_9_7" data-name="9/7"><g id="Litter_Box_copy_7" data-name="Litter Box copy 7"><rect class="cls-1" x="0.5" y="106.32" width="47.94" height="61.51"/><rect class="cls-1" x="499.04" y="0.5" width="47.94" height="61.51"/></g><g id="Path_copy_7" data-name="Path copy 7"><path class="cls-2" d="M431.49,167.13A50.74,50.74,0,0,0,418,175.87L428.13,187a35.33,35.33,0,0,1,9.36-6.09Z" transform="translate(-74.47 -70.11)"/><path class="cls-3" d="M426.13,179.57l-.91-1.19a22.49,22.49,0,0,0-2,1.63l1,1.13A19.69,19.69,0,0,1,426.13,179.57Z" transform="translate(-74.47 -70.11)"/><path class="cls-3" d="M429.84,177.05l-.77-1.28c-.74.46-1.48.9-2.2,1.37l.85,1.24C428.41,177.92,429.13,177.49,429.84,177.05Z" transform="translate(-74.47 -70.11)"/><polygon class="cls-3" points="359.32 104.83 358.68 103.47 356.36 104.62 357.07 105.94 359.32 104.83"/><path class="cls-2" d="M418,175.87a47.77,47.77,0,0,0-10,12.72l13.23,7.07a32.54,32.54,0,0,1,6.81-8.69Z" transform="translate(-74.47 -70.11)"/><polygon class="cls-3" points="342.49 119.26 341.24 118.43 339.86 120.64 341.17 121.38 342.49 119.26"/><polygon class="cls-3" points="345.14 115.64 343.99 114.68 342.42 116.75 343.63 117.63 345.14 115.64"/><path class="cls-3" d="M422.69,182.5l-1-1.08a21.21,21.21,0,0,0-1.81,1.86l1.1,1A21.12,21.12,0,0,1,422.69,182.5Z" transform="translate(-74.47 -70.11)"/><path class="cls-2" d="M408.09,188.59a44.19,44.19,0,0,0-5,15.58L418,206a29.25,29.25,0,0,1,3.31-10.3Z" transform="translate(-74.47 -70.11)"/><polygon class="cls-3" points="337.21 131.57 335.75 131.24 335.26 133.81 336.74 134.03 337.21 131.57"/><path class="cls-3" d="M412.94,197.39l-1.41-.51a23,23,0,0,0-.78,2.48l1.44.41A24.34,24.34,0,0,1,412.94,197.39Z" transform="translate(-74.47 -70.11)"/><path class="cls-3" d="M414.72,193.29l-1.34-.68a21,21,0,0,0-1.1,2.36l1.38.58A20.24,20.24,0,0,1,414.72,193.29Z" transform="translate(-74.47 -70.11)"/><path class="cls-2" d="M403.12,204.17a38.31,38.31,0,0,0,1.63,16.77L419,216.16a23.32,23.32,0,0,1-1-10.2Z" transform="translate(-74.47 -70.11)"/><path class="cls-3" d="M411.46,215l-1.47.3c.2.85.36,1.71.6,2.55l1.44-.43C411.8,216.65,411.65,215.83,411.46,215Z" transform="translate(-74.47 -70.11)"/><path class="cls-3" d="M410.89,210.6l-1.5.07c0,.87.17,1.74.26,2.6l1.48-.2C411.06,212.25,410.9,211.43,410.89,210.6Z" transform="translate(-74.47 -70.11)"/><path class="cls-3" d="M411,206.14l-1.49-.13a17.36,17.36,0,0,0-.14,2.6l1.5,0A17.32,17.32,0,0,1,411,206.14Z" transform="translate(-74.47 -70.11)"/><path class="cls-2" d="M404.75,220.94A34.48,34.48,0,0,0,414,235.39l10.27-10.93a19.42,19.42,0,0,1-5.32-8.3Z" transform="translate(-74.47 -70.11)"/><path class="cls-3" d="M417.14,227,416,228a25.1,25.1,0,0,0,1.77,1.95l1.06-1.06C418.23,228.25,417.66,227.65,417.14,227Z" transform="translate(-74.47 -70.11)"/><path class="cls-3" d="M414.57,223.36l-1.29.75c.46.75.91,1.5,1.43,2.21l1.22-.88C415.43,224.78,415,224.06,414.57,223.36Z" transform="translate(-74.47 -70.11)"/><path class="cls-3" d="M412.7,219.34l-1.41.53a22.17,22.17,0,0,0,1,2.42l1.34-.66A17.54,17.54,0,0,1,412.7,219.34Z" transform="translate(-74.47 -70.11)"/><path class="cls-2" d="M414,235.39A42,42,0,0,0,428.15,244L433.38,230a27.22,27.22,0,0,1-9.09-5.49Z" transform="translate(-74.47 -70.11)"/><path class="cls-3" d="M427.73,235.11l-.65,1.35c.79.35,1.57.74,2.38,1l.56-1.39C429.24,235.82,428.49,235.44,427.73,235.11Z" transform="translate(-74.47 -70.11)"/><path class="cls-3" d="M423.83,232.91l-.82,1.25c.72.49,1.48.91,2.23,1.35l.73-1.31C425.25,233.78,424.52,233.37,423.83,232.91Z" transform="translate(-74.47 -70.11)"/><path class="cls-3" d="M420.27,230.23l-1,1.12c.68.56,1.33,1.14,2,1.64l.9-1.21C421.53,231.31,420.91,230.75,420.27,230.23Z" transform="translate(-74.47 -70.11)"/><path class="cls-2" d="M428.15,244a50.45,50.45,0,0,0,15.69,3.09l.56-15a35.94,35.94,0,0,1-11-2.15Z" transform="translate(-74.47 -70.11)"/><path class="cls-3" d="M440.65,238.79l-.18,1.49c.85.13,1.72.17,2.58.24l.09-1.49C442.31,239,441.47,238.91,440.65,238.79Z" transform="translate(-74.47 -70.11)"/><path class="cls-3" d="M436.22,238l-.33,1.46c.84.17,1.69.37,2.54.49l.25-1.48C437.85,238.39,437,238.2,436.22,238Z" transform="translate(-74.47 -70.11)"/><path class="cls-3" d="M431.91,236.81l-.48,1.42c.81.3,1.65.52,2.47.77l.4-1.44C433.5,237.32,432.7,237.1,431.91,236.81Z" transform="translate(-74.47 -70.11)"/><path class="cls-2" d="M443.84,247.09A44.84,44.84,0,0,0,460,244.87l-4.87-14.18a30.18,30.18,0,0,1-10.75,1.41Z" transform="translate(-74.47 -70.11)"/><path class="cls-3" d="M454.06,238.22l.32,1.46c.86-.17,1.69-.42,2.53-.66l-.44-1.43C455.67,237.82,454.87,238.05,454.06,238.22Z" transform="translate(-74.47 -70.11)"/><path class="cls-3" d="M449.63,238.92l.14,1.49c.87-.09,1.73-.18,2.58-.34l-.24-1.48C451.29,238.74,450.46,238.83,449.63,238.92Z" transform="translate(-74.47 -70.11)"/><path class="cls-3" d="M445.16,239.1l0,1.5c.86,0,1.73,0,2.59,0l-.07-1.5C446.83,239.1,446,239.1,445.16,239.1Z" transform="translate(-74.47 -70.11)"/><path class="cls-2" d="M460,244.87a34.85,34.85,0,0,0,4.06-1.68c.72-.39,1.44-.8,2.15-1.22s1.3-.91,1.94-1.37a34.34,34.34,0,0,0,6.1-6.15l-11.75-9.32a18.93,18.93,0,0,1-3.46,3.55c-.28.19-.56.45-.84.61s-.55.3-.82.47a20.28,20.28,0,0,1-2.25.93Z" transform="translate(-74.47 -70.11)"/><path class="cls-3" d="M465.69,232.09l1.07,1c.58-.65,1.22-1.26,1.75-1.94l-1.15-1C466.85,230.9,466.25,231.47,465.69,232.09Z" transform="translate(-74.47 -70.11)"/><polygon class="cls-3" points="387.83 164.84 388.67 166.08 389.74 165.3 390.27 164.9 390.76 164.46 389.79 163.32 389.32 163.74 388.83 164.1 387.83 164.84"/><path class="cls-3" d="M458.37,236.93l.54,1.4a24.39,24.39,0,0,0,2.4-1.07l-.67-1.34A21.81,21.81,0,0,1,458.37,236.93Z" transform="translate(-74.47 -70.11)"/><path class="cls-2" d="M474.27,234.45a82.32,82.32,0,0,0,8-12.73l-13.26-7a69.09,69.09,0,0,1-6.48,10.42Z" transform="translate(-74.47 -70.11)"/><polygon class="cls-3" points="399 150.96 400.31 151.69 401.53 149.45 400.21 148.74 399 150.96"/><path class="cls-3" d="M471.15,225l1.27.8c.46-.72.92-1.44,1.34-2.19l-1.29-.76C472.05,223.53,471.6,224.24,471.15,225Z" transform="translate(-74.47 -70.11)"/><polygon class="cls-3" points="394.15 158.55 395.35 159.45 396.84 157.34 395.6 156.5 394.15 158.55"/><path class="cls-2" d="M482.26,221.72c2.22-4.23,4.22-8.44,6.17-12.64l-13.61-6.29c-1.89,4.06-3.8,8.08-5.82,11.92Z" transform="translate(-74.47 -70.11)"/><polygon class="cls-3" points="405.17 138.81 406.53 139.45 407.61 137.15 406.25 136.51 405.17 138.81"/><polygon class="cls-3" points="403.2 142.9 404.55 143.56 405.66 141.27 404.31 140.62 403.2 142.9"/><polygon class="cls-3" points="401.17 146.94 402.5 147.63 403.66 145.36 402.32 144.69 401.17 146.94"/><path class="cls-2" d="M488.43,209.08c1.94-4.2,3.81-8.39,5.67-12.57l-13.72-6.08c-1.83,4.15-3.68,8.28-5.56,12.36Z" transform="translate(-74.47 -70.11)"/><rect class="cls-4" x="485.25" y="194.89" width="2.54" height="1.5" transform="translate(35.25 490.22) rotate(-65.97)"/><polygon class="cls-3" points="408.98 130.53 410.35 131.15 411.39 128.84 410.02 128.22 408.98 130.53"/><polygon class="cls-3" points="407.1 134.66 408.47 135.28 409.52 132.97 408.16 132.35 407.1 134.66"/><polygon class="cls-2" points="419.62 126.4 422.39 120.13 425.15 113.78 411.35 107.9 408.67 114.08 405.91 120.32 419.62 126.4"/><polygon class="cls-3" points="416.36 113.89 417.74 114.48 418.74 112.15 417.37 111.56 416.36 113.89"/><rect class="cls-4" x="488.93" y="186.55" width="2.54" height="1.5" transform="translate(46.52 490.1) rotate(-66.2)"/><rect class="cls-4" x="487.1" y="190.7" width="2.54" height="1.5" transform="translate(41.19 490.46) rotate(-66.13)"/><path class="cls-2" d="M499.62,183.89l2.67-6.34c.87-2.07,1.76-4.21,2.52-5.74L491.45,165c-1.26,2.54-2.09,4.63-3,6.76L485.83,178Z" transform="translate(-74.47 -70.11)"/><path class="cls-3" d="M496.17,171.42l1.37.59c.33-.77.67-1.54,1-2.29l-1.36-.64C496.85,169.86,496.5,170.64,496.17,171.42Z" transform="translate(-74.47 -70.11)"/><rect class="cls-4" x="494.31" y="173.98" width="2.54" height="1.5" transform="translate(68.79 494.5) rotate(-67.32)"/><polygon class="cls-3" points="418.17 109.68 419.55 110.27 420.54 107.92 419.15 107.34 418.17 109.68"/><path class="cls-2" d="M504.81,171.81a6.59,6.59,0,0,1,.72-1.18s.05,0,.07-.07.11-.08.15-.13a5.36,5.36,0,0,1,.75-.46,14.5,14.5,0,0,1,4.18-1.58l-3.23-14.65a29.31,29.31,0,0,0-8.53,3.29,20.92,20.92,0,0,0-2.13,1.37c-.39.32-.77.6-1.17,1s-.79.72-1.14,1.12a20,20,0,0,0-3,4.52Z" transform="translate(-74.47 -70.11)"/><path class="cls-3" d="M505.48,161.58,506,163c.76-.25,1.52-.55,2.31-.73L508,160.8A24.37,24.37,0,0,0,505.48,161.58Z" transform="translate(-74.47 -70.11)"/><path class="cls-3" d="M501.33,163.73l.86,1.23a23.36,23.36,0,0,1,2.07-1.21l-.67-1.34A24.61,24.61,0,0,0,501.33,163.73Z" transform="translate(-74.47 -70.11)"/><path class="cls-3" d="M498.16,167.22l1.3.75a10.82,10.82,0,0,1,1.35-1.86l-1.09-1A12.38,12.38,0,0,0,498.16,167.22Z" transform="translate(-74.47 -70.11)"/><path class="cls-2" d="M510.68,168.39a27.69,27.69,0,0,1,5.22-.54,41.71,41.71,0,0,1,5.71.41l2.1-14.85a46.77,46.77,0,0,0-16.26.33Z" transform="translate(-74.47 -70.11)"/><path class="cls-3" d="M519.17,159.94l-.1,1.5c.82,0,1.65.14,2.47.24l.18-1.49C520.87,160.09,520,160,519.17,159.94Z" transform="translate(-74.47 -70.11)"/><path class="cls-3" d="M514.57,159.86l.06,1.5c.82-.06,1.64,0,2.47,0l0-1.5C516.28,159.83,515.42,159.8,514.57,159.86Z" transform="translate(-74.47 -70.11)"/><path class="cls-3" d="M510,160.35l.27,1.48c.4-.07.8-.15,1.21-.21l1.22-.13-.15-1.49-1.28.13C510.84,160.19,510.41,160.28,510,160.35Z" transform="translate(-74.47 -70.11)"/><path class="cls-2" d="M521.61,168.26a62.22,62.22,0,0,1,11.77,3l5-14.13a77.19,77.19,0,0,0-14.68-3.72Z" transform="translate(-74.47 -70.11)"/><polygon class="cls-3" points="458.2 92.46 457.77 93.89 460.15 94.66 460.63 93.25 458.2 92.46"/><path class="cls-3" d="M528.25,161.37l-.34,1.46c.8.21,1.62.38,2.42.62l.4-1.44C529.91,161.76,529.08,161.59,528.25,161.37Z" transform="translate(-74.47 -70.11)"/><path class="cls-3" d="M523.77,160.48l-.24,1.48c.82.12,1.64.27,2.45.45l.3-1.47C525.45,160.76,524.61,160.61,523.77,160.48Z" transform="translate(-74.47 -70.11)"/><path class="cls-2" d="M533.38,171.26a89.14,89.14,0,0,1,11.48,5.08l7-13.25a102,102,0,0,0-13.5-6Z" transform="translate(-74.47 -70.11)"/><path class="cls-3" d="M545.44,167.64l-.65,1.35c.76.35,1.49.75,2.24,1.13l.69-1.34C547,168.4,546.21,168,545.44,167.64Z" transform="translate(-74.47 -70.11)"/><path class="cls-3" d="M541.28,165.74l-.59,1.38c.77.34,1.54.66,2.3,1l.62-1.36C542.84,166.41,542.06,166.08,541.28,165.74Z" transform="translate(-74.47 -70.11)"/><path class="cls-3" d="M537,164.05l-.52,1.41c.79.27,1.57.59,2.34.9l.56-1.39C538.63,164.65,537.85,164.33,537,164.05Z" transform="translate(-74.47 -70.11)"/><path class="cls-2" d="M544.86,176.34A96.92,96.92,0,0,1,555.62,183l8.72-12.21a113.73,113.73,0,0,0-12.45-7.72Z" transform="translate(-74.47 -70.11)"/><path class="cls-3" d="M557.36,174.46l-.83,1.25c.69.47,1.4.92,2.07,1.41l.86-1.22C558.78,175.39,558.06,174.94,557.36,174.46Z" transform="translate(-74.47 -70.11)"/><polygon class="cls-3" points="479.02 101.9 478.25 103.18 480.38 104.51 481.19 103.24 479.02 101.9"/><path class="cls-3" d="M549.54,169.75l-.72,1.32c.73.4,1.48.79,2.19,1.22l.75-1.3C551,170.55,550.28,170.16,549.54,169.75Z" transform="translate(-74.47 -70.11)"/><path class="cls-2" d="M555.62,183a88.42,88.42,0,0,1,9.74,8l10.34-10.87a104.26,104.26,0,0,0-11.36-9.35Z" transform="translate(-74.47 -70.11)"/><polygon class="cls-3" points="493.79 112.69 492.8 113.81 494.66 115.5 495.68 114.4 493.79 112.69"/><path class="cls-3" d="M564.75,179.86l-.93,1.17c.65.53,1.31,1,1.94,1.6l1-1.15C566.09,180.92,565.42,180.4,564.75,179.86Z" transform="translate(-74.47 -70.11)"/><polygon class="cls-3" points="486.67 106.97 485.78 108.19 487.79 109.7 488.7 108.51 486.67 106.97"/><path class="cls-2" d="M565.36,191c1.5,1.45,3,2.92,4.34,4.47s2.69,3.13,4,4.84l11.85-9.19c-1.46-1.87-3-3.83-4.71-5.66s-3.4-3.62-5.17-5.33Z" transform="translate(-74.47 -70.11)"/><path class="cls-3" d="M577.85,192.64l-1.16,1c.53.64,1.06,1.29,1.58,2l1.18-.92C578.92,194,578.39,193.3,577.85,192.64Z" transform="translate(-74.47 -70.11)"/><polygon class="cls-3" points="500.36 119.08 499.26 120.1 500.93 121.97 502.06 120.98 500.36 119.08"/><path class="cls-3" d="M571.64,185.94l-1,1.07c.6.58,1.2,1.16,1.78,1.77l1.07-1C572.86,187.12,572.25,186.53,571.64,185.94Z" transform="translate(-74.47 -70.11)"/><path class="cls-2" d="M573.73,200.34c1.33,1.72,2.69,3.58,4.33,5.57a40.77,40.77,0,0,0,5.85,5.93l9.44-11.66a26.38,26.38,0,0,1-3.71-3.8c-1.26-1.53-2.6-3.34-4.06-5.23Z" transform="translate(-74.47 -70.11)"/><path class="cls-3" d="M586.41,203.24l-1.08,1c.59.63,1.23,1.23,1.89,1.81l1-1.13C587.58,204.41,587,203.84,586.41,203.24Z" transform="translate(-74.47 -70.11)"/><path class="cls-3" d="M583.47,199.83l-1.18.93c.53.67,1.08,1.34,1.64,2l1.14-1C584.52,201.14,584,200.49,583.47,199.83Z" transform="translate(-74.47 -70.11)"/><polygon class="cls-3" points="506.23 126.13 505.04 127.05 506.58 129.06 507.77 128.15 506.23 126.13"/><path class="cls-2" d="M583.91,211.84a36.46,36.46,0,0,0,7.29,4.54c1.25.55,2.51,1.14,3.78,1.57s2.55.87,3.83,1.24l4-14.45c-.9-.26-1.81-.52-2.66-.86a27.35,27.35,0,0,1-2.53-1,21,21,0,0,1-4.29-2.65Z" transform="translate(-74.47 -70.11)"/><path class="cls-3" d="M597.64,210.37l-.53,1.41c.82.3,1.63.61,2.46.83l.44-1.44A24.44,24.44,0,0,1,597.64,210.37Z" transform="translate(-74.47 -70.11)"/><path class="cls-3" d="M593.54,208.57l-.7,1.33c.76.42,1.56.76,2.36,1.11l.59-1.38C595,209.3,594.26,209,593.54,208.57Z" transform="translate(-74.47 -70.11)"/><path class="cls-3" d="M589.77,206.22l-.9,1.2c.7.52,1.43,1,2.17,1.47l.79-1.28C591.12,207.18,590.43,206.71,589.77,206.22Z" transform="translate(-74.47 -70.11)"/><path class="cls-2" d="M598.81,219.19A50.86,50.86,0,0,0,614.67,221l-.66-15a35.78,35.78,0,0,1-11.18-1.31Z" transform="translate(-74.47 -70.11)"/><path class="cls-3" d="M610.82,213l-.07,1.5c.87,0,1.73.1,2.6,0l0-1.5C612.49,213.11,611.65,213,610.82,213Z" transform="translate(-74.47 -70.11)"/><path class="cls-3" d="M606.35,212.59l-.22,1.49c.85.16,1.71.2,2.57.3l.13-1.5C608,212.79,607.17,212.75,606.35,212.59Z" transform="translate(-74.47 -70.11)"/><polygon class="cls-3" points="527.48 141.61 527.11 143.07 529.64 143.63 529.92 142.16 527.48 141.61"/><path class="cls-2" d="M614.67,221c1.34,0,2.72-.21,4.08-.35s2.74-.47,4.1-.76l2.06-.57,1-.3,1-.38,2-.8c.67-.29,1.33-.65,2-1l-7-13.29c-.36.17-.69.38-1.07.54l-1.16.44-.57.24-.62.16-1.24.36c-.86.16-1.72.36-2.61.47a27.15,27.15,0,0,1-2.73.23Z" transform="translate(-74.47 -70.11)"/><path class="cls-3" d="M624.06,211.18l.51,1.41a23.4,23.4,0,0,0,2.43-1l-.64-1.35C625.63,210.63,624.83,210.86,624.06,211.18Z" transform="translate(-74.47 -70.11)"/><path class="cls-3" d="M619.76,212.37l.29,1.47c.43-.09.86-.15,1.28-.26l1.26-.36-.41-1.44-1.2.34C620.58,212.23,620.17,212.28,619.76,212.37Z" transform="translate(-74.47 -70.11)"/><polygon class="cls-3" points="540.87 142.87 540.97 144.36 543.56 144.09 543.35 142.6 540.87 142.87"/><path class="cls-2" d="M631,216.9a29.49,29.49,0,0,0,3.84-2.35,18.38,18.38,0,0,0,1.79-1.43c.57-.51,1.18-1,1.71-1.53l1.55-1.72c.26-.29.52-.57.76-.87l.69-.93a28.61,28.61,0,0,0,2.39-3.91l-13.38-6.78a14,14,0,0,1-6.3,6.23Z" transform="translate(-74.47 -70.11)"/><path class="cls-3" d="M634.72,203.47l1.21.89a20.44,20.44,0,0,0,1.43-2.23l-1.3-.74c-.19.37-.42.72-.64,1.06S635,203.14,634.72,203.47Z" transform="translate(-74.47 -70.11)"/><path class="cls-3" d="M631.71,206.72l1,1.12a11.62,11.62,0,0,0,1-.88l.89-1-1.12-1-.83.91A9.07,9.07,0,0,1,631.71,206.72Z" transform="translate(-74.47 -70.11)"/><path class="cls-3" d="M628.14,209.32l.75,1.3c.75-.46,1.48-1,2.21-1.45l-.89-1.21C629.52,208.41,628.85,208.89,628.14,209.32Z" transform="translate(-74.47 -70.11)"/><path class="cls-2" d="M643.69,204.16a35.46,35.46,0,0,0,3.56-16.81l-15,.33a20.45,20.45,0,0,1-1.94,9.7Z" transform="translate(-74.47 -70.11)"/><path class="cls-3" d="M639.11,191l1.5.12c.07-.86.11-1.73.12-2.6h-1.5Q639.22,189.78,639.11,191Z" transform="translate(-74.47 -70.11)"/><path class="cls-3" d="M638.4,195.42l1.45.36c.22-.85.38-1.71.52-2.57l-1.49-.23C638.75,193.8,638.6,194.62,638.4,195.42Z" transform="translate(-74.47 -70.11)"/><path class="cls-3" d="M637,199.62l1.36.61a26.11,26.11,0,0,0,1-2.46l-1.43-.46C637.6,198.09,637.3,198.86,637,199.62Z" transform="translate(-74.47 -70.11)"/></g><g id="Food_copy_7" data-name="Food copy 7"><polyline points="577.88 123.86 568.9 105.9 586.86 105.9"/></g><g id="Poop_copy_7" data-name="Poop copy 7"><rect x="16.51" y="141.99" width="17.96" height="17.96"/></g><g id="Pee_copy_8-2" data-name="Pee copy 8"><circle class="cls-5" cx="30.66" cy="124.86" r="8.31"/></g><g id="Me_copy_7" data-name="Me copy 7"><line class="cls-5" x1="142.13" y1="424.19" x2="93.23" y2="375.3"/><line class="cls-5" x1="142.13" y1="375.3" x2="93.23" y2="424.19"/></g></g></svg>