<svg id="drawings" xmlns="http://www.w3.org/2000/svg" viewBox="0 0 587.98 424.54"><defs><style>.cls-1,.cls-2,.cls-5{fill:none;}.cls-1,.cls-5{stroke:#000;}.cls-1{stroke-linecap:round;stroke-linejoin:round;}.cls-3,.cls-4{fill:#231f20;}.cls-3{fill-rule:evenodd;}.cls-5{stroke-miterlimit:10;}</style></defs><g id="_9_9" data-name="9/9"><g id="Litter_Box_copy_9" data-name="Litter Box copy 9"><rect class="cls-1" x="0.5" y="106.32" width="47.94" height="61.51"/><rect class="cls-1" x="499.04" y="0.5" width="47.94" height="61.51"/></g><g id="Path_copy_9" data-name="Path copy 9"><path class="cls-2" d="M411.85,168.11c2.09.94,4.16,1.91,6.26,2.83s4.22,1.8,6.38,2.61l5.43-14c-2-.74-3.9-1.61-5.86-2.4s-3.85-1.74-5.78-2.61Z" transform="translate(-74.47 -70.11)"/><polygon class="cls-3" points="349.75 94.67 349.18 96.06 351.46 97 352.01 95.61 349.75 94.67"/><path class="cls-3" d="M420.18,163.08l-.6,1.37c.74.35,1.51.65,2.27,1l.58-1.38C421.68,163.72,420.92,163.43,420.18,163.08Z" transform="translate(-74.47 -70.11)"/><polygon class="cls-3" points="341.73 91.16 341.09 92.52 343.34 93.53 343.96 92.17 341.73 91.16"/><path class="cls-2" d="M424.49,173.55c2.15.8,4.28,1.65,6.48,2.37l3.27,1.11,3.31,1,4.29-14.37-3-.91-3-1c-2-.64-4-1.43-5.93-2.16Z" transform="translate(-74.47 -70.11)"/><polygon class="cls-3" points="362.11 99.23 361.65 100.66 364.01 101.38 364.44 99.94 362.11 99.23"/><polygon class="cls-3" points="357.96 97.82 357.46 99.23 359.79 100.03 360.27 98.61 357.96 97.82"/><polygon class="cls-3" points="353.86 96.3 353.32 97.7 355.63 98.58 356.14 97.17 353.86 96.3"/><path class="cls-2" d="M437.55,178c2.2.71,4.45,1.24,6.68,1.86s4.5,1.1,6.78,1.53l3-14.7c-2.05-.38-4.07-.91-6.11-1.38s-4.05-1-6.05-1.68Z" transform="translate(-74.47 -70.11)"/><path class="cls-3" d="M449.27,172.83l-.33,1.46c.8.18,1.6.39,2.41.54l.31-1.47C450.86,173.21,450.07,173,449.27,172.83Z" transform="translate(-74.47 -70.11)"/><path class="cls-3" d="M445,171.79l-.38,1.45c.79.21,1.59.43,2.39.61l.36-1.46C446.59,172.21,445.8,172,445,171.79Z" transform="translate(-74.47 -70.11)"/><path class="cls-3" d="M440.8,170.63l-.42,1.44c.79.25,1.59.45,2.38.67l.4-1.45C442.37,171.08,441.58,170.88,440.8,170.63Z" transform="translate(-74.47 -70.11)"/><path class="cls-2" d="M451,181.42a138.44,138.44,0,0,0,13.78,2.12l1.54-14.92a123.25,123.25,0,0,1-12.33-1.9Z" transform="translate(-74.47 -70.11)"/><path class="cls-3" d="M462.23,175.15l-.2,1.49c.82.1,1.63.23,2.45.31l.17-1.49C463.84,175.38,463,175.25,462.23,175.15Z" transform="translate(-74.47 -70.11)"/><path class="cls-3" d="M457.89,174.52l-.24,1.48c.81.13,1.62.27,2.44.39l.21-1.49C459.5,174.79,458.69,174.64,457.89,174.52Z" transform="translate(-74.47 -70.11)"/><path class="cls-3" d="M453.59,173.74l-.29,1.48c.81.15,1.62.33,2.43.46l.26-1.47C455.19,174.07,454.39,173.9,453.59,173.74Z" transform="translate(-74.47 -70.11)"/><path class="cls-2" d="M464.79,183.54a130.5,130.5,0,0,0,14,.72l0-15a112,112,0,0,1-12.41-.64Z" transform="translate(-74.47 -70.11)"/><path class="cls-3" d="M475.34,176.19l0,1.5c.82,0,1.65,0,2.47,0v-1.5C477,176.21,476.15,176.22,475.34,176.19Z" transform="translate(-74.47 -70.11)"/><path class="cls-3" d="M471,176l-.09,1.5c.82.06,1.65.1,2.47.13l.06-1.5C472.59,176.09,471.77,176.06,471,176Z" transform="translate(-74.47 -70.11)"/><path class="cls-3" d="M466.61,175.65l-.14,1.49c.82.08,1.64.17,2.46.22l.11-1.5C468.23,175.82,467.42,175.73,466.61,175.65Z" transform="translate(-74.47 -70.11)"/><path class="cls-2" d="M478.77,184.26a127.31,127.31,0,0,0,14-.8l-1.72-14.9a112.29,112.29,0,0,1-12.34.7Z" transform="translate(-74.47 -70.11)"/><path class="cls-3" d="M488.48,175.81l.13,1.5c.82-.07,1.64-.12,2.46-.23l-.16-1.49C490.11,175.7,489.29,175.74,488.48,175.81Z" transform="translate(-74.47 -70.11)"/><path class="cls-3" d="M484.11,176.1l.07,1.5c.82,0,1.65-.06,2.47-.14l-.1-1.5C485.74,176,484.93,176.05,484.11,176.1Z" transform="translate(-74.47 -70.11)"/><polygon class="cls-3" points="405.28 106.11 405.29 107.61 407.76 107.56 407.72 106.06 405.28 106.11"/><path class="cls-2" d="M492.8,183.46a104.51,104.51,0,0,0,13.95-2.56l-3.64-14.55a89.47,89.47,0,0,1-12,2.21Z" transform="translate(-74.47 -70.11)"/><polygon class="cls-3" points="427 103.78 427.32 105.24 429.74 104.69 429.38 103.24 427 103.78"/><path class="cls-3" d="M497.18,174.74l.26,1.47c.81-.13,1.62-.3,2.43-.46l-.29-1.47C498.78,174.43,498,174.6,497.18,174.74Z" transform="translate(-74.47 -70.11)"/><path class="cls-3" d="M492.87,175.36l.18,1.49c.83-.08,1.64-.2,2.46-.34l-.22-1.48C494.48,175.16,493.68,175.28,492.87,175.36Z" transform="translate(-74.47 -70.11)"/><path class="cls-2" d="M506.75,180.9c4.52-1.13,8.69-2.4,12.7-3.36L516,163c-4.56,1.09-8.82,2.38-12.85,3.39Z" transform="translate(-74.47 -70.11)"/><path class="cls-3" d="M514.24,170.58l.39,1.45c.78-.22,1.57-.41,2.36-.6l-.36-1.46C515.83,170.17,515,170.36,514.24,170.58Z" transform="translate(-74.47 -70.11)"/><rect class="cls-4" x="510.15" y="171.38" width="2.45" height="1.5" transform="matrix(0.96, -0.26, 0.26, 0.96, -101.79, 71.29)"/><polygon class="cls-3" points="431.29 102.75 431.67 104.2 434.05 103.57 433.66 102.13 431.29 102.75"/><path class="cls-2" d="M519.45,177.54a92,92,0,0,1,12.09-2.09l-1.65-14.91A105.65,105.65,0,0,0,516,163Z" transform="translate(-74.47 -70.11)"/><path class="cls-3" d="M527.24,167.89l.21,1.48c.8-.13,1.6-.22,2.41-.31l-.18-1.49C528.87,167.66,528.05,167.75,527.24,167.89Z" transform="translate(-74.47 -70.11)"/><path class="cls-3" d="M522.87,168.61l.28,1.47c.8-.14,1.59-.31,2.39-.42l-.24-1.48C524.49,168.29,523.68,168.46,522.87,168.61Z" transform="translate(-74.47 -70.11)"/><polygon class="cls-3" points="444.09 99.39 444.43 100.86 446.8 100.33 446.5 98.86 444.09 99.39"/><path class="cls-2" d="M531.54,175.45c1-.13,2-.23,3.08-.3s2.06-.17,3.1-.22c2.09-.08,4.21-.22,6.24-.21l-.12-15c-2.37,0-4.65.14-7,.23-1.15.06-2.32.17-3.48.25s-2.33.19-3.5.34Z" transform="translate(-74.47 -70.11)"/><path class="cls-3" d="M540.45,166.77l.06,1.5c.81,0,1.62-.07,2.43-.07l0-1.5C542.09,166.7,541.27,166.73,540.45,166.77Z" transform="translate(-74.47 -70.11)"/><path class="cls-3" d="M536,167l.1,1.49c.81-.07,1.62-.08,2.44-.13l-.08-1.49C537.68,166.9,536.86,166.91,536,167Z" transform="translate(-74.47 -70.11)"/><path class="cls-3" d="M531.66,167.35l.15,1.49c.8-.1,1.61-.14,2.42-.21l-.12-1.49C533.29,167.21,532.47,167.24,531.66,167.35Z" transform="translate(-74.47 -70.11)"/><path class="cls-2" d="M544,174.72a109.17,109.17,0,0,1,12.36.61l1.55-14.92a125.78,125.78,0,0,0-14-.69Z" transform="translate(-74.47 -70.11)"/><path class="cls-3" d="M553.72,167l-.12,1.5c.81.05,1.62.13,2.43.21l.14-1.49C555.36,167.16,554.54,167.08,553.72,167Z" transform="translate(-74.47 -70.11)"/><polygon class="cls-3" points="474.83 96.66 474.78 98.16 477.2 98.28 477.3 96.78 474.83 96.66"/><polygon class="cls-3" points="470.43 96.56 470.43 98.06 472.86 98.1 472.89 96.6 470.43 96.56"/><path class="cls-2" d="M556.32,175.33c4.14.43,8.33,1.07,12.54,1.81l2.62-14.77c-4.46-.79-9-1.48-13.61-2Z" transform="translate(-74.47 -70.11)"/><path class="cls-3" d="M566.87,168.66l-.24,1.48c.81.13,1.61.25,2.41.4l.26-1.48Z" transform="translate(-74.47 -70.11)"/><polygon class="cls-3" points="488.04 97.89 487.83 99.37 490.25 99.72 490.48 98.24 488.04 97.89"/><polygon class="cls-3" points="483.68 97.33 483.51 98.82 485.93 99.12 486.12 97.63 483.68 97.33"/><path class="cls-2" d="M568.86,177.14c4.21.75,8.46,1.6,12.72,2.51L584.69,165c-4.36-.93-8.75-1.82-13.21-2.61Z" transform="translate(-74.47 -70.11)"/><polygon class="cls-3" points="505.41 100.98 505.11 102.45 507.51 102.95 507.82 101.48 505.41 100.98"/><polygon class="cls-3" points="501.09 100.11 500.81 101.59 503.21 102.06 503.5 100.59 501.09 100.11"/><polygon class="cls-3" points="496.78 99.3 496.51 100.78 498.92 101.22 499.19 99.75 496.78 99.3"/><path class="cls-2" d="M581.58,179.65c4.26.9,8.54,1.85,12.82,2.81l3.28-14.63c-4.31-1-8.63-1.93-13-2.85Z" transform="translate(-74.47 -70.11)"/><rect class="cls-4" x="593.1" y="173.65" width="1.5" height="2.45" transform="translate(219.77 646.5) rotate(-77.46)"/><rect class="cls-4" x="588.8" y="172.7" width="1.5" height="2.45" transform="translate(219.2 642.59) rotate(-77.66)"/><polygon class="cls-3" points="509.75 101.89 509.44 103.36 511.83 103.87 512.15 102.41 509.75 101.89"/><polygon class="cls-2" points="519.93 112.35 532.76 115.26 536.16 100.66 523.21 97.72 519.93 112.35"/><rect class="cls-4" x="605.99" y="176.56" width="1.5" height="2.45" transform="translate(224.92 660.2) rotate(-77.25)"/><rect class="cls-4" x="601.7" y="175.59" width="1.5" height="2.45" transform="translate(222.77 655.38) rotate(-77.27)"/><rect class="cls-4" x="597.42" y="174.62" width="1.5" height="2.45" transform="translate(221.03 650.83) rotate(-77.34)"/><path class="cls-2" d="M607.23,185.37c4.22,1,8.4,2,12.48,3.16l4.06-14.43c-4.41-1.24-8.78-2.32-13.14-3.33Z" transform="translate(-74.47 -70.11)"/><path class="cls-3" d="M618.57,179.9l-.39,1.45c.79.21,1.58.41,2.36.64l.4-1.45C620.15,180.31,619.36,180.11,618.57,179.9Z" transform="translate(-74.47 -70.11)"/><polygon class="cls-3" points="539.82 108.7 539.46 110.16 541.84 110.75 542.21 109.3 539.82 108.7"/><polygon class="cls-3" points="535.55 107.67 535.21 109.13 537.59 109.7 537.94 108.24 535.55 107.67"/><path class="cls-2" d="M619.71,188.53a103.45,103.45,0,0,1,11.66,3.91l5.78-13.85a116.85,116.85,0,0,0-13.38-4.49Z" transform="translate(-74.47 -70.11)"/><polygon class="cls-3" points="556.78 113.66 556.26 115.06 558.53 115.93 559.08 114.54 556.78 113.66"/><path class="cls-3" d="M627.06,182.35l-.45,1.43c.78.23,1.54.51,2.3.76l.49-1.41C628.62,182.87,627.85,182.58,627.06,182.35Z" transform="translate(-74.47 -70.11)"/><path class="cls-3" d="M622.85,181.08l-.42,1.44c.79.22,1.57.44,2.34.69l.44-1.44C624.43,181.53,623.64,181.3,622.85,181.08Z" transform="translate(-74.47 -70.11)"/><path class="cls-2" d="M631.37,192.44a29.89,29.89,0,0,1,9,5.36l10.23-11a35.65,35.65,0,0,0-3.25-2.69c-.55-.41-1.12-.77-1.69-1.15s-1.13-.73-1.7-1.05l-1.71-1-1.71-.85c-1.15-.59-2.27-1-3.41-1.54Z" transform="translate(-74.47 -70.11)"/><path class="cls-3" d="M643.17,189.71l-.87,1.21c.61.5,1.26,1,1.85,1.47l1-1.13C644.5,190.71,643.82,190.23,643.17,189.71Z" transform="translate(-74.47 -70.11)"/><path class="cls-3" d="M639.38,187.35l-.72,1.32c.69.4,1.4.77,2.06,1.21l.81-1.27C640.83,188.15,640.09,187.77,639.38,187.35Z" transform="translate(-74.47 -70.11)"/><path class="cls-3" d="M635.39,185.43l-.6,1.37c.75.31,1.48.64,2.19,1l.66-1.35C636.91,186.08,636.15,185.74,635.39,185.43Z" transform="translate(-74.47 -70.11)"/><path class="cls-2" d="M640.39,197.8a18.13,18.13,0,0,1,3,3.63,23.24,23.24,0,0,1,2.24,4.49l14-5.26a38.34,38.34,0,0,0-3.64-7.31,33,33,0,0,0-5.41-6.51Z" transform="translate(-74.47 -70.11)"/><path class="cls-3" d="M651.76,199.91l-1.34.67c.34.72.68,1.43,1,2.17l1.39-.57C652.48,201.41,652.12,200.66,651.76,199.91Z" transform="translate(-74.47 -70.11)"/><path class="cls-3" d="M649.46,196.07l-1.23.86c.44.66.9,1.31,1.28,2l1.3-.76C650.4,197.45,649.93,196.76,649.46,196.07Z" transform="translate(-74.47 -70.11)"/><path class="cls-3" d="M646.61,192.63l-1.07,1.06c.52.59,1.11,1.12,1.57,1.76l1.16-.95C647.78,193.83,647.16,193.26,646.61,192.63Z" transform="translate(-74.47 -70.11)"/><path class="cls-2" d="M645.63,205.92a30.73,30.73,0,0,1,1.83,10.42l15-.2a45.48,45.48,0,0,0-2.78-15.48Z" transform="translate(-74.47 -70.11)"/><path class="cls-3" d="M655.3,212.77l-1.49.13c.08.8.12,1.6.15,2.4l1.5-.06C655.43,214.42,655.38,213.59,655.3,212.77Z" transform="translate(-74.47 -70.11)"/><path class="cls-3" d="M654.66,208.36l-1.47.3c.16.78.29,1.57.4,2.36l1.49-.21C655,210,654.82,209.17,654.66,208.36Z" transform="translate(-74.47 -70.11)"/><path class="cls-3" d="M653.49,204.06l-1.42.49c.26.75.48,1.51.69,2.28l1.45-.38C654,205.65,653.76,204.85,653.49,204.06Z" transform="translate(-74.47 -70.11)"/></g><g id="Food_copy_9" data-name="Food copy 9"><polyline points="576.27 176.81 567.29 158.84 585.25 158.84"/></g><g id="Poop_copy_9" data-name="Poop copy 9"><rect x="17.43" y="114.65" width="17.96" height="17.96"/></g><g id="Pee_copy_10-2" data-name="Pee copy 10"><circle class="cls-5" cx="18.09" cy="147.68" r="8.31"/></g><g id="Me_copy_9" data-name="Me copy 9"><line class="cls-5" x1="142.13" y1="424.19" x2="93.23" y2="375.3"/><line class="cls-5" x1="142.13" y1="375.3" x2="93.23" y2="424.19"/></g></g></svg>